<svg version="1.1" id="Layer_1" xmlns="http://www.w3.org/2000/svg" xmlns:xlink="http://www.w3.org/1999/xlink" x="0px" y="0px"
	 width="100%" viewBox="0 0 512 512" enable-background="new 0 0 512 512" xml:space="preserve">
<path fill="#000000" opacity="1.000000" stroke="none" 
	d="
M513.000000,177.000000 
	C513.000000,289.306030 513.000000,401.112061 513.000000,512.959045 
	C342.402283,512.959045 171.804581,512.959045 1.103429,512.959045 
	C1.103429,342.444000 1.103429,171.887909 1.103429,1.165914 
	C171.666534,1.165914 342.333252,1.165914 513.000000,1.165914 
	C513.000000,59.528721 513.000000,118.014359 513.000000,177.000000 
M19.985052,135.672745 
	C20.027246,136.167938 20.069441,136.663132 20.033911,138.073013 
	C20.017563,245.849228 19.890938,353.625671 20.137238,461.401306 
	C20.165146,473.612946 26.540878,482.952545 37.471165,489.212799 
	C46.867413,494.594482 56.874504,494.218170 67.945511,493.964264 
	C181.930466,493.976532 295.915405,493.997131 409.900360,493.958588 
	C413.128754,493.957489 416.439056,493.672150 419.571320,492.929504 
	C434.675323,489.348572 445.614746,476.686584 445.830292,462.891418 
	C446.330048,430.905792 445.927460,398.906067 446.258362,366.330170 
	C447.990417,363.583679 449.769714,360.865692 451.446350,358.085754 
	C458.654816,346.133820 465.833099,334.163696 473.653931,321.833252 
	C476.456116,316.888458 479.258301,311.943665 482.609894,306.610565 
	C484.800140,302.919830 487.123444,299.300751 489.156891,295.525543 
	C496.748077,281.432068 492.751923,266.582397 483.070648,257.871338 
	C472.113007,248.011826 459.286499,247.544098 446.013702,253.021393 
	C445.999146,225.411362 445.984619,197.801331 446.699371,170.015289 
	C459.125000,165.175934 469.522156,157.149582 477.397003,146.798859 
	C490.512512,129.559723 496.246155,109.977631 493.117462,87.938675 
	C489.325592,61.228222 474.735748,42.377209 452.110596,29.085632 
	C442.593719,23.494743 431.960388,21.146963 420.104065,20.009930 
	C415.193329,20.335274 410.264893,20.495014 405.375061,21.016333 
	C389.300049,22.730127 375.408661,29.349533 363.398224,40.065559 
	C354.945099,47.607620 348.775146,56.811359 342.944580,66.985199 
	C255.355087,66.990730 167.765594,66.991081 80.176094,67.015327 
	C75.182617,67.016708 70.189178,67.213615 64.251678,67.081261 
	C50.080360,65.722198 37.138138,67.657410 27.538664,79.792183 
	C23.722290,84.616486 20.883585,89.603531 20.324360,96.464737 
	C20.243635,109.286484 20.162909,122.108231 19.985052,135.672745 
z"/>
<path fill="#DDDDFF" opacity="1.000000" stroke="none" 
	d="
M445.970062,170.191299 
	C445.984619,197.801331 445.999146,225.411362 445.962585,253.807434 
	C438.558624,260.084106 433.651825,267.362518 430.070007,276.019684 
	C426.839294,281.130341 423.921997,286.059723 420.698242,291.136108 
	C414.007843,301.617767 407.581055,311.926270 401.248322,322.292236 
	C383.637115,351.119598 366.065033,379.970825 348.339172,409.275299 
	C348.209717,420.514526 348.218628,431.291107 348.198181,442.517090 
	C348.101776,445.651154 348.034668,448.335785 347.500977,451.018951 
	C252.383102,451.015900 157.731842,451.013885 63.080578,451.016418 
	C61.582027,451.016449 60.053013,450.891083 58.590931,451.137329 
	C54.956417,451.749390 53.187935,454.052429 52.994545,457.710632 
	C52.792973,461.523651 55.216564,463.089447 58.338158,463.826263 
	C59.923599,464.200439 61.653721,463.995056 63.318439,463.995148 
	C156.303360,464.000458 249.288269,464.000824 342.273193,463.993347 
	C344.271179,463.993164 346.269165,463.896698 348.520935,464.035400 
	C350.242126,464.395233 352.012238,465.180023 353.126434,464.631775 
	C359.135498,461.674835 364.981812,458.387177 371.245209,455.122833 
	C381.029633,450.075897 390.453094,445.119690 400.202820,440.022888 
	C414.670288,416.848419 428.804504,393.810242 442.970154,370.791382 
	C443.814758,369.418945 444.911377,368.201599 445.890717,366.912079 
	C445.927460,398.906067 446.330048,430.905792 445.830292,462.891418 
	C445.614746,476.686584 434.675323,489.348572 419.571320,492.929504 
	C416.439056,493.672150 413.128754,493.957489 409.900360,493.958588 
	C295.915405,493.997131 181.930466,493.976532 67.386551,493.559845 
	C66.312553,492.789673 65.848175,492.256714 65.274940,492.083069 
	C55.511593,489.125610 47.811348,483.286469 44.159126,473.822723 
	C41.715782,467.491486 40.200146,460.371094 40.183346,453.599091 
	C39.922268,348.362457 39.974209,243.125000 40.375702,137.665405 
	C42.953312,137.349106 45.108990,137.173492 47.264713,137.173004 
	C112.535095,137.158447 177.805481,137.171448 243.075867,137.157013 
	C278.041107,137.149277 313.006348,137.098938 348.196594,137.317200 
	C355.505096,149.172089 364.982635,158.397263 375.897949,165.741867 
	C372.905457,165.806061 370.408661,165.850922 367.911926,165.847595 
	C274.552124,165.723526 181.192322,165.595016 87.381516,165.400299 
	C80.274727,165.445496 73.587936,165.194305 66.970810,165.759094 
	C58.194344,166.508209 52.781769,172.530930 52.747955,181.409668 
	C52.636307,210.725204 52.631256,240.041702 52.745750,269.357208 
	C52.782887,278.865967 58.858715,284.926422 68.328651,285.241547 
	C74.811890,285.457214 81.305779,285.353058 88.202728,285.536377 
	C93.587021,285.493408 98.563423,285.144745 103.539963,285.142548 
	C181.519165,285.108154 259.498352,285.119446 337.477570,285.117767 
	C357.638824,285.117340 377.800323,285.160034 397.961273,285.078491 
	C406.092865,285.045593 411.811768,280.040405 413.112152,272.034546 
	C413.510468,269.582306 413.782654,267.078796 413.787354,264.598145 
	C413.835632,239.105026 413.831604,213.611771 413.785553,188.118652 
	C413.782318,186.332108 413.329620,184.546387 413.269867,182.498993 
	C416.654175,180.055603 419.576477,177.016815 423.112579,175.869049 
	C430.561279,173.451340 438.331696,172.024658 445.970062,170.191299 
M94.951591,428.200317 
	C117.758034,428.170166 140.564499,428.152344 163.370895,428.104309 
	C173.550873,428.082886 178.007675,423.660156 178.014771,413.527893 
	C178.035904,383.395569 178.036026,353.263275 178.013748,323.130951 
	C178.006516,313.351898 173.624573,308.480713 163.868393,308.397308 
	C140.237778,308.195282 116.604256,308.332642 92.047531,308.191406 
	C84.886475,308.176971 77.724792,308.096497 70.564514,308.164551 
	C61.260319,308.252930 56.210453,313.429291 56.108929,322.833099 
	C56.087357,324.831390 56.104168,326.830078 56.104176,328.828583 
	C56.104256,357.140717 56.080391,385.452911 56.118305,413.764984 
	C56.130848,423.132843 60.888607,428.092468 70.059395,428.193634 
	C78.047638,428.281769 86.038857,428.100037 94.951591,428.200317 
M205.075012,308.179474 
	C201.835159,309.446716 196.894135,308.239655 196.955933,314.190308 
	C197.007065,319.109985 199.053299,320.995758 205.132172,320.996613 
	C260.738678,321.004395 316.345154,321.005524 371.951660,320.979919 
	C373.592987,320.979187 375.705322,321.237518 376.768768,320.364655 
	C378.510895,318.934753 380.797394,316.535645 380.601318,314.799744 
	C380.368561,312.738861 378.102417,310.271240 376.074646,309.221222 
	C373.865723,308.077362 370.919952,308.061615 368.295013,308.059509 
	C314.187164,308.016449 260.079254,308.045532 205.075012,308.179474 
M341.190308,344.002441 
	C295.924988,344.002563 250.659683,343.993164 205.394379,344.014343 
	C199.425400,344.017120 196.907501,346.098602 196.999283,350.701202 
	C197.085327,355.016205 199.572189,356.981750 205.300980,356.984589 
	C250.732697,357.007202 296.164429,357.003815 341.596130,356.987305 
	C346.362427,356.985565 350.150513,354.055145 349.931122,350.388855 
	C349.643524,345.582947 346.543823,343.892822 341.190308,344.002441 
M289.500000,392.015869 
	C302.483734,392.014099 315.467468,391.994415 328.451141,392.023743 
	C331.504211,392.030640 333.619019,391.057587 333.995605,387.674988 
	C334.393219,384.103149 333.224304,381.413086 329.715851,380.185150 
	C328.665741,379.817627 327.407440,380.005920 326.244507,380.005737 
	C285.795197,379.998901 245.345886,379.995056 204.896576,380.005920 
	C199.456787,380.007385 197.028152,381.905151 197.007233,386.044891 
	C196.984375,390.568146 198.797104,392.010803 204.605133,392.012268 
	C232.570084,392.019318 260.535034,392.015717 289.500000,392.015869 
M273.500000,428.001221 
	C286.152252,428.001129 298.804657,428.032166 311.456512,427.961945 
	C313.058899,427.953064 315.424072,427.956696 316.099091,427.005646 
	C317.488800,425.047791 318.938965,422.300110 318.608124,420.147369 
	C318.101990,416.854492 315.050720,415.937134 311.665405,415.944275 
	C276.039490,416.019623 240.413345,415.983917 204.787277,415.997650 
	C199.377197,415.999725 196.923340,417.983978 197.006790,422.141388 
	C197.087860,426.179626 199.550293,427.993896 205.076813,427.996613 
	C227.551208,428.007660 250.025604,428.001190 273.500000,428.001221 
z"/>
<path fill="#5C5E8B" opacity="1.000000" stroke="none" 
	d="
M347.971588,137.067841 
	C313.006348,137.098938 278.041107,137.149277 243.075867,137.157013 
	C177.805481,137.171448 112.535095,137.158447 47.264713,137.173004 
	C45.108990,137.173492 42.953312,137.349106 40.374451,137.466354 
	C39.951290,137.489624 39.975349,137.092255 40.020767,136.618195 
	C40.079201,125.674896 39.975548,115.203857 40.134911,104.736832 
	C40.331718,91.810257 44.288952,80.583839 55.567490,73.039177 
	C58.665825,70.966576 61.980385,69.217209 65.195724,67.319519 
	C70.189178,67.213615 75.182617,67.016708 80.176094,67.015327 
	C167.765594,66.991081 255.355087,66.990730 343.444427,67.337738 
	C341.900848,76.308449 339.857391,84.926605 337.356934,93.530998 
	C306.571808,93.507721 276.243683,93.487488 245.915558,93.505508 
	C242.924408,93.507286 239.879303,93.432396 236.954559,93.941109 
	C232.144516,94.777725 229.256287,99.500053 230.405792,104.014656 
	C231.524643,108.408783 234.861435,110.649826 240.838577,110.653481 
	C273.499390,110.673439 306.160248,110.633942 338.896790,111.031433 
	C341.972168,119.987938 344.971893,128.527878 347.971588,137.067841 
M155.942139,108.215500 
	C158.508774,101.942780 157.805008,97.042114 153.780029,93.159508 
	C150.250015,89.754356 144.915695,88.808517 140.374649,90.782593 
	C135.569077,92.871696 132.757996,97.395042 132.987762,102.668930 
	C133.201675,107.578827 136.423492,112.256668 141.041733,113.613914 
	C146.849426,115.320709 151.869492,113.964157 155.942139,108.215500 
M74.798492,112.661995 
	C79.521835,109.474106 81.757065,105.098991 80.505669,99.447166 
	C79.412239,94.508774 76.239143,91.161148 71.244354,90.106216 
	C66.118317,89.023575 61.715759,90.565628 58.502445,94.874962 
	C55.282925,99.192612 55.310547,104.875313 58.514908,109.256882 
	C62.107952,114.169930 67.239883,115.409615 74.798492,112.661995 
M106.579712,114.246674 
	C114.613602,113.615761 119.205063,109.067711 119.112381,101.832489 
	C119.028351,95.272308 114.126205,90.167046 107.620201,89.864143 
	C100.885307,89.550583 95.501038,93.957237 94.799561,100.356934 
	C93.990463,107.738503 97.987495,112.801353 106.579712,114.246674 
z"/>
<path fill="#E83E63" opacity="1.000000" stroke="none" 
	d="
M446.334717,170.103302 
	C438.331696,172.024658 430.561279,173.451340 423.112579,175.869049 
	C419.576477,177.016815 416.654175,180.055603 412.924835,182.629913 
	C408.038574,185.102081 403.681305,187.182053 399.355530,188.908691 
	C399.825623,187.662781 400.190338,186.724060 400.714294,185.884735 
	C406.442505,176.708603 405.361969,172.479248 395.976776,167.475616 
	C365.516602,151.236053 349.240906,118.615700 355.009277,85.366951 
	C360.695770,52.590389 385.644562,27.676594 418.444092,21.923231 
	C419.378174,21.759380 420.167908,20.772329 421.024933,20.169119 
	C431.960388,21.146963 442.593719,23.494743 452.110596,29.085632 
	C474.735748,42.377209 489.325592,61.228222 493.117462,87.938675 
	C496.246155,109.977631 490.512512,129.559723 477.397003,146.798859 
	C469.522156,157.149582 459.125000,165.175934 446.334717,170.103302 
M455.289764,138.893539 
	C457.341583,136.715179 459.949524,134.822586 461.263672,132.265152 
	C462.257996,130.330261 462.490173,127.079025 461.516113,125.225929 
	C458.230225,118.974670 461.600128,109.487679 468.374573,107.712143 
	C471.520569,106.887581 473.400330,105.366943 473.224548,101.863121 
	C473.107941,99.539001 473.144623,97.201019 473.235443,94.874031 
	C473.404572,90.540817 471.785980,88.254150 467.100555,87.576202 
	C460.990509,86.692139 456.297577,75.671761 459.741943,70.610123 
	C462.287811,66.868896 462.089417,63.938602 458.702820,61.047092 
	C457.186035,59.752064 455.746582,58.356216 454.359802,56.921303 
	C451.602081,54.067924 448.864532,53.947033 445.498596,56.157066 
	C439.296570,60.229259 429.105286,56.243275 427.392975,49.064255 
	C426.598938,45.735054 424.893524,44.114651 421.604553,44.097763 
	C418.944122,44.084103 416.276123,44.119823 413.623779,44.307526 
	C410.287598,44.543617 408.325317,46.013981 407.631378,49.707935 
	C406.359863,56.476509 396.458618,60.722786 390.485901,57.223911 
	C387.585449,55.524818 385.160950,55.622566 382.852722,57.983490 
	C380.992432,59.886223 379.216278,61.870926 377.391541,63.808701 
	C374.979736,66.369957 374.941254,68.829300 376.949310,71.845680 
	C380.589722,77.314217 376.627655,87.465485 370.290955,88.941116 
	C366.523438,89.818451 364.913544,91.876305 365.008087,95.580452 
	C365.071838,98.076805 365.085510,100.574402 365.126007,103.071381 
	C365.180389,106.424179 366.988007,108.151627 370.175385,108.895790 
	C378.053894,110.735184 382.216766,119.953568 378.215576,126.813606 
	C376.447144,129.845566 376.452454,132.404236 379.093750,134.852448 
	C380.680328,136.323029 382.236450,137.833237 383.719025,139.407822 
	C386.718109,142.593048 389.669281,142.882980 393.362305,140.209015 
	C398.759247,136.301300 409.501953,140.420990 410.863770,146.952393 
	C411.709167,151.007309 413.911316,152.689301 417.720276,152.656998 
	C420.373810,152.634491 423.255646,152.896957 425.607910,151.959412 
	C427.688202,151.130264 430.169250,149.104950 430.746063,147.108658 
	C432.655975,140.498199 441.769867,136.245010 447.988708,139.193436 
	C449.844543,140.073318 452.461792,139.347321 455.289764,138.893539 
z"/>
<path fill="#C6C6F6" opacity="1.000000" stroke="none" 
	d="
M39.952538,137.688690 
	C39.974209,243.125000 39.922268,348.362457 40.183346,453.599091 
	C40.200146,460.371094 41.715782,467.491486 44.159126,473.822723 
	C47.811348,483.286469 55.511593,489.125610 65.274940,492.083069 
	C65.848175,492.256714 66.312553,492.789673 66.923508,493.491882 
	C56.874504,494.218170 46.867413,494.594482 37.471165,489.212799 
	C26.540878,482.952545 20.165146,473.612946 20.137238,461.401306 
	C19.890938,353.625671 20.017563,245.849228 20.533646,137.636261 
	C27.347372,137.163757 33.661362,137.128006 39.975349,137.092255 
	C39.975349,137.092255 39.951290,137.489624 39.952538,137.688690 
z"/>
<path fill="#189D60" opacity="1.000000" stroke="none" 
	d="
M446.074524,366.621124 
	C444.911377,368.201599 443.814758,369.418945 442.970154,370.791382 
	C428.804504,393.810242 414.670288,416.848419 399.923096,439.830444 
	C391.207397,434.777893 383.097717,429.777252 375.002563,424.422607 
	C375.196960,423.437836 375.245361,422.726471 375.575714,422.188019 
	C388.938446,400.407349 402.368774,378.667999 415.697937,356.866852 
	C425.909027,340.165558 435.996521,323.388733 446.483032,306.744995 
	C455.558868,311.963043 464.290649,317.081635 473.022400,322.200195 
	C465.833099,334.163696 458.654816,346.133820 451.446350,358.085754 
	C449.769714,360.865692 447.990417,363.583679 446.074524,366.621124 
z"/>
<path fill="#CE2A56" opacity="1.000000" stroke="none" 
	d="
M420.564514,20.089523 
	C420.167908,20.772329 419.378174,21.759380 418.444092,21.923231 
	C385.644562,27.676594 360.695770,52.590389 355.009277,85.366951 
	C349.240906,118.615700 365.516602,151.236053 395.976776,167.475616 
	C405.361969,172.479248 406.442505,176.708603 400.714294,185.884735 
	C400.190338,186.724060 399.825623,187.662781 399.324097,188.894684 
	C399.261200,189.234009 399.243195,189.167953 399.004028,189.196136 
	C398.447479,189.334900 398.207855,189.537415 397.704346,190.022781 
	C394.968414,190.806534 392.598297,191.719009 390.173096,191.902496 
	C387.733917,192.087006 385.239899,191.546188 382.769897,191.323212 
	C383.671936,189.174179 384.371368,186.910599 385.510651,184.895691 
	C390.795807,175.548615 389.939453,172.513321 380.393799,167.650421 
	C379.072205,166.977158 377.727631,166.349060 376.393677,165.700058 
	C364.982635,158.397263 355.505096,149.172089 348.196594,137.317184 
	C344.971893,128.527878 341.972168,119.987938 338.932190,110.638229 
	C338.532593,104.400566 338.173279,98.972672 337.813965,93.544769 
	C339.857391,84.926605 341.900848,76.308449 343.903748,67.309753 
	C348.775146,56.811359 354.945099,47.607620 363.398224,40.065559 
	C375.408661,29.349533 389.300049,22.730127 405.375061,21.016333 
	C410.264893,20.495014 415.193329,20.335274 420.564514,20.089523 
z"/>
<path fill="#322F4C" opacity="1.000000" stroke="none" 
	d="
M430.383423,275.838440 
	C433.651825,267.362518 438.558624,260.084106 446.033386,254.267670 
	C459.286499,247.544098 472.113007,248.011826 483.070648,257.871338 
	C492.751923,266.582397 496.748077,281.432068 489.156891,295.525543 
	C487.123444,299.300751 484.800140,302.919830 482.052795,306.611267 
	C464.458282,296.354095 447.420837,286.096283 430.383423,275.838440 
z"/>
<path fill="#322F4C" opacity="1.000000" stroke="none" 
	d="
M40.020767,136.618195 
	C33.661362,137.128006 27.347372,137.163757 20.572510,137.178909 
	C20.069441,136.663132 20.027246,136.167938 20.301178,134.994781 
	C20.738953,121.513954 20.860603,108.711113 20.982252,95.908264 
	C20.883585,89.603531 23.722290,84.616486 27.538664,79.792183 
	C37.138138,67.657410 50.080360,65.722198 64.723701,67.200386 
	C61.980385,69.217209 58.665825,70.966576 55.567490,73.039177 
	C44.288952,80.583839 40.331718,91.810257 40.134911,104.736832 
	C39.975548,115.203857 40.079201,125.674896 40.020767,136.618195 
z"/>
<path fill="#C5C5F5" opacity="1.000000" stroke="none" 
	d="
M430.070007,276.019684 
	C447.420837,286.096283 464.458282,296.354095 481.778076,306.805420 
	C479.258301,311.943665 476.456116,316.888458 473.338165,322.016724 
	C464.290649,317.081635 455.558868,311.963043 446.260468,306.501770 
	C437.464111,301.102417 429.234436,296.045776 421.004730,290.989136 
	C423.921997,286.059723 426.839294,281.130341 430.070007,276.019684 
z"/>
<path fill="#403F61" opacity="1.000000" stroke="none" 
	d="
M20.653305,96.186501 
	C20.860603,108.711113 20.738953,121.513954 20.349743,134.623383 
	C20.162909,122.108231 20.243635,109.286484 20.653305,96.186501 
z"/>
<path fill="#66B9FF" opacity="1.000000" stroke="none" 
	d="
M375.897949,165.741867 
	C377.727631,166.349060 379.072205,166.977158 380.393799,167.650421 
	C389.939453,172.513321 390.795807,175.548615 385.510651,184.895691 
	C384.371368,186.910599 383.671936,189.174179 382.769897,191.323212 
	C385.239899,191.546188 387.733917,192.087006 390.173096,191.902496 
	C392.598297,191.719009 394.968414,190.806534 397.959045,190.029633 
	C398.784698,189.619659 399.013947,189.393799 399.243195,189.167938 
	C399.243195,189.167953 399.261200,189.234009 399.292633,189.248016 
	C403.681305,187.182053 408.038574,185.102081 412.740875,182.891205 
	C413.329620,184.546387 413.782318,186.332108 413.785553,188.118652 
	C413.831604,213.611771 413.835632,239.105026 413.787354,264.598145 
	C413.782654,267.078796 413.510468,269.582306 413.112152,272.034546 
	C411.811768,280.040405 406.092865,285.045593 397.961273,285.078491 
	C377.800323,285.160034 357.638824,285.117340 337.477570,285.117767 
	C259.498352,285.119446 181.519165,285.108154 103.539963,285.142548 
	C98.563423,285.144745 93.587021,285.493408 88.141304,285.255859 
	C82.378418,281.390594 77.882545,277.584290 77.907700,270.369202 
	C78.012238,240.385269 77.976929,210.400711 77.928314,180.416489 
	C77.919632,175.059616 80.556694,171.314896 84.569595,168.221756 
	C85.695854,167.353622 86.746948,166.388000 87.832520,165.467102 
	C181.192322,165.595016 274.552124,165.723526 367.911926,165.847595 
	C370.408661,165.850922 372.905457,165.806061 375.897949,165.741867 
M155.478271,218.749603 
	C162.367035,205.890930 157.022903,192.110062 143.079758,189.755951 
	C132.700241,188.003479 121.909523,188.347366 111.306595,188.421646 
	C106.976158,188.451996 104.901329,191.767776 104.929398,196.392258 
	C105.043526,215.191010 104.950027,233.990936 104.990906,252.790298 
	C105.003975,258.803284 107.115204,260.939758 113.046669,260.984833 
	C121.198082,261.046783 129.376770,261.379608 137.492477,260.833771 
	C142.361816,260.506317 147.378372,259.320038 151.891510,257.459259 
	C158.637115,254.678040 161.583130,248.915146 162.139038,241.652084 
	C162.783157,233.236633 158.914993,227.405853 151.916840,223.010666 
	C153.137619,221.568558 154.083130,220.451614 155.478271,218.749603 
M305.287750,220.985184 
	C304.790039,235.056351 308.218170,247.629578 320.649017,255.732300 
	C335.253693,265.251984 350.441833,263.450043 365.197357,255.940491 
	C367.483795,254.776855 369.531952,251.055222 369.765289,248.350433 
	C370.392487,241.079391 370.073486,233.716675 369.936707,226.393967 
	C369.865692,222.593399 367.753265,219.783142 363.945099,219.592041 
	C356.993195,219.243164 349.999725,219.270325 343.045807,219.603653 
	C339.548584,219.771286 337.838562,222.436661 338.070953,225.904877 
	C338.313873,229.530655 340.603333,231.123154 344.112793,231.136963 
	C347.608948,231.150711 351.117676,230.987900 354.594299,231.252426 
	C355.762909,231.341339 357.583771,232.284119 357.861511,233.210083 
	C360.949799,243.506409 357.214020,248.632446 346.496216,249.115723 
	C344.834015,249.190689 343.166809,249.207886 341.502930,249.182770 
	C327.557007,248.972275 318.178162,239.213562 318.078735,224.828644 
	C317.978760,210.359863 327.632874,199.720673 341.696411,200.271606 
	C347.932159,200.515884 354.140869,203.152740 360.216217,205.147293 
	C363.841522,206.337494 366.866272,206.387817 368.926208,202.957001 
	C371.052856,199.415054 369.569061,196.687408 366.359436,194.525314 
	C358.779999,189.419647 350.217529,186.876038 341.337280,187.429581 
	C320.346649,188.737976 308.998169,199.489212 305.287750,220.985184 
M244.620575,258.034119 
	C255.096558,262.898346 265.807190,263.517944 276.532928,259.186981 
	C291.060638,253.320801 298.655853,240.269058 298.057434,222.223633 
	C297.618317,208.981506 292.097046,198.248718 280.196289,191.973083 
	C267.954041,185.517334 255.336594,185.882950 242.972763,192.309387 
	C220.765457,203.852234 218.641266,244.281769 244.620575,258.034119 
M172.999344,216.500000 
	C173.000198,228.155197 172.942398,239.810837 173.026871,251.465424 
	C173.068527,257.213257 176.053757,260.851624 181.108109,260.928070 
	C192.594101,261.101776 204.086456,261.109039 215.572144,260.926392 
	C220.482742,260.848328 223.065262,257.434326 222.043243,252.958618 
	C221.123474,248.930573 217.997482,248.030716 214.415771,248.023285 
	C205.140762,248.004044 195.865677,248.016830 185.967010,248.016830 
	C185.967010,245.628189 185.967117,243.850143 185.966995,242.072098 
	C185.965942,226.587341 186.008743,211.102402 185.938370,195.617966 
	C185.915787,190.646851 183.363708,187.794998 179.276810,188.087448 
	C174.778763,188.409302 172.980927,191.231949 172.996445,195.519745 
	C173.020538,202.179764 173.000610,208.839920 172.999344,216.500000 
z"/>
<path fill="#FCB73F" opacity="1.000000" stroke="none" 
	d="
M92.971909,308.333221 
	C116.604256,308.332642 140.237778,308.195282 163.868393,308.397308 
	C173.624573,308.480713 178.006516,313.351898 178.013748,323.130951 
	C178.036026,353.263275 178.035904,383.395569 178.014771,413.527893 
	C178.007675,423.660156 173.550873,428.082886 163.370895,428.104309 
	C140.564499,428.152344 117.758034,428.170166 94.289520,427.849365 
	C88.078148,424.032471 85.827972,419.215363 85.890991,412.509125 
	C86.153137,384.610992 86.167084,356.707306 85.895370,328.809357 
	C85.818581,320.924561 86.198112,313.643188 92.971909,308.333221 
z"/>
<path fill="#47CC6C" opacity="1.000000" stroke="none" 
	d="
M420.698242,291.136108 
	C429.234436,296.045776 437.464111,301.102417 445.916382,306.402283 
	C435.996521,323.388733 425.909027,340.165558 415.697937,356.866852 
	C402.368774,378.667999 388.938446,400.407349 375.575714,422.188019 
	C375.245361,422.726471 375.196960,423.437836 374.686096,424.333496 
	C365.729248,419.336487 357.103394,414.074554 348.477509,408.812653 
	C366.065033,379.970825 383.637115,351.119598 401.248322,322.292236 
	C407.581055,311.926270 414.007843,301.617767 420.698242,291.136108 
z"/>
<path fill="#C7C7F7" opacity="1.000000" stroke="none" 
	d="
M348.267151,463.845154 
	C346.269165,463.896698 344.271179,463.993164 342.273193,463.993347 
	C249.288269,464.000824 156.303360,464.000458 63.318439,463.995148 
	C61.653721,463.995056 59.923599,464.200439 58.338158,463.826263 
	C55.216564,463.089447 52.792973,461.523651 52.994545,457.710632 
	C53.187935,454.052429 54.956417,451.749390 58.590931,451.137329 
	C60.053013,450.891083 61.582027,451.016449 63.080578,451.016418 
	C157.731842,451.013885 252.383102,451.015900 347.592651,451.470703 
	C348.189667,455.897644 348.228394,459.871399 348.267151,463.845154 
z"/>
<path fill="#FD992F" opacity="1.000000" stroke="none" 
	d="
M92.509720,308.262329 
	C86.198112,313.643188 85.818581,320.924561 85.895370,328.809357 
	C86.167084,356.707306 86.153137,384.610992 85.890991,412.509125 
	C85.827972,419.215363 88.078148,424.032471 93.828110,427.768005 
	C86.038857,428.100037 78.047638,428.281769 70.059395,428.193634 
	C60.888607,428.092468 56.130848,423.132843 56.118305,413.764984 
	C56.080391,385.452911 56.104256,357.140717 56.104176,328.828583 
	C56.104168,326.830078 56.087357,324.831390 56.108929,322.833099 
	C56.210453,313.429291 61.260319,308.252930 70.564514,308.164551 
	C77.724792,308.096497 84.886475,308.176971 92.509720,308.262329 
z"/>
<path fill="#3F80FF" opacity="1.000000" stroke="none" 
	d="
M87.381516,165.400299 
	C86.746948,166.388000 85.695854,167.353622 84.569595,168.221756 
	C80.556694,171.314896 77.919632,175.059616 77.928314,180.416489 
	C77.976929,210.400711 78.012238,240.385269 77.907700,270.369202 
	C77.882545,277.584290 82.378418,281.390594 87.733475,285.111328 
	C81.305779,285.353058 74.811890,285.457214 68.328651,285.241547 
	C58.858715,284.926422 52.782887,278.865967 52.745750,269.357208 
	C52.631256,240.041702 52.636307,210.725204 52.747955,181.409668 
	C52.781769,172.530930 58.194344,166.508209 66.970810,165.759094 
	C73.587936,165.194305 80.274727,165.445496 87.381516,165.400299 
z"/>
<path fill="#C7C7F7" opacity="1.000000" stroke="none" 
	d="
M205.523193,308.119873 
	C260.079254,308.045532 314.187164,308.016449 368.295013,308.059509 
	C370.919952,308.061615 373.865723,308.077362 376.074646,309.221222 
	C378.102417,310.271240 380.368561,312.738861 380.601318,314.799744 
	C380.797394,316.535645 378.510895,318.934753 376.768768,320.364655 
	C375.705322,321.237518 373.592987,320.979187 371.951660,320.979919 
	C316.345154,321.005524 260.738678,321.004395 205.132172,320.996613 
	C199.053299,320.995758 197.007065,319.109985 196.955933,314.190308 
	C196.894135,308.239655 201.835159,309.446716 205.523193,308.119873 
z"/>
<path fill="#C6C6F7" opacity="1.000000" stroke="none" 
	d="
M341.647919,344.002777 
	C346.543823,343.892822 349.643524,345.582947 349.931122,350.388855 
	C350.150513,354.055145 346.362427,356.985565 341.596130,356.987305 
	C296.164429,357.003815 250.732697,357.007202 205.300980,356.984589 
	C199.572189,356.981750 197.085327,355.016205 196.999283,350.701202 
	C196.907501,346.098602 199.425400,344.017120 205.394379,344.014343 
	C250.659683,343.993164 295.924988,344.002563 341.647919,344.002777 
z"/>
<path fill="#C6C6F7" opacity="1.000000" stroke="none" 
	d="
M289.000000,392.015869 
	C260.535034,392.015717 232.570084,392.019318 204.605133,392.012268 
	C198.797104,392.010803 196.984375,390.568146 197.007233,386.044891 
	C197.028152,381.905151 199.456787,380.007385 204.896576,380.005920 
	C245.345886,379.995056 285.795197,379.998901 326.244507,380.005737 
	C327.407440,380.005920 328.665741,379.817627 329.715851,380.185150 
	C333.224304,381.413086 334.393219,384.103149 333.995605,387.674988 
	C333.619019,391.057587 331.504211,392.030640 328.451141,392.023743 
	C315.467468,391.994415 302.483734,392.014099 289.000000,392.015869 
z"/>
<path fill="#C6C6F7" opacity="1.000000" stroke="none" 
	d="
M273.000000,428.001221 
	C250.025604,428.001190 227.551208,428.007660 205.076813,427.996613 
	C199.550293,427.993896 197.087860,426.179626 197.006790,422.141388 
	C196.923340,417.983978 199.377197,415.999725 204.787277,415.997650 
	C240.413345,415.983917 276.039490,416.019623 311.665405,415.944275 
	C315.050720,415.937134 318.101990,416.854492 318.608124,420.147369 
	C318.938965,422.300110 317.488800,425.047791 316.099091,427.005646 
	C315.424072,427.956696 313.058899,427.953064 311.456512,427.961945 
	C298.804657,428.032166 286.152252,428.001129 273.000000,428.001221 
z"/>
<path fill="#FDAF94" opacity="1.000000" stroke="none" 
	d="
M348.339172,409.275299 
	C357.103394,414.074554 365.729248,419.336487 374.671570,424.687531 
	C383.097717,429.777252 391.207397,434.777893 399.596832,439.971008 
	C390.453094,445.119690 381.029633,450.075897 370.930786,454.968903 
	C362.912750,450.626373 355.570129,446.347046 348.227539,442.067688 
	C348.218628,431.291107 348.209717,420.514526 348.339172,409.275299 
z"/>
<path fill="#3A3450" opacity="1.000000" stroke="none" 
	d="
M348.198181,442.517090 
	C355.570129,446.347046 362.912750,450.626373 370.569824,455.059631 
	C364.981812,458.387177 359.135498,461.674835 353.126434,464.631775 
	C352.012238,465.180023 350.242126,464.395233 348.520935,464.035400 
	C348.228394,459.871399 348.189667,455.897644 348.059265,451.472168 
	C348.034668,448.335785 348.101776,445.651154 348.198181,442.517090 
z"/>
<path fill="#DAD9FC" opacity="1.000000" stroke="none" 
	d="
M337.356934,93.530998 
	C338.173279,98.972672 338.532593,104.400566 338.856506,110.221672 
	C306.160248,110.633942 273.499390,110.673439 240.838577,110.653481 
	C234.861435,110.649826 231.524643,108.408783 230.405792,104.014656 
	C229.256287,99.500053 232.144516,94.777725 236.954559,93.941109 
	C239.879303,93.432396 242.924408,93.507286 245.915558,93.505508 
	C276.243683,93.487488 306.571808,93.507721 337.356934,93.530998 
z"/>
<path fill="#DCDBFD" opacity="1.000000" stroke="none" 
	d="
M155.750824,108.541840 
	C151.869492,113.964157 146.849426,115.320709 141.041733,113.613914 
	C136.423492,112.256668 133.201675,107.578827 132.987762,102.668930 
	C132.757996,97.395042 135.569077,92.871696 140.374649,90.782593 
	C144.915695,88.808517 150.250015,89.754356 153.780029,93.159508 
	C157.805008,97.042114 158.508774,101.942780 155.750824,108.541840 
z"/>
<path fill="#DCDBFD" opacity="1.000000" stroke="none" 
	d="
M74.440727,112.839783 
	C67.239883,115.409615 62.107952,114.169930 58.514908,109.256882 
	C55.310547,104.875313 55.282925,99.192612 58.502445,94.874962 
	C61.715759,90.565628 66.118317,89.023575 71.244354,90.106216 
	C76.239143,91.161148 79.412239,94.508774 80.505669,99.447166 
	C81.757065,105.098991 79.521835,109.474106 74.440727,112.839783 
z"/>
<path fill="#DCDBFD" opacity="1.000000" stroke="none" 
	d="
M106.153854,114.223053 
	C97.987495,112.801353 93.990463,107.738503 94.799561,100.356934 
	C95.501038,93.957237 100.885307,89.550583 107.620201,89.864143 
	C114.126205,90.167046 119.028351,95.272308 119.112381,101.832489 
	C119.205063,109.067711 114.613602,113.615761 106.153854,114.223053 
z"/>
<path fill="#DEDBFD" opacity="1.000000" stroke="none" 
	d="
M455.009949,139.125305 
	C452.461792,139.347321 449.844543,140.073318 447.988708,139.193436 
	C441.769867,136.245010 432.655975,140.498199 430.746063,147.108658 
	C430.169250,149.104950 427.688202,151.130264 425.607910,151.959412 
	C423.255646,152.896957 420.373810,152.634491 417.720276,152.656998 
	C413.911316,152.689301 411.709167,151.007309 410.863770,146.952393 
	C409.501953,140.420990 398.759247,136.301300 393.362305,140.209015 
	C389.669281,142.882980 386.718109,142.593048 383.719025,139.407822 
	C382.236450,137.833237 380.680328,136.323029 379.093750,134.852448 
	C376.452454,132.404236 376.447144,129.845566 378.215576,126.813606 
	C382.216766,119.953568 378.053894,110.735184 370.175385,108.895790 
	C366.988007,108.151627 365.180389,106.424179 365.126007,103.071381 
	C365.085510,100.574402 365.071838,98.076805 365.008087,95.580452 
	C364.913544,91.876305 366.523438,89.818451 370.290955,88.941116 
	C376.627655,87.465485 380.589722,77.314217 376.949310,71.845680 
	C374.941254,68.829300 374.979736,66.369957 377.391541,63.808701 
	C379.216278,61.870926 380.992432,59.886223 382.852722,57.983490 
	C385.160950,55.622566 387.585449,55.524818 390.485901,57.223911 
	C396.458618,60.722786 406.359863,56.476509 407.631378,49.707935 
	C408.325317,46.013981 410.287598,44.543617 413.623779,44.307526 
	C416.276123,44.119823 418.944122,44.084103 421.604553,44.097763 
	C424.893524,44.114651 426.598938,45.735054 427.392975,49.064255 
	C429.105286,56.243275 439.296570,60.229259 445.498596,56.157066 
	C448.864532,53.947033 451.602081,54.067924 454.359802,56.921303 
	C455.746582,58.356216 457.186035,59.752064 458.702820,61.047092 
	C462.089417,63.938602 462.287811,66.868896 459.741943,70.610123 
	C456.297577,75.671761 460.990509,86.692139 467.100555,87.576202 
	C471.785980,88.254150 473.404572,90.540817 473.235443,94.874031 
	C473.144623,97.201019 473.107941,99.539001 473.224548,101.863121 
	C473.400330,105.366943 471.520569,106.887581 468.374573,107.712143 
	C461.600128,109.487679 458.230225,118.974670 461.516113,125.225929 
	C462.490173,127.079025 462.257996,130.330261 461.263672,132.265152 
	C459.949524,134.822586 457.341583,136.715179 455.009949,139.125305 
M395.856689,96.672531 
	C394.545715,112.174393 408.611786,123.848587 422.503174,121.554253 
	C434.672058,119.544403 443.312408,109.039238 442.648407,97.399658 
	C441.955078,85.246803 432.353088,75.412071 420.710052,74.929672 
	C407.616394,74.387177 397.774017,82.663895 395.856689,96.672531 
z"/>
<path fill="#E83E63" opacity="1.000000" stroke="none" 
	d="
M399.004028,189.196121 
	C399.013947,189.393799 398.784698,189.619659 398.300720,189.838684 
	C398.207855,189.537415 398.447479,189.334900 399.004028,189.196121 
z"/>
<path fill="#DCDCFF" opacity="1.000000" stroke="none" 
	d="
M155.253448,219.042145 
	C154.083130,220.451614 153.137619,221.568558 151.916840,223.010666 
	C158.914993,227.405853 162.783157,233.236633 162.139038,241.652084 
	C161.583130,248.915146 158.637115,254.678040 151.891510,257.459259 
	C147.378372,259.320038 142.361816,260.506317 137.492477,260.833771 
	C129.376770,261.379608 121.198082,261.046783 113.046669,260.984833 
	C107.115204,260.939758 105.003975,258.803284 104.990906,252.790298 
	C104.950027,233.990936 105.043526,215.191010 104.929398,196.392258 
	C104.901329,191.767776 106.976158,188.451996 111.306595,188.421646 
	C121.909523,188.347366 132.700241,188.003479 143.079758,189.755951 
	C157.022903,192.110062 162.367035,205.890930 155.253448,219.042145 
M120.824249,248.874252 
	C127.959312,248.558762 135.126083,248.549316 142.217712,247.814651 
	C146.571259,247.363647 149.522400,244.409180 149.806885,239.810349 
	C150.065979,235.622162 147.655823,232.201584 143.826263,231.650314 
	C135.413849,230.439346 126.865944,230.169556 117.944824,229.482529 
	C117.944824,235.920090 117.839211,240.907852 118.033493,245.883926 
	C118.072571,246.884811 119.250420,247.841248 120.824249,248.874252 
M145.930054,207.863602 
	C144.626801,203.107376 140.950592,201.335175 136.578217,201.062271 
	C131.447662,200.742050 126.276428,200.789383 121.141510,201.048203 
	C120.039360,201.103745 118.172508,202.687088 118.102554,203.669510 
	C117.776825,208.243805 117.958252,212.854233 117.958252,217.778503 
	C125.025146,217.778503 131.486298,218.195938 137.863602,217.644150 
	C142.811737,217.216019 146.014313,214.121353 145.930054,207.863602 
z"/>
<path fill="#DBDCFF" opacity="1.000000" stroke="none" 
	d="
M305.393616,220.561890 
	C308.998169,199.489212 320.346649,188.737976 341.337280,187.429581 
	C350.217529,186.876038 358.779999,189.419647 366.359436,194.525314 
	C369.569061,196.687408 371.052856,199.415054 368.926208,202.957001 
	C366.866272,206.387817 363.841522,206.337494 360.216217,205.147293 
	C354.140869,203.152740 347.932159,200.515884 341.696411,200.271606 
	C327.632874,199.720673 317.978760,210.359863 318.078735,224.828644 
	C318.178162,239.213562 327.557007,248.972275 341.502930,249.182770 
	C343.166809,249.207886 344.834015,249.190689 346.496216,249.115723 
	C357.214020,248.632446 360.949799,243.506409 357.861511,233.210083 
	C357.583771,232.284119 355.762909,231.341339 354.594299,231.252426 
	C351.117676,230.987900 347.608948,231.150711 344.112793,231.136963 
	C340.603333,231.123154 338.313873,229.530655 338.070953,225.904877 
	C337.838562,222.436661 339.548584,219.771286 343.045807,219.603653 
	C349.999725,219.270325 356.993195,219.243164 363.945099,219.592041 
	C367.753265,219.783142 369.865692,222.593399 369.936707,226.393967 
	C370.073486,233.716675 370.392487,241.079391 369.765289,248.350433 
	C369.531952,251.055222 367.483795,254.776855 365.197357,255.940491 
	C350.441833,263.450043 335.253693,265.251984 320.649017,255.732300 
	C308.218170,247.629578 304.790039,235.056351 305.393616,220.561890 
z"/>
<path fill="#DCDCFF" opacity="1.000000" stroke="none" 
	d="
M244.268616,257.906189 
	C218.641266,244.281769 220.765457,203.852234 242.972763,192.309387 
	C255.336594,185.882950 267.954041,185.517334 280.196289,191.973083 
	C292.097046,198.248718 297.618317,208.981506 298.057434,222.223633 
	C298.655853,240.269058 291.060638,253.320801 276.532928,259.186981 
	C265.807190,263.517944 255.096558,262.898346 244.268616,257.906189 
M281.010010,240.381409 
	C285.133759,234.792496 285.412659,228.364761 285.148071,221.784546 
	C284.433685,204.016891 265.005310,193.629105 249.691727,202.831268 
	C240.786560,208.182510 237.884964,216.731659 238.358398,226.275116 
	C238.859375,236.374130 243.233017,244.758041 253.537460,248.209290 
	C263.953766,251.698013 273.196533,249.499557 281.010010,240.381409 
z"/>
<path fill="#DDDDFF" opacity="1.000000" stroke="none" 
	d="
M172.999344,216.000015 
	C173.000610,208.839920 173.020538,202.179764 172.996445,195.519745 
	C172.980927,191.231949 174.778763,188.409302 179.276810,188.087448 
	C183.363708,187.794998 185.915787,190.646851 185.938370,195.617966 
	C186.008743,211.102402 185.965942,226.587341 185.966995,242.072098 
	C185.967117,243.850143 185.967010,245.628189 185.967010,248.016830 
	C195.865677,248.016830 205.140762,248.004044 214.415771,248.023285 
	C217.997482,248.030716 221.123474,248.930573 222.043243,252.958618 
	C223.065262,257.434326 220.482742,260.848328 215.572144,260.926392 
	C204.086456,261.109039 192.594101,261.101776 181.108109,260.928070 
	C176.053757,260.851624 173.068527,257.213257 173.026871,251.465424 
	C172.942398,239.810837 173.000198,228.155197 172.999344,216.000015 
z"/>
<path fill="#E83F64" opacity="1.000000" stroke="none" 
	d="
M395.882812,96.229065 
	C397.774017,82.663895 407.616394,74.387177 420.710052,74.929672 
	C432.353088,75.412071 441.955078,85.246803 442.648407,97.399658 
	C443.312408,109.039238 434.672058,119.544403 422.503174,121.554253 
	C408.611786,123.848587 394.545715,112.174393 395.882812,96.229065 
z"/>
<path fill="#68BAFF" opacity="1.000000" stroke="none" 
	d="
M120.363739,248.846207 
	C119.250420,247.841248 118.072571,246.884811 118.033493,245.883926 
	C117.839211,240.907852 117.944824,235.920090 117.944824,229.482529 
	C126.865944,230.169556 135.413849,230.439346 143.826263,231.650314 
	C147.655823,232.201584 150.065979,235.622162 149.806885,239.810349 
	C149.522400,244.409180 146.571259,247.363647 142.217712,247.814651 
	C135.126083,248.549316 127.959312,248.558762 120.363739,248.846207 
z"/>
<path fill="#66B9FF" opacity="1.000000" stroke="none" 
	d="
M145.953888,208.256149 
	C146.014313,214.121353 142.811737,217.216019 137.863602,217.644150 
	C131.486298,218.195938 125.025146,217.778503 117.958252,217.778503 
	C117.958252,212.854233 117.776825,208.243805 118.102554,203.669510 
	C118.172508,202.687088 120.039360,201.103745 121.141510,201.048203 
	C126.276428,200.789383 131.447662,200.742050 136.578217,201.062271 
	C140.950592,201.335175 144.626801,203.107376 145.953888,208.256149 
z"/>
<path fill="#66B9FF" opacity="1.000000" stroke="none" 
	d="
M280.784698,240.668884 
	C273.196533,249.499557 263.953766,251.698013 253.537460,248.209290 
	C243.233017,244.758041 238.859375,236.374130 238.358398,226.275116 
	C237.884964,216.731659 240.786560,208.182510 249.691727,202.831268 
	C265.005310,193.629105 284.433685,204.016891 285.148071,221.784546 
	C285.412659,228.364761 285.133759,234.792496 280.784698,240.668884 
z"/>
</svg>