<svg width="606" height="640" viewBox="0 0 606 640" fill="none" xmlns="http://www.w3.org/2000/svg">
<g clip-path="url(#clip0_1_716)">
<path d="M607.184 310C607.184 322.526 607.184 335.052 606.714 348.377C604.98 359.284 603.842 369.412 602.428 379.496C598.474 407.694 589.686 434.342 578.116 459.924C566.475 485.662 551.785 509.344 533.795 530.789C517.32 550.427 499.383 568.194 479.129 583.429C457.799 599.473 434.854 612.338 410.389 621.911C389.18 630.209 367.326 636.319 344.693 638.791C339.841 639.32 335.044 640.415 330.223 641.25C313.233 641.25 296.243 641.25 278.498 640.753C271.728 639.747 265.647 639.661 259.716 638.622C252.397 637.34 245.203 635.266 237.74 633.194C236.859 632.089 236.218 631.299 235.523 630.565C161.021 551.875 86.5164 473.189 12.0023 394.513C10.8927 393.341 9.66321 392.296 8.41649 390.897C8.34332 390.601 8.48893 390.01 9.03084 390.008C15.6838 390.004 21.815 390.328 27.9002 389.908C33.8831 389.496 38.8379 391.378 43.9361 394.594C78.9207 416.661 114.118 438.354 149.117 460.395C165.826 470.917 183.703 478.068 203.082 478.666C236.749 479.705 270.45 479.478 304.689 479.875C321.18 479.977 337.119 480.162 353.054 479.953C375.837 479.653 393.253 455.307 387.727 431.995C384.751 419.439 376.982 411.219 367.356 404.914C394.662 404.837 421.41 404.837 448.72 404.837C448.72 401.6 448.719 399.152 448.72 396.703C448.748 312.389 448.776 228.075 449.129 143.973C500.133 197.663 550.809 251.143 601.502 304.605C603.302 306.503 605.286 308.206 607.184 310Z" fill="#0E1C66"/>
<path d="M607.184 309.421C605.286 308.206 603.302 306.503 601.503 304.605C550.809 251.143 500.133 197.663 448.726 143.643C411.465 143.065 374.931 143.028 337.867 142.847C313.211 142.772 289.085 142.831 264.959 142.937C263.626 142.943 262.294 143.343 260.749 143.42C260.184 143.249 259.871 143.351 259.022 143.515C222.233 143.445 186.021 143.445 149.215 143.445C149.215 154.322 149.225 164.672 149.213 175.022C149.156 225.594 149.093 276.166 148.649 326.576C147.379 325.591 146.474 324.789 145.609 323.94C122.212 300.983 94.7189 288.156 62.6589 287.26C42.5933 286.7 22.5102 286.841 2.40466 286.092C3.54589 278.123 4.83554 270.748 5.86818 263.332C9.90911 234.314 19.0277 206.951 31.0474 180.734C42.4659 155.828 56.8279 132.86 74.2759 112.022C90.8491 92.23 108.912 74.3341 129.304 58.9904C150.626 42.947 173.587 30.1115 198.043 20.5452C219.229 12.2582 241.065 6.14735 263.682 3.701C268.531 3.17648 273.325 2.08195 278.145 1.25C295.134 1.25 312.124 1.25 329.875 1.74302C335.268 2.739 339.957 2.91412 344.519 3.8059C358.643 6.56637 372.91 8.83476 386.773 12.6915C412.955 19.9757 437.861 31.0048 460.644 46.4785C475.168 56.3436 488.943 67.5463 502.455 78.9418C521.289 94.8264 537.188 113.865 551.259 134.427C567.009 157.44 579.682 182.408 588.913 209.089C596.674 231.522 602.52 254.568 604.862 278.465C605.364 283.59 606.396 288.656 607.184 293.75C607.184 298.781 607.184 303.811 607.184 309.421Z" fill="#0C2093"/>
<path d="M2.43499 286.667C22.5102 286.841 42.5933 286.7 62.6589 287.26C94.7189 288.156 122.212 300.983 145.609 323.94C146.474 324.789 147.379 325.591 148.881 326.882C174.119 351.615 198.726 375.898 223.41 400.093C224.595 401.255 226.463 402.286 228.013 402.288C253.416 402.311 278.82 402.16 304.186 402.183C304.15 402.318 304.139 402.599 304.144 403.178C304.145 429.098 304.141 454.44 304.136 479.782C270.45 479.478 236.749 479.705 203.082 478.666C183.703 478.068 165.826 470.917 149.117 460.394C114.118 438.353 78.9207 416.661 43.9361 394.594C38.8379 391.378 33.8831 389.496 27.9002 389.908C21.815 390.328 15.6838 390.004 8.91221 389.526C7.07521 382.403 5.86236 375.767 4.73214 369.116C3.50909 361.918 2.36316 354.706 1.18359 347.5C1.18359 330.39 1.18359 313.281 1.52988 295.271C2.06243 291.802 2.24871 289.235 2.43499 286.667Z" fill="#FEBEAA"/>
<path d="M338.397 142.991C374.931 143.028 411.465 143.065 448.401 143.431C448.776 228.075 448.748 312.389 448.72 396.703C448.719 399.152 448.72 401.6 448.72 404.837C421.41 404.837 394.662 404.837 366.908 404.807C362.845 404.029 359.794 402.667 356.73 402.635C339.201 402.448 321.669 402.577 304.139 402.599C304.139 402.599 304.15 402.318 304.169 401.63C304.178 348.165 304.168 295.388 304.121 242.5C304.084 242.39 304.079 242.157 304.629 242.284C316.113 242.41 327.047 242.41 338.397 242.41C338.397 208.839 338.397 175.915 338.397 142.991Z" fill="#FEC200"/>
<path d="M237.74 633.194C228.161 630.957 218.199 628.937 208.603 625.702C175.256 614.461 144.716 597.187 117.382 574.29C87.9896 549.668 63.1361 520.515 43.7117 486.31C27.4344 457.647 16.1025 426.987 8.33912 394.726C8.15068 393.943 8.31039 393.067 8.3987 391.713C9.66322 392.296 10.8928 393.341 12.0023 394.513C86.5164 473.189 161.021 551.875 235.523 630.565C236.218 631.299 236.859 632.089 237.74 633.194Z" fill="#0C2093"/>
<path d="M304.144 403.178C321.669 402.577 339.201 402.448 356.73 402.635C359.794 402.667 362.845 404.029 366.35 404.884C376.982 411.219 384.751 419.439 387.727 431.995C393.253 455.307 375.837 479.653 353.054 479.953C337.119 480.162 321.18 479.977 304.689 479.875C304.141 454.44 304.145 429.098 304.144 403.178Z" fill="#F9A68E"/>
<path d="M304.158 242.61C304.168 295.388 304.178 348.165 304.205 401.495C278.82 402.16 253.417 402.312 228.013 402.288C226.463 402.286 224.595 401.255 223.41 400.093C198.726 375.898 174.119 351.615 149.265 327.044C149.093 276.166 149.156 225.594 149.213 175.022C149.225 164.672 149.215 154.322 149.215 143.445C186.021 143.445 222.233 143.445 258.97 144.11C259.495 177.148 259.495 209.52 259.495 242.61C275.033 242.61 289.595 242.61 304.158 242.61Z" fill="#FFE600"/>
<path d="M304.121 242.5C289.595 242.61 275.033 242.61 259.495 242.61C259.495 209.52 259.495 177.148 259.546 144.181C259.871 143.35 260.184 143.249 261.343 143.543C274.181 143.86 286.217 144.147 298.24 143.856C303.023 143.741 304.262 145.455 304.231 150.288C304.04 180.91 304.101 211.534 304.079 242.157C304.079 242.157 304.084 242.39 304.121 242.5Z" fill="white"/>
<path d="M304.628 242.284C304.101 211.534 304.04 180.91 304.231 150.288C304.262 145.455 303.023 143.741 298.24 143.856C286.217 144.147 274.181 143.86 261.556 143.682C262.294 143.343 263.626 142.943 264.959 142.937C289.085 142.831 313.211 142.772 337.867 142.847C338.397 175.915 338.397 208.839 338.397 242.41C327.047 242.41 316.113 242.41 304.628 242.284Z" fill="#DDE1E6"/>
</g>
<defs>
<clipPath id="clip0_1_716">
<rect width="606" height="640" fill="white"/>
</clipPath>
</defs>
</svg>
