<svg width="605" height="640" viewBox="0 0 605 640" fill="none" xmlns="http://www.w3.org/2000/svg">
<g clip-path="url(#clip0_1_730)">
<path d="M125.262 261.251C118.408 260.86 111.993 261.245 105.907 259.928C89.4767 256.374 77.0887 240.696 76.9324 222.935C76.6299 188.579 76.6068 154.216 76.9231 119.86C77.1151 99.0081 93.4743 81.604 113.165 81.3827C145.641 81.0177 178.127 81.016 210.603 81.3833C230.292 81.606 246.634 98.9897 246.837 119.868C247.169 154.015 247.154 188.171 246.854 222.319C246.663 244.026 229.933 261.067 209.119 261.202C181.364 261.383 153.607 261.249 125.262 261.251Z" fill="#FFEEAD"/>
<path d="M479.743 561.25C452.975 561.25 426.798 561.274 400.62 561.243C376.284 561.214 360.427 544.391 360.406 518.583C360.381 486.935 360.375 455.287 360.408 423.639C360.434 398.225 376.362 381.291 400.282 381.259C430.396 381.22 460.51 381.221 490.624 381.259C514.539 381.289 530.517 398.229 530.548 423.594C530.586 455.241 530.578 486.89 530.55 518.537C530.528 544.356 514.669 561.187 490.371 561.249C487.025 561.257 483.679 561.25 479.743 561.25Z" fill="#FFAD60"/>
<path d="M109.433 381.583C143.809 381.432 177.671 380.981 211.521 381.475C230.399 381.751 246.495 398.967 246.77 418.996C247.246 453.765 247.234 488.552 246.782 523.322C246.519 543.635 230.293 560.786 211.091 561.062C178.222 561.535 145.338 561.563 112.47 561.042C93.2935 560.738 77.1866 543.388 76.9584 523.112C76.5695 488.548 76.6011 453.973 76.9501 419.408C77.1406 400.54 89.781 386.209 109.433 381.583Z" fill="#96CEB4"/>
<path d="M360.4 190C360.4 167.308 360.363 145.242 360.41 123.176C360.464 98.2578 376.532 81.2969 400.14 81.2612C430.445 81.2153 460.751 81.2073 491.057 81.2641C514.275 81.3076 530.486 98.351 530.539 122.821C530.609 155.088 530.607 187.355 530.54 219.622C530.489 244.098 514.282 261.187 491.099 261.234C460.597 261.296 430.094 261.307 399.592 261.231C376.753 261.174 360.539 244.041 360.41 219.977C360.357 210.194 360.4 200.409 360.4 190Z" fill="#D9534F"/>
</g>
<defs>
<clipPath id="clip0_1_730">
<rect width="605" height="640" fill="white"/>
</clipPath>
</defs>
</svg>
