<svg version="1.1" id="Layer_1" xmlns="http://www.w3.org/2000/svg" xmlns:xlink="http://www.w3.org/1999/xlink" x="0px" y="0px"
	 width="100%" viewBox="0 0 512 512" enable-background="new 0 0 512 512" xml:space="preserve">
<path fill="#010000" opacity="1.000000" stroke="none" 
	d="
M1.000000,189.000000 
	C1.000000,126.000000 1.000000,63.500000 1.000000,1.000000 
	C171.666672,1.000000 342.333344,1.000000 513.000000,1.000000 
	C513.000000,171.666672 513.000000,342.333344 513.000000,513.000000 
	C342.333344,513.000000 171.666672,513.000000 1.000000,513.000000 
	C1.000000,405.166656 1.000000,297.333344 1.000000,189.000000 
M296.919647,279.807343 
	C297.299957,287.615417 301.138763,291.895538 308.433807,291.917908 
	C338.871368,292.011261 369.309631,292.015411 399.747131,291.908081 
	C406.588928,291.883972 411.009277,287.384064 411.027618,280.578156 
	C411.110107,249.974213 411.104675,219.369843 411.026093,188.765884 
	C411.010986,182.880035 407.958862,179.544678 401.089600,177.834549 
	C387.125488,177.778610 373.160278,177.600128 359.197723,177.722992 
	C353.031158,177.777252 347.264465,177.730377 346.175720,170.248703 
	C339.261871,170.248703 332.985992,170.248703 326.624573,170.248703 
	C325.554810,176.125168 321.758026,177.895187 316.448669,177.695847 
	C313.297211,177.577515 310.120575,177.579773 306.980164,177.834778 
	C301.127625,178.310013 296.993774,182.373734 296.982300,188.228683 
	C296.923004,218.483704 297.039154,248.739075 296.919647,279.807343 
M120.092339,177.819351 
	C111.773880,177.768280 103.455452,177.680832 95.136955,177.673203 
	C73.003922,177.652863 50.870701,177.621399 28.737862,177.691620 
	C20.826933,177.716705 16.084415,181.657333 16.066200,188.637131 
	C15.987594,218.753830 16.111437,248.871063 16.013992,279.793030 
	C16.412472,286.795105 19.598053,291.426910 25.526905,291.715027 
	C35.200504,292.185120 44.913620,291.841980 55.052513,291.841980 
	C53.136940,285.855713 51.379509,280.363678 49.468792,274.117310 
	C48.299355,271.476807 46.151009,268.849335 46.115601,266.193695 
	C45.836452,245.258896 45.924381,224.318573 45.985401,203.380219 
	C46.001534,197.845276 48.749523,195.086472 54.224926,194.995865 
	C60.537750,194.891418 66.858543,194.837769 73.167542,195.032318 
	C82.901253,195.332504 91.548561,202.322357 93.828499,211.614517 
	C95.399223,218.016205 94.295662,224.091507 91.134621,229.265091 
	C93.856308,233.151215 96.302567,236.644089 98.856018,240.951294 
	C103.294891,257.792786 107.733772,274.634277 112.055595,291.031677 
	C118.678268,288.065033 124.068687,285.650360 130.217636,282.895935 
	C130.217636,278.641083 130.217819,273.509003 130.217606,268.376892 
	C130.216522,242.278793 130.242676,216.180649 130.196396,190.082626 
	C130.183563,182.842911 127.516701,179.499237 120.092339,177.819351 
M120.070679,16.065542 
	C103.906021,16.043566 87.741356,16.022327 71.576698,15.999284 
	C64.115692,15.988648 62.852215,15.144004 60.033356,8.171646 
	C53.820911,8.171646 47.538727,8.171646 41.322044,8.171646 
	C38.422009,15.332442 37.469879,15.966377 29.742851,15.999642 
	C28.909615,16.003231 28.074989,15.976986 27.243364,16.015486 
	C20.666269,16.319983 16.081879,20.520452 16.066753,27.017143 
	C15.996922,57.010857 16.109932,87.004990 16.018505,117.806404 
	C16.363413,126.250275 20.081263,130.186081 28.300417,130.207108 
	C58.298988,130.283859 88.298035,130.287109 118.296547,130.198624 
	C126.025375,130.175842 130.150070,126.081528 130.169769,118.484879 
	C130.247986,88.319633 130.237198,58.154011 130.179993,27.988676 
	C130.167206,21.240002 127.610390,18.186255 120.070679,16.065542 
M296.913483,117.823509 
	C297.198486,126.053276 300.861877,130.167160 308.630310,130.192108 
	C338.942108,130.289444 369.254608,130.289093 399.566315,130.177231 
	C406.893341,130.150192 411.022034,125.871384 411.038269,118.571274 
	C411.105774,88.259148 411.097290,57.946728 411.041016,27.634558 
	C411.029419,21.381800 408.338776,18.222107 401.071411,16.077955 
	C370.315186,16.052071 339.558899,15.994784 308.802734,16.023870 
	C301.712097,16.030577 296.993500,20.141003 296.977448,26.746254 
	C296.904358,56.832874 297.028931,86.919968 296.913483,117.823509 
M167.931595,505.990875 
	C204.988693,505.990875 242.045792,505.990875 279.675323,505.990875 
	C278.457977,501.975586 277.506348,498.643890 276.438934,495.349731 
	C272.133331,482.061768 267.966980,468.823120 268.002686,454.555267 
	C268.037262,440.736755 267.167511,426.949921 261.953857,413.822357 
	C260.242249,409.512695 259.453400,404.834869 257.721588,400.535278 
	C255.240891,394.376465 255.182907,389.198822 261.967987,386.116455 
	C260.575409,382.239471 258.623047,378.850922 258.255127,375.298279 
	C257.707367,370.009705 255.725876,367.181244 249.698334,367.070465 
	C248.164185,364.609497 246.075165,362.331604 245.192307,359.655762 
	C241.444992,348.298157 238.138412,336.796143 234.507553,325.398895 
	C231.905182,317.230133 225.195877,313.176147 218.188232,315.248108 
	C210.985199,317.377838 207.717209,324.645233 210.264954,333.071564 
	C212.044022,338.955597 214.089828,344.762177 215.750504,350.678009 
	C217.467300,356.793793 213.316879,361.772614 207.446426,360.926880 
	C203.510895,360.359894 202.090591,357.449249 201.067230,354.111115 
	C197.414841,342.197144 193.729248,330.293335 190.044373,318.389343 
	C189.602478,316.961792 189.215775,315.496887 188.585358,314.151489 
	C185.706268,308.007141 178.916824,305.029358 172.748245,307.126068 
	C166.615768,309.210541 162.986893,315.732086 164.910980,322.404633 
	C168.731003,335.652130 172.974854,348.776825 176.937714,361.984039 
	C178.600632,367.526154 176.693436,371.521332 172.089966,372.782257 
	C167.830811,373.948853 164.387390,371.599823 162.597366,366.241516 
	C161.702515,363.562805 160.886154,360.857666 160.051437,358.159180 
	C155.043243,341.968658 150.095032,325.759247 145.012054,309.592224 
	C142.442627,301.419830 135.677490,297.404816 128.701462,299.648590 
	C121.365715,302.008087 118.348595,308.617126 120.796494,316.961578 
	C121.030487,317.759186 121.243080,318.563324 121.487770,319.357605 
	C127.113785,337.618683 132.788620,355.864899 138.346619,374.146667 
	C140.297043,380.562134 135.989273,386.455109 130.349045,384.626556 
	C127.761055,383.787506 124.982582,380.613434 124.098442,377.907532 
	C117.494064,357.695068 111.336945,337.336426 105.050453,317.020203 
	C98.714546,296.544281 92.472809,276.038696 86.022079,255.599030 
	C83.424118,247.367188 76.852524,243.769669 69.503601,246.066116 
	C62.532486,248.244522 59.521973,254.902206 61.874966,263.090942 
	C63.021912,267.082489 64.279129,271.042603 65.505463,275.011078 
	C80.859665,324.697723 96.232124,374.378784 111.523933,424.084625 
	C112.183464,426.228455 112.956322,428.939240 112.210114,430.796936 
	C110.241409,435.698059 107.767204,440.469299 104.906036,444.913574 
	C102.930153,447.982727 99.564552,448.757141 96.053009,447.045349 
	C92.586029,445.355255 91.358498,442.445312 92.013885,438.777679 
	C92.240944,437.507080 92.769730,436.157898 93.548027,435.141113 
	C97.024750,430.599457 96.785439,426.027740 94.998856,420.755951 
	C90.680664,408.013916 87.001244,395.056885 82.891609,382.241943 
	C80.978561,376.276550 75.775436,372.744751 70.080360,373.043182 
	C64.448280,373.338318 59.324989,377.303070 58.455158,382.976410 
	C57.999443,385.948730 58.567245,389.289276 59.460403,392.223816 
	C66.813606,416.383484 74.896637,440.336304 81.619133,464.666626 
	C85.349541,478.167847 92.204773,488.338135 104.026207,495.669067 
	C107.889793,498.065094 110.881454,501.867096 115.143738,505.838440 
	C131.355560,505.838440 149.180954,505.838440 167.931595,505.990875 
M71.100212,209.955612 
	C67.828056,209.955612 64.555901,209.955612 61.297043,209.955612 
	C61.297043,215.163254 61.297043,219.863892 61.297043,224.827484 
	C64.780518,224.827484 67.919151,224.922607 71.049858,224.805664 
	C76.009789,224.620392 79.074631,222.089325 79.486168,218.031265 
	C79.916534,213.787399 77.326134,211.004120 71.100212,209.955612 
z"/>
<path fill="#FEDCCD" opacity="1.000000" stroke="none" 
	d="
M167.006348,505.838440 
	C149.180954,505.838440 131.355560,505.838440 115.143738,505.838440 
	C110.881454,501.867096 107.889793,498.065094 104.026207,495.669067 
	C92.204773,488.338135 85.349541,478.167847 81.619133,464.666626 
	C74.896637,440.336304 66.813606,416.383484 59.460403,392.223816 
	C58.567245,389.289276 57.999443,385.948730 58.455158,382.976410 
	C59.324989,377.303070 64.448280,373.338318 70.080360,373.043182 
	C75.775436,372.744751 80.978561,376.276550 82.891609,382.241943 
	C87.001244,395.056885 90.680664,408.013916 94.998856,420.755951 
	C96.785439,426.027740 97.024750,430.599457 93.548027,435.141113 
	C92.769730,436.157898 92.240944,437.507080 92.013885,438.777679 
	C91.358498,442.445312 92.586029,445.355255 96.053009,447.045349 
	C99.564552,448.757141 102.930153,447.982727 104.906036,444.913574 
	C107.767204,440.469299 110.241409,435.698059 112.210114,430.796936 
	C112.956322,428.939240 112.183464,426.228455 111.523933,424.084625 
	C96.232124,374.378784 80.859665,324.697723 65.505463,275.011078 
	C64.279129,271.042603 63.021912,267.082489 61.874966,263.090942 
	C59.521973,254.902206 62.532486,248.244522 69.503601,246.066116 
	C76.852524,243.769669 83.424118,247.367188 86.022079,255.599030 
	C92.472809,276.038696 98.714546,296.544281 105.050453,317.020203 
	C111.336945,337.336426 117.494064,357.695068 124.098442,377.907532 
	C124.982582,380.613434 127.761055,383.787506 130.349045,384.626556 
	C135.989273,386.455109 140.297043,380.562134 138.346619,374.146667 
	C132.788620,355.864899 127.113785,337.618683 121.487770,319.357605 
	C121.243080,318.563324 121.030487,317.759186 120.796494,316.961578 
	C118.348595,308.617126 121.365715,302.008087 128.701462,299.648590 
	C135.677490,297.404816 142.442627,301.419830 145.012054,309.592224 
	C150.095032,325.759247 155.043243,341.968658 160.051437,358.159180 
	C160.886154,360.857666 161.702515,363.562805 162.597366,366.241516 
	C164.387390,371.599823 167.830811,373.948853 172.089966,372.782257 
	C176.693436,371.521332 178.600632,367.526154 176.937714,361.984039 
	C172.974854,348.776825 168.731003,335.652130 164.910980,322.404633 
	C162.986893,315.732086 166.615768,309.210541 172.748245,307.126068 
	C178.916824,305.029358 185.706268,308.007141 188.585358,314.151489 
	C189.215775,315.496887 189.602478,316.961792 190.044373,318.389343 
	C193.729248,330.293335 197.414841,342.197144 201.067230,354.111115 
	C202.090591,357.449249 203.510895,360.359894 207.446426,360.926880 
	C213.316879,361.772614 217.467300,356.793793 215.750504,350.678009 
	C214.089828,344.762177 212.044022,338.955597 210.264954,333.071564 
	C207.717209,324.645233 210.985199,317.377838 218.188232,315.248108 
	C225.195877,313.176147 231.905182,317.230133 234.507553,325.398895 
	C238.138412,336.796143 241.444992,348.298157 245.192307,359.655762 
	C246.075165,362.331604 248.164185,364.609497 249.900040,367.735413 
	C249.864044,370.037720 249.748947,371.704102 249.370178,373.308167 
	C243.923843,396.373932 236.088806,418.488281 224.473709,439.284576 
	C215.257538,455.785675 204.496979,471.056610 191.061264,484.300537 
	C183.405228,491.847351 175.047882,498.682709 167.006348,505.838440 
z"/>
<path fill="#B2E49E" opacity="1.000000" stroke="none" 
	d="
M297.082458,117.006897 
	C297.028931,86.919968 296.904358,56.832874 296.977448,26.746254 
	C296.993500,20.141003 301.712097,16.030577 308.802734,16.023870 
	C339.558899,15.994784 370.315186,16.052071 401.523743,16.642605 
	C401.478851,22.814629 401.441193,28.508490 400.404938,34.014412 
	C395.916077,57.865063 384.784912,77.967712 365.979370,93.617790 
	C364.773010,94.621719 364.071198,96.231903 363.034180,97.573807 
	C362.933685,97.587563 362.755890,97.489944 362.452698,97.402145 
	C361.772034,97.471703 361.394623,97.629051 360.605286,97.863220 
	C348.842865,97.516586 340.071198,91.330833 336.543152,81.261940 
	C333.133575,71.531197 336.065277,60.920643 344.026642,54.177155 
	C352.137268,47.307243 362.557098,46.526463 372.863983,52.016312 
	C377.953339,54.727104 382.327972,53.965267 384.537750,49.983337 
	C386.729767,46.033413 385.051819,41.746056 380.182526,38.855152 
	C360.065521,26.911669 333.986908,35.020111 323.930023,56.252739 
	C315.571167,73.900513 320.983459,96.713768 340.792969,108.560860 
	C338.960571,109.626106 337.390656,110.555901 335.713013,111.208771 
	C323.278168,116.047867 310.358917,117.735649 297.082458,117.006897 
z"/>
<path fill="#FECBBE" opacity="1.000000" stroke="none" 
	d="
M167.468964,505.914673 
	C175.047882,498.682709 183.405228,491.847351 191.061264,484.300537 
	C204.496979,471.056610 215.257538,455.785675 224.473709,439.284576 
	C236.088806,418.488281 243.923843,396.373932 249.370178,373.308167 
	C249.748947,371.704102 249.864044,370.037720 250.150879,367.949158 
	C255.725876,367.181244 257.707367,370.009705 258.255127,375.298279 
	C258.623047,378.850922 260.575409,382.239471 261.967987,386.116455 
	C255.182907,389.198822 255.240891,394.376465 257.721588,400.535278 
	C259.453400,404.834869 260.242249,409.512695 261.953857,413.822357 
	C267.167511,426.949921 268.037262,440.736755 268.002686,454.555267 
	C267.966980,468.823120 272.133331,482.061768 276.438934,495.349731 
	C277.506348,498.643890 278.457977,501.975586 279.675323,505.990875 
	C242.045792,505.990875 204.988693,505.990875 167.468964,505.914673 
z"/>
<path fill="#DE75A4" opacity="1.000000" stroke="none" 
	d="
M16.157404,116.998978 
	C16.109932,87.004990 15.996922,57.010857 16.066753,27.017143 
	C16.081879,20.520452 20.666269,16.319983 27.243364,16.015486 
	C28.074989,15.976986 28.909615,16.003231 29.742851,15.999642 
	C37.469879,15.966377 38.422009,15.332442 41.322044,8.171646 
	C47.538727,8.171646 53.820911,8.171646 60.033356,8.171646 
	C62.852215,15.144004 64.115692,15.988648 71.576698,15.999284 
	C87.741356,16.022327 103.906021,16.043566 120.526085,16.622503 
	C121.226646,35.788086 115.976006,52.901878 106.446999,68.699631 
	C103.957993,72.826065 100.332443,76.266953 97.067413,79.681503 
	C92.063927,66.603828 87.130325,53.901012 82.429420,41.112667 
	C80.777504,36.618813 78.229126,33.366886 73.228798,33.360634 
	C68.199608,33.354347 65.705482,36.724812 64.039337,41.149757 
	C56.543549,61.057007 48.898670,80.908058 41.355713,100.797638 
	C38.667862,107.885071 40.595669,111.377007 47.699753,113.372314 
	C37.215549,116.764435 26.740679,117.380829 16.157404,116.998978 
z"/>
<path fill="#FEDF7D" opacity="1.000000" stroke="none" 
	d="
M98.748825,240.136948 
	C96.302567,236.644089 93.856308,233.151215 91.134621,229.265091 
	C94.295662,224.091507 95.399223,218.016205 93.828499,211.614517 
	C91.548561,202.322357 82.901253,195.332504 73.167542,195.032318 
	C66.858543,194.837769 60.537750,194.891418 54.224926,194.995865 
	C48.749523,195.086472 46.001534,197.845276 45.985401,203.380219 
	C45.924381,224.318573 45.836452,245.258896 46.115601,266.193695 
	C46.151009,268.849335 48.299355,271.476807 49.115822,274.550964 
	C38.108345,278.050201 27.255209,279.498260 16.161594,278.988098 
	C16.111437,248.871063 15.987594,218.753830 16.066200,188.637131 
	C16.084415,181.657333 20.826933,177.716705 28.737862,177.691620 
	C50.870701,177.621399 73.003922,177.652863 95.136955,177.673203 
	C103.455452,177.680832 111.773880,177.768280 120.546570,178.407867 
	C121.503456,192.194260 118.605927,204.893372 113.308662,216.717377 
	C109.584618,225.029800 103.679840,232.365250 98.748825,240.136948 
z"/>
<path fill="#90D7F8" opacity="1.000000" stroke="none" 
	d="
M297.094147,278.994324 
	C297.039154,248.739075 296.923004,218.483704 296.982300,188.228683 
	C296.993774,182.373734 301.127625,178.310013 306.980164,177.834778 
	C310.120575,177.579773 313.297211,177.577515 316.448669,177.695847 
	C321.758026,177.895187 325.554810,176.125168 326.624573,170.248703 
	C332.985992,170.248703 339.261871,170.248703 346.175720,170.248703 
	C347.264465,177.730377 353.031158,177.777252 359.197723,177.722992 
	C373.160278,177.600128 387.125488,177.778610 401.544006,178.416046 
	C401.664062,183.293137 401.582275,187.626266 400.950195,191.877579 
	C398.621948,207.537216 393.760712,222.243134 383.889954,234.583405 
	C383.494415,231.189774 383.351898,228.191299 382.898712,225.240509 
	C379.950867,206.046936 367.098816,195.016632 347.702179,194.958145 
	C343.048309,194.944107 338.394135,194.926392 333.740540,194.963257 
	C326.947327,195.017090 324.214752,197.557053 324.194580,204.179062 
	C324.133270,224.290359 324.190979,244.401978 324.156342,264.513397 
	C324.149292,268.603607 325.223633,272.050323 328.803986,274.468964 
	C327.719360,275.178589 326.881409,275.873871 325.977753,275.973541 
	C316.355896,277.034821 306.723572,278.001556 297.094147,278.994324 
z"/>
<path fill="#DC5790" opacity="1.000000" stroke="none" 
	d="
M97.228882,80.022697 
	C100.332443,76.266953 103.957993,72.826065 106.446999,68.699631 
	C115.976006,52.901878 121.226646,35.788086 120.981155,16.736389 
	C127.610390,18.186255 130.167206,21.240002 130.179993,27.988676 
	C130.237198,58.154011 130.247986,88.319633 130.169769,118.484879 
	C130.150070,126.081528 126.025375,130.175842 118.296547,130.198624 
	C88.298035,130.287109 58.298988,130.283859 28.300417,130.207108 
	C20.081263,130.186081 16.363413,126.250275 16.087955,117.402695 
	C26.740679,117.380829 37.215549,116.764435 48.022602,113.267586 
	C49.705956,112.606972 50.780941,112.283493 52.084286,111.839691 
	C52.542519,111.467056 52.772392,111.214760 53.005219,110.983582 
	C53.008163,111.004700 52.966846,110.994095 53.365639,110.994827 
	C63.695267,108.703392 72.273964,103.832748 80.390045,97.182846 
	C86.063629,95.941605 88.859116,98.289101 89.883408,103.324448 
	C90.112633,104.451271 90.642830,105.521538 91.075081,106.601593 
	C93.137901,111.755875 96.831200,113.990608 100.944107,112.590591 
	C105.409111,111.070717 107.063011,106.870773 105.143669,101.524559 
	C102.563110,94.336548 99.872345,87.188118 97.228882,80.022697 
z"/>
<path fill="#74CDF8" opacity="1.000000" stroke="none" 
	d="
M383.999329,235.000626 
	C393.760712,222.243134 398.621948,207.537216 400.950195,191.877579 
	C401.582275,187.626266 401.664062,183.293137 401.996704,178.547073 
	C407.958862,179.544678 411.010986,182.880035 411.026093,188.765884 
	C411.104675,219.369843 411.110107,249.974213 411.027618,280.578156 
	C411.009277,287.384064 406.588928,291.883972 399.747131,291.908081 
	C369.309631,292.015411 338.871368,292.011261 308.433807,291.917908 
	C301.138763,291.895538 297.299957,287.615417 297.006897,279.400818 
	C306.723572,278.001556 316.355896,277.034821 325.977753,275.973541 
	C326.881409,275.873871 327.719360,275.178589 329.212585,274.477661 
	C336.628845,274.277069 343.424255,274.544647 350.210999,274.401215 
	C363.861450,274.112793 373.752716,267.427765 379.056305,255.123413 
	C381.752655,248.867828 382.416626,241.736221 383.999329,235.000626 
z"/>
<path fill="#95D5A3" opacity="1.000000" stroke="none" 
	d="
M296.997986,117.415207 
	C310.358917,117.735649 323.278168,116.047867 335.713013,111.208771 
	C337.390656,110.555901 338.960571,109.626106 341.126282,108.651123 
	C342.273132,108.762505 342.867889,109.061325 343.475922,109.330040 
	C358.422913,115.935303 374.704315,113.355774 384.595123,102.818626 
	C388.604584,98.547150 388.912323,94.250198 385.444885,90.954231 
	C382.213165,87.882301 378.353027,88.645599 373.930389,92.000488 
	C370.753906,94.410095 366.762512,95.745468 363.134644,97.560059 
	C364.071198,96.231903 364.773010,94.621719 365.979370,93.617790 
	C384.784912,77.967712 395.916077,57.865063 400.404938,34.014412 
	C401.441193,28.508490 401.478851,22.814629 401.975647,16.768566 
	C408.338776,18.222107 411.029419,21.381800 411.041016,27.634558 
	C411.097290,57.946728 411.105774,88.259148 411.038269,118.571274 
	C411.022034,125.871384 406.893341,130.150192 399.566315,130.177231 
	C369.254608,130.289093 338.942108,130.289444 308.630310,130.192108 
	C300.861877,130.167160 297.198486,126.053276 296.997986,117.415207 
z"/>
<path fill="#FECF64" opacity="1.000000" stroke="none" 
	d="
M98.802414,240.544128 
	C103.679840,232.365250 109.584618,225.029800 113.308662,216.717377 
	C118.605927,204.893372 121.503456,192.194260 120.999283,178.539474 
	C127.516701,179.499237 130.183563,182.842911 130.196396,190.082626 
	C130.242676,216.180649 130.216522,242.278793 130.217606,268.376892 
	C130.217819,273.509003 130.217636,278.641083 130.217636,282.895935 
	C124.068687,285.650360 118.678268,288.065033 112.055595,291.031677 
	C107.733772,274.634277 103.294891,257.792786 98.802414,240.544128 
z"/>
<path fill="#FCCD63" opacity="1.000000" stroke="none" 
	d="
M16.087793,279.390564 
	C27.255209,279.498260 38.108345,278.050201 49.192463,274.928101 
	C51.379509,280.363678 53.136940,285.855713 55.052513,291.841980 
	C44.913620,291.841980 35.200504,292.185120 25.526905,291.715027 
	C19.598053,291.426910 16.412472,286.795105 16.087793,279.390564 
z"/>
<path fill="#F9DB7A" opacity="1.000000" stroke="none" 
	d="
M71.543762,209.964828 
	C77.326134,211.004120 79.916534,213.787399 79.486168,218.031265 
	C79.074631,222.089325 76.009789,224.620392 71.049858,224.805664 
	C67.919151,224.922607 64.780518,224.827484 61.297043,224.827484 
	C61.297043,219.863892 61.297043,215.163254 61.297043,209.955612 
	C64.555901,209.955612 67.828056,209.955612 71.543762,209.964828 
z"/>
<path fill="#030403" opacity="1.000000" stroke="none" 
	d="
M363.034180,97.573807 
	C366.762512,95.745468 370.753906,94.410095 373.930389,92.000488 
	C378.353027,88.645599 382.213165,87.882301 385.444885,90.954231 
	C388.912323,94.250198 388.604584,98.547150 384.595123,102.818626 
	C374.704315,113.355774 358.422913,115.935303 343.475922,109.330040 
	C342.867889,109.061325 342.273132,108.762505 341.338898,108.387444 
	C320.983459,96.713768 315.571167,73.900513 323.930023,56.252739 
	C333.986908,35.020111 360.065521,26.911669 380.182526,38.855152 
	C385.051819,41.746056 386.729767,46.033413 384.537750,49.983337 
	C382.327972,53.965267 377.953339,54.727104 372.863983,52.016312 
	C362.557098,46.526463 352.137268,47.307243 344.026642,54.177155 
	C336.065277,60.920643 333.133575,71.531197 336.543152,81.261940 
	C340.071198,91.330833 348.842865,97.516586 360.908752,97.925270 
	C362.001343,97.770317 362.378601,97.630135 362.755890,97.489944 
	C362.755890,97.489944 362.933685,97.587563 363.034180,97.573807 
z"/>
<path fill="#95D5A3" opacity="1.000000" stroke="none" 
	d="
M362.452698,97.402145 
	C362.378601,97.630135 362.001343,97.770317 361.320618,97.848450 
	C361.394623,97.629051 361.772034,97.471703 362.452698,97.402145 
z"/>
<path fill="#030202" opacity="1.000000" stroke="none" 
	d="
M51.855934,111.960022 
	C50.780941,112.283493 49.705956,112.606972 48.308121,113.035187 
	C40.595669,111.377007 38.667862,107.885071 41.355713,100.797638 
	C48.898670,80.908058 56.543549,61.057007 64.039337,41.149757 
	C65.705482,36.724812 68.199608,33.354347 73.228798,33.360634 
	C78.229126,33.366886 80.777504,36.618813 82.429420,41.112667 
	C87.130325,53.901012 92.063927,66.603828 97.067413,79.681503 
	C99.872345,87.188118 102.563110,94.336548 105.143669,101.524559 
	C107.063011,106.870773 105.409111,111.070717 100.944107,112.590591 
	C96.831200,113.990608 93.137901,111.755875 91.075081,106.601593 
	C90.642830,105.521538 90.112633,104.451271 89.883408,103.324448 
	C88.859116,98.289101 86.063629,95.941605 79.929016,97.106583 
	C76.079750,97.097160 73.122047,97.080795 70.164352,97.079926 
	C59.253376,97.076729 59.266590,97.084274 55.010517,107.093353 
	C54.437973,108.439812 53.653294,109.696068 52.966850,110.994095 
	C52.966846,110.994095 53.008163,111.004700 52.754509,111.073189 
	C52.285881,111.414459 52.070908,111.687241 51.855934,111.960022 
M69.210121,69.729507 
	C67.750999,73.687294 66.291870,77.645088 64.745270,81.840157 
	C70.576080,81.840157 75.795418,81.840157 81.687851,81.840157 
	C78.906250,74.420891 76.287483,67.435951 73.283653,59.423946 
	C71.785126,63.270458 70.662941,66.150963 69.210121,69.729507 
z"/>
<path fill="#030405" opacity="1.000000" stroke="none" 
	d="
M383.889954,234.583405 
	C382.416626,241.736221 381.752655,248.867828 379.056305,255.123413 
	C373.752716,267.427765 363.861450,274.112793 350.210999,274.401215 
	C343.424255,274.544647 336.628845,274.277069 329.428741,274.186768 
	C325.223633,272.050323 324.149292,268.603607 324.156342,264.513397 
	C324.190979,244.401978 324.133270,224.290359 324.194580,204.179062 
	C324.214752,197.557053 326.947327,195.017090 333.740540,194.963257 
	C338.394135,194.926392 343.048309,194.944107 347.702179,194.958145 
	C367.098816,195.016632 379.950867,206.046936 382.898712,225.240509 
	C383.351898,228.191299 383.494415,231.189774 383.889954,234.583405 
M368.260986,239.652115 
	C367.485748,233.288452 367.388000,226.742477 365.738831,220.613968 
	C364.184814,214.838791 359.459259,211.072968 353.374786,210.303482 
	C348.843842,209.730469 344.182190,210.190598 339.602509,210.190598 
	C339.602509,226.754776 339.602509,242.968002 339.602509,259.125275 
	C357.423584,261.348328 365.649109,255.882462 368.260986,239.652115 
z"/>
<path fill="#DD73A3" opacity="1.000000" stroke="none" 
	d="
M53.365639,110.994827 
	C53.653294,109.696068 54.437973,108.439812 55.010517,107.093353 
	C59.266590,97.084274 59.253376,97.076729 70.164352,97.079926 
	C73.122047,97.080795 76.079750,97.097160 79.498482,97.182671 
	C72.273964,103.832748 63.695267,108.703392 53.365639,110.994827 
z"/>
<path fill="#DD73A3" opacity="1.000000" stroke="none" 
	d="
M52.084290,111.839691 
	C52.070908,111.687241 52.285881,111.414459 52.751564,111.052063 
	C52.772392,111.214760 52.542519,111.467056 52.084290,111.839691 
z"/>
<path fill="#D872A0" opacity="1.000000" stroke="none" 
	d="
M69.375435,69.380493 
	C70.662941,66.150963 71.785126,63.270458 73.283653,59.423946 
	C76.287483,67.435951 78.906250,74.420891 81.687851,81.840157 
	C75.795418,81.840157 70.576080,81.840157 64.745270,81.840157 
	C66.291870,77.645088 67.750999,73.687294 69.375435,69.380493 
z"/>
<path fill="#8DD3F4" opacity="1.000000" stroke="none" 
	d="
M368.192963,240.071854 
	C365.649109,255.882462 357.423584,261.348328 339.602509,259.125275 
	C339.602509,242.968002 339.602509,226.754776 339.602509,210.190598 
	C344.182190,210.190598 348.843842,209.730469 353.374786,210.303482 
	C359.459259,211.072968 364.184814,214.838791 365.738831,220.613968 
	C367.388000,226.742477 367.485748,233.288452 368.192963,240.071854 
z"/>
</svg>