<svg version="1.1" id="Layer_1" xmlns="http://www.w3.org/2000/svg" xmlns:xlink="http://www.w3.org/1999/xlink" x="0px" y="0px"
	 width="100%" viewBox="0 0 512 512" enable-background="new 0 0 512 512" xml:space="preserve">
<path fill="#000000" opacity="1.000000" stroke="none" 
	d="
M1.000004,489.000000 
	C1.000000,326.431244 1.000000,163.862503 1.000000,1.000000 
	C77.355728,1.000000 153.711823,1.000000 230.521317,1.397207 
	C230.471024,2.162279 230.004547,2.780872 229.458313,2.861911 
	C206.487152,6.269942 185.529007,14.847754 166.400803,27.838474 
	C153.768631,36.417488 142.694092,46.689190 133.413834,58.967564 
	C120.883354,75.546211 111.494576,93.522499 106.613480,114.037048 
	C102.548874,117.547592 100.866234,121.556160 100.911438,126.773827 
	C101.114464,150.207504 100.999321,173.643936 100.999992,197.079376 
	C101.000282,207.356186 107.559685,213.982040 117.785583,213.995941 
	C129.918808,214.012436 142.063202,213.682220 154.181519,214.107498 
	C162.770752,214.408920 169.926392,212.508743 174.913391,205.453400 
	C174.989899,214.887268 175.220886,223.863617 174.944733,232.824310 
	C174.565430,245.132050 177.481323,256.448730 183.978577,266.888458 
	C190.110794,276.741608 198.113113,284.466888 208.944000,289.539612 
	C208.950165,310.656006 208.912598,331.311340 208.414398,351.980896 
	C189.942780,352.660675 171.879333,352.688660 153.935135,354.165588 
	C134.816971,355.739105 116.739967,361.918457 99.371277,369.960602 
	C72.952461,382.193207 50.101429,398.994812 32.167007,422.242767 
	C17.187408,441.660370 6.803902,463.015961 2.910257,487.367035 
	C2.809520,487.997070 1.660272,488.459442 1.000004,489.000000 
z"/>
<path fill="#000000" opacity="1.000000" stroke="none" 
	d="
M283.000000,0.999999 
	C359.620514,1.000000 436.240997,1.000000 513.000000,1.000000 
	C513.000000,163.355957 513.000000,325.711945 512.611267,488.716431 
	C511.417694,486.109772 510.648010,482.845428 509.802582,479.600800 
	C501.745544,448.679474 486.325928,422.283539 462.428772,400.774567 
	C448.279846,388.039703 432.772491,377.722198 415.508148,369.731110 
	C390.905884,358.343567 365.045990,352.830383 338.100037,352.050568 
	C327.116791,351.732758 316.117249,351.977814 305.071228,351.502533 
	C305.054260,330.381378 305.091156,309.724457 305.488098,289.033997 
	C313.110504,284.714661 320.014618,280.234802 325.398254,273.330536 
	C333.858246,262.480927 338.789093,250.607712 338.980927,236.857712 
	C339.129028,226.240295 339.098511,215.620361 339.443054,205.162750 
	C343.102112,211.338623 348.469269,213.889648 355.115173,213.978531 
	C364.062073,214.098206 373.011017,214.063080 381.971893,214.556458 
	C381.989899,228.840256 382.064697,242.662399 381.980011,256.483551 
	C381.901215,269.335785 378.822052,274.238190 369.023712,276.952881 
	C369.023712,285.922089 368.912842,295.049042 369.184723,304.164612 
	C369.213898,305.141754 371.485931,306.884552 372.694885,306.865143 
	C384.781952,306.670654 394.875214,302.253357 402.368713,292.397461 
	C410.416168,281.812958 412.454498,269.384308 412.873016,256.732056 
	C413.395691,240.929291 413.026276,225.095993 412.959503,209.276230 
	C412.952118,207.523407 412.405365,205.772842 412.162048,203.606781 
	C412.476959,200.730942 412.959595,198.270111 412.965759,195.808105 
	C413.023743,172.746216 412.930695,149.683762 413.051941,126.622360 
	C413.080048,121.271164 411.446228,117.000610 407.030182,113.483032 
	C399.346497,83.980499 384.617035,59.279613 361.893188,39.285309 
	C342.180389,21.940331 319.709351,10.382215 294.082184,4.774904 
	C290.294159,3.946071 286.689484,2.279160 283.000000,0.999999 
z"/>
<path fill="#0D90BC" opacity="1.000000" stroke="none" 
	d="
M305.125122,351.966797 
	C316.117249,351.977814 327.116791,351.732758 338.100037,352.050568 
	C365.045990,352.830383 390.905884,358.343567 415.508148,369.731110 
	C432.772491,377.722198 448.279846,388.039703 462.428772,400.774567 
	C486.325928,422.283539 501.745544,448.679474 509.802582,479.600800 
	C510.648010,482.845428 511.417694,486.109772 512.611267,489.182495 
	C513.000000,496.987488 513.000000,504.974976 513.000000,513.000000 
	C427.979095,513.000000 342.958221,513.000000 257.468658,512.531372 
	C257.003967,475.079102 257.007965,438.095520 256.981384,401.025940 
	C256.950836,400.939911 256.946655,400.757263 257.373199,400.823944 
	C269.534180,400.531067 279.673676,396.269257 288.383514,388.452881 
	C299.244537,378.705994 303.979492,366.163635 305.125122,351.966797 
z"/>
<path fill="#0FA8DC" opacity="1.000000" stroke="none" 
	d="
M257.011963,401.111938 
	C257.007965,438.095520 257.003967,475.079102 257.000000,512.531372 
	C171.666656,513.000000 86.333305,513.000000 1.000000,513.000000 
	C1.000000,505.246704 1.000000,497.592041 1.000004,489.468689 
	C1.660272,488.459442 2.809520,487.997070 2.910257,487.367035 
	C6.803902,463.015961 17.187408,441.660370 32.167007,422.242767 
	C50.101429,398.994812 72.952461,382.193207 99.371277,369.960602 
	C116.739967,361.918457 134.816971,355.739105 153.935135,354.165588 
	C171.879333,352.688660 189.942780,352.660675 208.543777,352.382507 
	C210.325012,380.048859 231.309143,400.236298 257.011963,401.111938 
M124.515518,420.284302 
	C120.413506,420.284302 116.311501,420.284302 112.122375,420.284302 
	C112.122375,430.572876 112.122375,440.152618 112.122375,450.017761 
	C131.755524,450.017761 151.112015,450.017761 170.665176,450.017761 
	C170.665176,440.092194 170.665176,430.402466 170.665176,420.284546 
	C155.387283,420.284546 140.449371,420.284546 124.515518,420.284302 
z"/>
<path fill="#07485E" opacity="1.000000" stroke="none" 
	d="
M106.923744,113.883255 
	C111.494576,93.522499 120.883354,75.546211 133.413834,58.967564 
	C142.694092,46.689190 153.768631,36.417488 166.400803,27.838474 
	C185.529007,14.847754 206.487152,6.269942 229.458313,2.861911 
	C230.004547,2.780872 230.471024,2.162279 230.987350,1.397207 
	C239.354233,1.000000 247.708450,1.000000 256.531372,1.468657 
	C256.980499,11.583418 256.960968,21.229523 256.534821,30.974987 
	C250.415009,31.702892 244.666840,32.108112 238.994263,32.996174 
	C201.810669,38.817394 172.592957,57.321049 151.950500,88.793144 
	C147.488327,95.596313 144.667450,103.476006 140.619080,110.915863 
	C137.995758,111.000366 135.840042,110.955826 133.692795,111.070053 
	C124.722519,111.547234 115.468872,109.363876 106.923744,113.883255 
z"/>
<path fill="#04303E" opacity="1.000000" stroke="none" 
	d="
M256.941406,30.875626 
	C256.960968,21.229523 256.980499,11.583418 257.000000,1.468657 
	C265.354218,1.000000 273.708466,1.000000 282.531342,0.999999 
	C286.689484,2.279160 290.294159,3.946071 294.082184,4.774904 
	C319.709351,10.382215 342.180389,21.940331 361.893188,39.285309 
	C384.617035,59.279613 399.346497,83.980499 406.659485,113.481995 
	C402.340912,112.933449 398.400726,111.458542 394.377747,111.180061 
	C387.255249,110.687012 380.082458,110.921349 372.941254,110.483978 
	C372.922272,109.786125 372.977081,109.418709 372.851074,109.130272 
	C364.920868,90.975433 354.111908,75.044022 338.814148,62.067345 
	C323.590790,49.153748 306.575470,39.954212 287.278778,35.390625 
	C277.364899,33.046036 267.066193,32.328453 256.941406,30.875626 
z"/>
<path fill="#FECCBD" opacity="1.000000" stroke="none" 
	d="
M208.900253,289.078583 
	C198.113113,284.466888 190.110794,276.741608 183.978577,266.888458 
	C177.481323,256.448730 174.565430,245.132050 174.944733,232.824310 
	C175.220886,223.863617 174.989899,214.887268 174.981110,204.990433 
	C174.929123,176.041672 174.881012,148.020386 174.908295,119.577866 
	C176.669464,112.992897 178.355255,106.829170 180.369812,100.782791 
	C186.628296,104.874565 192.310928,109.295486 198.534348,112.739090 
	C216.683716,122.781654 236.470078,126.637321 257.016602,127.630371 
	C257.004150,183.682175 256.998322,239.276199 256.525635,294.906952 
	C240.072418,295.134430 223.973389,296.230835 208.900253,289.078583 
z"/>
<path fill="#0FA8DC" opacity="1.000000" stroke="none" 
	d="
M174.832886,119.999107 
	C174.881012,148.020386 174.929123,176.041672 174.909515,204.525909 
	C169.926392,212.508743 162.770752,214.408920 154.181519,214.107498 
	C142.063202,213.682220 129.918808,214.012436 117.785583,213.995941 
	C107.559685,213.982040 101.000282,207.356186 100.999992,197.079376 
	C100.999321,173.643936 101.114464,150.207504 100.911438,126.773827 
	C100.866234,121.556160 102.548874,117.547592 106.613480,114.037048 
	C115.468872,109.363876 124.722519,111.547234 133.692795,111.070053 
	C135.840042,110.955826 137.995758,111.000366 141.078430,110.975418 
	C147.275238,110.985916 152.567551,111.329849 157.800949,110.920486 
	C165.568848,110.312874 171.126068,113.275299 174.832886,119.999107 
z"/>
<path fill="#F9A58D" opacity="1.000000" stroke="none" 
	d="
M208.944000,289.539612 
	C223.973389,296.230835 240.072418,295.134430 256.529816,294.967834 
	C257.000824,294.991974 257.006866,295.113861 257.004822,295.571106 
	C256.984070,330.937958 256.965363,365.847626 256.946655,400.757263 
	C256.946655,400.757263 256.950836,400.939911 256.981384,401.025940 
	C231.309143,400.236298 210.325012,380.048859 209.004410,352.368286 
	C208.912598,331.311340 208.950165,310.656006 208.944000,289.539612 
z"/>
<path fill="#FEBDA9" opacity="1.000000" stroke="none" 
	d="
M256.996643,294.931091 
	C256.998322,239.276199 257.004150,183.682175 257.018585,127.537048 
	C257.027191,126.985931 256.966034,126.809525 257.421265,126.880646 
	C270.115723,125.055389 282.516266,123.858559 294.553040,121.083832 
	C309.277222,117.689590 321.850525,109.438934 334.317413,100.912994 
	C336.150391,107.428719 337.658600,113.713730 339.098450,120.463165 
	C339.069244,148.952255 339.108368,176.976898 339.147461,205.001556 
	C339.098511,215.620361 339.129028,226.240295 338.980927,236.857712 
	C338.789093,250.607712 333.858246,262.480927 325.398254,273.330536 
	C320.014618,280.234802 313.110504,284.714661 305.133728,289.138184 
	C299.203766,290.854858 294.072449,293.319336 288.754761,293.825317 
	C278.226593,294.827057 267.595428,294.746796 257.006866,295.113831 
	C257.006866,295.113861 257.000824,294.991974 256.996643,294.931091 
z"/>
<path fill="#0D90BC" opacity="1.000000" stroke="none" 
	d="
M339.443085,205.162750 
	C339.108368,176.976898 339.069244,148.952255 339.391357,120.291763 
	C342.632904,113.236557 347.733459,110.775558 354.583191,110.955597 
	C360.693878,111.116211 366.814484,110.900780 372.930695,110.851288 
	C380.082458,110.921349 387.255249,110.687012 394.377747,111.180061 
	C398.400726,111.458542 402.340912,112.933449 406.689087,113.870468 
	C411.446228,117.000610 413.080048,121.271164 413.051941,126.622360 
	C412.930695,149.683762 413.023743,172.746216 412.965759,195.808105 
	C412.959595,198.270111 412.476959,200.730942 411.851898,203.747986 
	C407.727325,210.786819 402.181122,213.624512 394.632355,213.263245 
	C390.430817,213.062164 386.184967,213.786880 381.959106,214.094376 
	C373.011017,214.063080 364.062073,214.098206 355.115173,213.978531 
	C348.469269,213.889648 343.102112,211.338623 339.443085,205.162750 
z"/>
<path fill="#DF9280" opacity="1.000000" stroke="none" 
	d="
M257.004822,295.571075 
	C267.595428,294.746796 278.226593,294.827057 288.754761,293.825317 
	C294.072449,293.319336 299.203766,290.854858 304.773682,289.171753 
	C305.091156,309.724457 305.054260,330.381378 305.071228,351.502502 
	C303.979492,366.163635 299.244537,378.705994 288.383514,388.452881 
	C279.673676,396.269257 269.534180,400.531067 257.373199,400.823944 
	C256.965363,365.847626 256.984070,330.937958 257.004822,295.571075 
z"/>
<path fill="#04303E" opacity="1.000000" stroke="none" 
	d="
M381.971893,214.556458 
	C386.184967,213.786880 390.430817,213.062164 394.632355,213.263245 
	C402.181122,213.624512 407.727325,210.786819 411.798584,204.162445 
	C412.405365,205.772842 412.952118,207.523407 412.959503,209.276230 
	C413.026276,225.095993 413.395691,240.929291 412.873016,256.732056 
	C412.454498,269.384308 410.416168,281.812958 402.368713,292.397461 
	C394.875214,302.253357 384.781952,306.670654 372.694885,306.865143 
	C371.485931,306.884552 369.213898,305.141754 369.184723,304.164612 
	C368.912842,295.049042 369.023712,285.922089 369.023712,276.952881 
	C378.822052,274.238190 381.901215,269.335785 381.980011,256.483551 
	C382.064697,242.662399 381.989899,228.840256 381.971893,214.556458 
z"/>
<path fill="#F2F4F8" opacity="1.000000" stroke="none" 
	d="
M125.013489,420.284424 
	C140.449371,420.284546 155.387283,420.284546 170.665176,420.284546 
	C170.665176,430.402466 170.665176,440.092194 170.665176,450.017761 
	C151.112015,450.017761 131.755524,450.017761 112.122375,450.017761 
	C112.122375,440.152618 112.122375,430.572876 112.122375,420.284302 
	C116.311501,420.284302 120.413506,420.284302 125.013489,420.284424 
z"/>
<path fill="#000000" opacity="1.000000" stroke="none" 
	d="
M372.941254,110.483986 
	C366.814484,110.900780 360.693878,111.116211 354.583191,110.955597 
	C347.733459,110.775558 342.632904,113.236557 339.459686,119.827339 
	C337.658600,113.713730 336.150391,107.428719 334.288757,100.573006 
	C326.013062,81.495636 312.455658,69.101761 292.596344,65.665802 
	C280.968689,63.654045 268.839172,64.542892 256.472504,64.085831 
	C245.769440,64.360878 235.397903,63.751835 225.316269,65.183823 
	C203.683563,68.256508 188.964127,80.961578 180.041046,100.665443 
	C178.355255,106.829170 176.669464,112.992897 174.908279,119.577866 
	C171.126068,113.275299 165.568848,110.312874 157.800949,110.920486 
	C152.567551,111.329849 147.275238,110.985916 141.549927,110.919403 
	C144.667450,103.476006 147.488327,95.596313 151.950500,88.793144 
	C172.592957,57.321049 201.810669,38.817394 238.994263,32.996174 
	C244.666840,32.108112 250.415009,31.702892 256.534790,30.974985 
	C267.066193,32.328453 277.364899,33.046036 287.278778,35.390625 
	C306.575470,39.954212 323.590790,49.153748 338.814148,62.067345 
	C354.111908,75.044022 364.920868,90.975433 372.851074,109.130272 
	C372.977081,109.418709 372.922272,109.786125 372.941254,110.483986 
z"/>
<path fill="#08485E" opacity="1.000000" stroke="none" 
	d="
M180.369812,100.782791 
	C188.964127,80.961578 203.683563,68.256508 225.316269,65.183823 
	C235.397903,63.751835 245.769440,64.360878 256.492920,64.542603 
	C256.972870,85.630135 256.969452,106.219826 256.966034,126.809525 
	C256.966034,126.809525 257.027191,126.985931 257.025208,127.079254 
	C236.470078,126.637321 216.683716,122.781654 198.534348,112.739090 
	C192.310928,109.295486 186.628296,104.874565 180.369812,100.782791 
z"/>
<path fill="#05303E" opacity="1.000000" stroke="none" 
	d="
M257.421265,126.880646 
	C256.969452,106.219826 256.972870,85.630135 256.955841,64.583664 
	C268.839172,64.542892 280.968689,63.654045 292.596344,65.665802 
	C312.455658,69.101761 326.013062,81.495636 333.963989,100.342285 
	C321.850525,109.438934 309.277222,117.689590 294.553040,121.083832 
	C282.516266,123.858559 270.115723,125.055389 257.421265,126.880646 
z"/>
</svg>