<svg version="1.1" id="Layer_1" xmlns="http://www.w3.org/2000/svg" xmlns:xlink="http://www.w3.org/1999/xlink" x="0px" y="0px"
	 width="100%" viewBox="0 0 512 522" enable-background="new 0 0 512 522" xml:space="preserve">
<path fill="#000000" opacity="1.000000" stroke="none" 
	d="
M513.000000,8.000004 
	C513.000000,11.030593 513.000000,14.061185 512.653198,17.653770 
	C510.522705,16.804277 508.738983,15.392794 507.406036,14.337990 
	C505.041901,16.350863 502.945496,18.135794 501.118347,19.691469 
	C503.227325,21.845850 505.013702,23.670698 506.536743,25.226500 
	C508.748383,23.780231 510.874207,22.390116 513.000000,21.000000 
	C513.000000,57.020893 513.000000,93.041786 512.531372,129.533920 
	C489.818481,130.005157 467.574280,130.005157 444.993256,130.005157 
	C444.993256,123.886932 445.000946,118.574600 444.991638,113.262291 
	C444.972076,102.131912 434.549255,90.757263 422.441620,90.874214 
	C384.958710,91.236290 347.470062,91.006485 309.983643,91.006454 
	C308.075104,91.006454 306.166565,91.006454 303.588379,91.006454 
	C303.588379,70.485382 303.588379,50.840588 303.588379,30.589758 
	C292.581757,37.365047 282.065948,43.254852 272.204437,50.088779 
	C263.959778,55.802246 255.327850,55.496159 245.993439,54.540722 
	C245.993439,52.654854 245.886917,51.155624 246.010330,49.675568 
	C246.972961,38.131351 236.767319,28.496101 225.077057,28.776197 
	C195.937668,29.474363 166.760956,29.429354 137.619232,28.781513 
	C127.123451,28.548185 116.648903,37.409218 116.964088,49.798820 
	C117.184349,58.456749 117.006798,67.124794 117.006889,75.788322 
	C117.006935,80.719650 117.006897,85.650978 117.006897,91.006493 
	C107.828423,91.006493 99.357285,91.184860 90.896667,90.962494 
	C79.671822,90.667488 68.608147,101.438194 68.902489,113.092850 
	C69.314583,129.409866 69.016739,145.745071 69.004494,162.072479 
	C68.971733,205.721970 68.929321,249.371475 68.471474,293.011505 
	C64.226173,293.984161 59.994694,294.233215 56.649021,296.083771 
	C45.993893,301.977356 44.070518,313.851440 46.486717,322.750122 
	C49.747414,334.759003 56.020359,338.914032 68.932335,340.441040 
	C68.982605,344.043182 69.170593,347.197662 68.911598,350.314972 
	C68.807343,351.569702 68.039864,353.256256 67.036736,353.875397 
	C54.783150,361.437988 45.883774,371.862885 39.506470,384.957214 
	C33.710732,384.995026 28.375572,385.121613 23.048191,384.971710 
	C13.927042,384.715057 7.583724,389.010895 3.065516,396.610321 
	C2.682215,397.255005 1.702594,397.545135 1.000001,398.000000 
	C1.000000,272.645782 1.000000,147.291550 1.341569,21.358549 
	C3.662278,22.413000 5.641417,24.046217 7.604914,25.666527 
	C9.486570,23.920231 11.178740,22.349791 12.580557,21.048815 
	C10.179180,18.599781 8.023279,16.401094 6.003529,14.341261 
	C4.307674,15.242393 2.653837,16.121197 1.000000,17.000000 
	C1.000000,14.629442 1.000000,12.258885 1.354890,9.340446 
	C7.516281,13.175689 8.007436,13.042156 12.657779,6.018236 
	C11.728259,4.263180 10.864129,2.631590 10.000000,1.000000 
	C12.041667,1.000000 14.083333,1.000000 16.668594,1.332719 
	C16.268562,2.958836 15.324935,4.252234 14.824185,4.938594 
	C17.008696,7.431506 19.022772,9.729922 20.915873,11.890284 
	C22.879454,10.267215 24.605190,8.840746 26.079830,7.621827 
	C24.448784,4.974535 23.224392,2.987267 22.000000,1.000000 
	C178.020889,1.000000 334.041779,1.000000 490.622498,1.355762 
	C486.840759,7.259189 486.860565,7.365638 493.055969,11.789191 
	C495.021118,9.873805 496.987793,7.962182 498.789459,6.210953 
	C497.773468,4.313016 496.886749,2.656510 496.000000,1.000002 
	C498.370575,1.000000 500.741119,1.000000 503.662994,1.347229 
	C503.150696,3.116562 502.087067,4.538666 501.049011,5.926603 
	C503.107727,8.044683 505.009735,10.001488 506.798218,11.841535 
	C509.007507,10.473057 511.003754,9.236532 513.000000,8.000004 
M393.000854,32.674992 
	C393.000763,43.989841 393.402435,55.323643 392.869843,66.613373 
	C392.464508,75.205177 398.699127,78.806778 404.696869,78.890717 
	C424.327576,79.165474 443.970398,79.267075 463.596069,78.849548 
	C470.797119,78.696350 475.399384,74.034569 475.127655,66.824203 
	C474.664246,54.528454 475.011414,42.202572 474.995636,29.889380 
	C474.985901,22.307611 471.687408,19.010149 464.093811,19.004923 
	C444.625610,18.991526 425.157440,18.999870 405.689240,19.000597 
	C396.052124,19.000957 393.043243,22.021423 393.000854,32.674992 
M9.963470,231.248749 
	C11.451393,238.290665 20.326151,243.328018 28.534029,239.553726 
	C36.202282,236.027557 38.979996,231.081863 36.085720,221.175262 
	C34.064590,214.257324 25.741526,210.643768 17.963644,213.075516 
	C11.409004,215.124832 6.936710,224.663895 9.963470,231.248749 
M353.832977,30.935183 
	C355.081696,31.305359 356.313507,31.751831 357.582001,32.032795 
	C363.826538,33.415958 368.411224,30.884125 371.155853,24.588448 
	C373.127228,20.066460 371.172455,13.503199 366.957031,10.490707 
	C363.234283,7.830301 355.227692,8.502390 351.733673,11.768594 
	C345.882141,17.238585 346.400482,24.061729 353.832977,30.935183 
M81.869820,58.037586 
	C81.923233,57.542141 81.920792,57.032986 82.038567,56.553345 
	C83.421814,50.920063 81.310921,45.280476 76.933685,42.963276 
	C72.224136,40.470161 64.417336,41.570488 61.501431,45.138371 
	C58.150414,49.238659 58.059807,56.433067 61.303638,60.844017 
	C66.229660,67.542389 76.200867,66.516129 81.869820,58.037586 
M343.961761,65.542183 
	C344.918182,64.515121 345.874603,63.488052 346.831024,62.460987 
	C346.390015,62.726490 345.948975,62.991993 345.507965,63.257496 
	C343.722351,60.723820 341.936768,58.190147 340.107941,55.595127 
	C338.589630,57.025333 337.664276,57.962559 336.670044,58.819881 
	C334.596893,60.607574 334.377747,62.512199 336.674591,64.109924 
	C338.651520,65.485130 339.853333,70.274612 343.961761,65.542183 
M327.376465,67.820900 
	C328.476135,66.819389 329.565247,65.805992 330.677734,64.818939 
	C332.751709,62.978817 334.013672,61.281174 331.349609,58.692532 
	C328.779480,56.195164 326.778290,55.981701 324.542725,58.919716 
	C323.566193,60.203136 322.330292,61.289230 321.044128,62.641567 
	C323.030792,64.467369 324.852173,66.141273 327.376465,67.820900 
M328.938965,71.434494 
	C324.022369,67.544411 323.605896,73.426559 320.969025,74.674591 
	C326.811493,82.691017 328.625977,82.789093 333.149323,74.992378 
	C332.012970,74.060425 330.728699,73.007172 328.938965,71.434494 
M46.892021,180.407440 
	C44.112804,181.901306 41.333584,183.395172 38.435253,184.953049 
	C44.185505,192.806458 46.365467,192.541748 51.156029,183.836395 
	C50.031040,182.970413 48.710468,181.953888 46.892021,180.407440 
M343.430176,70.916122 
	C338.123596,68.797714 337.744476,74.195992 334.880432,75.913612 
	C340.597229,82.721718 341.810913,82.562813 346.941437,74.609245 
	C345.973297,73.567108 344.969543,72.486664 343.430176,70.916122 
M30.631866,177.798813 
	C38.592335,173.115387 38.795513,171.360336 31.979200,166.160675 
	C24.545635,171.762665 24.488953,172.089233 30.631866,177.798813 
M40.454685,174.027588 
	C41.556648,175.689438 42.658611,177.351273 44.210999,179.692383 
	C47.050468,176.280090 48.725281,174.267395 50.219242,172.472046 
	C48.426414,170.610214 46.399055,168.504837 43.531792,165.527237 
	C42.219219,168.469589 41.092800,170.994659 40.454685,174.027588 
M16.059477,18.432718 
	C12.105849,23.550945 18.788225,23.000042 19.237047,25.100878 
	C21.637207,23.136332 23.921478,21.266640 25.812754,19.718616 
	C24.056404,17.381144 22.631731,15.485091 20.666161,12.869172 
	C18.854914,15.109077 17.704962,16.531183 16.059477,18.432718 
M493.483093,25.630899 
	C495.371826,23.871109 497.260590,22.111319 499.508362,20.017015 
	C497.077606,17.694164 495.033020,15.740329 493.031860,13.828009 
	C486.749908,19.332968 486.749420,19.333467 492.156067,24.640202 
	C492.390656,24.870430 492.649872,25.075506 493.483093,25.630899 
M26.548557,184.040329 
	C28.169720,186.521835 29.790882,189.003342 31.680864,191.896332 
	C34.147423,189.309769 35.691391,187.690674 36.610928,186.726379 
	C34.526741,184.064529 32.829929,181.897415 30.467333,178.879974 
	C29.001724,180.843674 28.008156,182.174896 26.548557,184.040329 
z"/>
<path fill="#135487" opacity="1.000000" stroke="none" 
	d="
M39.970543,384.921631 
	C45.883774,371.862885 54.783150,361.437988 67.036736,353.875397 
	C68.039864,353.256256 68.807343,351.569702 68.911598,350.314972 
	C69.170593,347.197662 68.982605,344.043182 68.976791,339.974060 
	C68.949883,323.703308 68.920311,308.362152 68.890747,293.020966 
	C68.929321,249.371475 68.971733,205.721970 69.004494,162.072479 
	C69.016739,145.745071 69.314583,129.409866 68.902489,113.092850 
	C68.608147,101.438194 79.671822,90.667488 90.896667,90.962494 
	C99.357285,91.184860 107.828423,91.006493 117.006897,91.006493 
	C117.006897,85.650978 117.006935,80.719650 117.006889,75.788322 
	C117.006798,67.124794 117.184349,58.456749 116.964088,49.798820 
	C116.648903,37.409218 127.123451,28.548185 137.619232,28.781513 
	C166.760956,29.429354 195.937668,29.474363 225.077057,28.776197 
	C236.767319,28.496101 246.972961,38.131351 246.010330,49.675568 
	C245.886917,51.155624 245.993439,52.654854 245.993439,54.540722 
	C255.327850,55.496159 263.959778,55.802246 272.204437,50.088779 
	C282.065948,43.254852 292.581757,37.365047 303.588379,30.589758 
	C303.588379,50.840588 303.588379,70.485382 303.588379,91.006454 
	C306.166565,91.006454 308.075104,91.006454 309.983643,91.006454 
	C347.470062,91.006485 384.958710,91.236290 422.441620,90.874214 
	C434.549255,90.757263 444.972076,102.131912 444.991638,113.262291 
	C445.000946,118.574600 444.993256,123.886932 444.993256,130.005157 
	C467.574280,130.005157 489.818481,130.005157 512.531372,130.002579 
	C513.000000,155.020889 513.000000,180.041794 512.531372,205.528870 
	C489.844666,205.995071 467.626648,205.995071 445.071198,205.995071 
	C445.071198,235.471237 445.071198,264.216583 444.953674,293.421448 
	C444.920258,309.258484 445.004395,324.636078 445.054077,340.472778 
	C445.010986,342.262360 444.892242,343.602722 445.010712,344.921783 
	C446.232452,358.525085 434.457123,370.669037 420.008240,370.055237 
	C412.372650,369.730804 404.710358,370.035645 396.684143,369.870026 
	C395.325317,369.554352 394.342529,369.312714 393.359650,369.312103 
	C361.390533,369.292297 329.421448,369.290802 297.452362,369.316040 
	C296.345367,369.316895 295.238617,369.618530 293.747437,369.835999 
	C293.747437,378.863708 293.734680,387.667755 293.763092,396.471649 
	C293.766754,397.607910 293.983490,398.743500 294.096924,399.835327 
	C311.455811,401.721405 310.723053,411.462341 309.229279,425.279419 
	C290.613495,425.279419 271.913239,425.279419 252.907394,425.279419 
	C252.907394,435.593781 252.788528,445.241882 252.975906,454.884033 
	C253.036377,457.996429 252.200195,459.607910 248.489899,459.339203 
	C244.498459,459.681824 244.561859,457.398651 244.558121,454.879303 
	C244.533875,438.550354 245.124084,422.182098 244.200974,405.901123 
	C242.512146,376.115540 218.603546,354.122620 188.804367,353.935028 
	C184.008636,353.904816 179.212540,353.930786 174.421570,353.930786 
	C174.209045,352.249451 174.064087,351.102600 174.000748,349.499237 
	C174.087891,343.600403 174.093399,338.158081 174.100250,332.309235 
	C173.382904,328.079956 174.860504,325.276703 177.726593,322.725555 
	C183.798172,317.321167 189.245102,311.087372 189.826828,302.686981 
	C191.237320,282.318756 192.250122,261.914520 192.952011,241.508560 
	C193.438354,227.369049 186.668945,216.541046 175.335037,208.670593 
	C163.953781,200.767288 151.128632,198.399902 137.417542,199.957855 
	C111.153221,202.942215 94.922371,220.151337 95.208801,245.946625 
	C95.383614,261.689728 97.334641,277.405731 97.854538,293.154816 
	C98.250717,305.156281 101.919388,315.290619 111.404167,322.931885 
	C114.272255,325.242493 115.546814,328.024384 114.816467,332.148132 
	C114.799469,338.405182 114.865944,344.174286 114.829292,350.346283 
	C115.039001,353.532196 113.520569,353.971954 111.114464,353.978943 
	C104.629730,353.997742 98.026688,353.528381 91.681870,354.556519 
	C63.319420,359.152527 44.275311,381.866180 44.181606,410.651398 
	C44.129627,426.620422 44.172283,442.589813 44.172283,458.448730 
	C42.541660,459.048920 41.216560,459.536682 39.503967,460.013306 
	C38.084713,459.957520 37.052952,459.912811 36.015427,459.409729 
	C35.979694,449.896942 35.949730,440.842468 35.933014,431.332794 
	C36.250366,415.762512 34.474258,400.449951 40.215393,385.845612 
	C40.309334,385.606628 40.059795,385.232635 39.970543,384.921631 
M270.664307,95.564774 
	C278.535248,100.654846 286.406219,105.744926 294.919556,111.250435 
	C294.919556,104.847343 294.919556,99.906235 294.982361,94.034088 
	C294.982361,78.641441 294.982361,63.248798 294.982361,47.197334 
	C287.509094,51.626850 280.525360,55.564331 273.806000,59.910606 
	C272.374878,60.836277 271.159393,63.231327 271.117035,64.980255 
	C270.875702,74.944565 271.019836,84.918205 270.664307,95.564774 
M235.857361,112.841949 
	C236.198181,106.889259 236.539017,100.936577 236.972061,94.052704 
	C236.983475,79.397835 237.025726,64.742889 236.992493,50.088116 
	C236.977310,43.392941 232.717865,38.054523 227.047745,38.037766 
	C197.071808,37.949184 167.095383,38.034321 137.119400,37.956703 
	C132.237274,37.944061 126.682716,43.031292 126.838066,48.372608 
	C127.288162,63.847515 127.018433,79.343353 126.296669,95.319321 
	C126.627411,100.888168 126.958153,106.457008 127.434090,112.666595 
	C129.743378,116.910782 133.511215,118.638641 138.135956,118.643051 
	C167.174149,118.670769 196.212448,118.679993 225.250580,118.626892 
	C229.400162,118.619301 233.105942,117.391045 235.857361,112.841949 
M419.082123,138.798035 
	C413.824768,138.798035 408.567444,138.798035 402.993286,138.798035 
	C402.993286,144.012436 402.774384,148.661667 403.066620,153.278564 
	C403.277924,156.616455 402.098297,158.831741 399.611572,160.941620 
	C394.120605,165.600479 388.855804,170.525909 382.493896,176.246124 
	C390.152557,176.246124 396.390778,176.246124 403.088501,176.246124 
	C403.088501,183.592224 403.088501,190.502869 403.088501,197.624695 
	C409.009064,197.624695 414.461365,197.624695 420.845612,197.807709 
	C427.597107,197.520874 434.348572,197.234039 442.023926,196.990051 
	C462.583405,196.990051 483.142883,196.990051 503.666962,196.990051 
	C503.666962,177.264114 503.666962,158.365829 503.666962,139.083984 
	C482.557892,139.083984 461.785278,139.083984 440.089813,138.882614 
	C433.393219,138.921860 426.696594,138.961105 419.082123,138.798035 
M419.044739,206.024033 
	C411.093567,206.024033 403.142426,206.024033 394.611755,206.024033 
	C394.611755,198.649200 394.611755,191.765396 394.611755,184.415710 
	C383.448029,184.415710 372.860748,184.415710 362.273499,184.415710 
	C361.998566,183.976822 361.723663,183.537933 361.448730,183.099030 
	C362.762482,182.172913 364.177521,181.361176 365.373535,180.302109 
	C373.104218,173.456696 380.560760,166.278198 388.571747,159.781799 
	C393.269379,155.972336 395.547241,151.927460 394.879425,145.800125 
	C394.344086,140.888351 394.771210,135.871674 394.771210,130.062515 
	C403.465485,130.062515 411.741516,130.062515 420.931946,130.269806 
	C425.869751,130.269806 430.807526,130.269806 436.201965,130.269806 
	C436.201965,125.733994 436.206085,121.772186 436.201233,117.810394 
	C436.185089,104.598129 430.945801,99.316338 417.783630,99.312271 
	C381.634796,99.301094 345.485962,99.308289 309.337128,99.308205 
	C307.579132,99.308205 305.821167,99.308205 303.885559,99.308205 
	C303.885559,104.363342 303.885559,108.662903 303.676727,113.784172 
	C303.676727,117.475250 303.676727,121.166328 303.676727,125.645714 
	C295.096313,120.712883 287.546814,116.372711 279.619446,111.462883 
	C269.511688,104.287315 258.942719,98.859917 245.943771,102.714737 
	C245.642227,106.053886 245.328674,109.525986 244.624619,113.571037 
	C240.762833,122.740494 233.823624,126.946571 223.914261,126.912804 
	C196.126877,126.818115 168.337570,126.720032 140.551956,126.961342 
	C129.804306,127.054680 122.385674,122.791916 118.228020,111.933311 
	C117.994087,107.853981 117.760147,103.774643 117.531395,99.785622 
	C116.587776,99.565979 116.113091,99.361229 115.637421,99.358932 
	C108.645088,99.325081 101.652382,99.274544 94.660255,99.314690 
	C82.974289,99.381790 77.215652,105.172440 77.213387,116.918358 
	C77.198792,192.506012 77.203560,268.093689 77.222260,343.681335 
	C77.222694,345.419647 77.461823,347.157867 77.557777,348.463074 
	C87.391159,347.200073 96.651413,346.010712 106.226967,344.780823 
	C106.226967,342.342224 106.014359,339.837708 106.271156,337.382324 
	C106.807899,332.250244 105.321770,328.331970 101.394707,324.648407 
	C95.313293,318.944092 91.472801,311.689484 90.761574,303.204071 
	C89.497597,288.123901 88.302765,273.035278 87.335022,257.933777 
	C86.457451,244.239243 86.582001,230.622131 93.822281,217.505676 
	C95.468597,215.214615 96.892220,212.716949 98.796051,210.664810 
	C115.881065,192.248672 137.147308,187.935638 160.799057,193.139282 
	C184.724609,198.403152 201.051208,217.137405 201.503830,241.514984 
	C201.932281,264.590912 201.325012,287.758789 196.154922,311.075958 
	C193.358597,315.563263 191.388992,320.989868 187.587845,324.335480 
	C180.444870,330.622437 182.906662,337.944031 182.785431,345.437012 
	C184.212494,345.546661 185.027298,345.689026 185.835846,345.659576 
	C201.949295,345.072662 216.315704,349.737640 229.093338,359.619781 
	C230.585938,360.774139 233.092590,361.008209 235.129868,361.010559 
	C296.269318,361.080383 357.408844,361.072693 418.548370,361.062592 
	C430.758972,361.060577 436.181641,355.629974 436.184875,343.407318 
	C436.196533,299.426849 436.189758,255.446381 436.189972,211.465912 
	C436.190002,209.724564 436.190002,207.983200 436.190002,206.162994 
	C430.259064,206.162994 425.113983,206.162994 419.044739,206.024033 
M285.194153,383.503967 
	C285.194153,378.917297 285.194153,374.330658 285.194153,369.712189 
	C269.481812,369.712189 254.542999,369.712189 240.636337,369.712189 
	C244.916626,379.733856 249.186218,389.730530 253.700607,400.300323 
	C263.337830,400.300323 274.051056,400.300323 285.194427,400.300323 
	C285.194427,394.777924 285.194427,389.639801 285.194153,383.503967 
M267.504883,416.995728 
	C278.738068,416.995728 289.971222,416.995728 301.140717,416.995728 
	C301.578461,409.708984 300.864441,408.907227 294.520172,408.887634 
	C288.023315,408.867554 281.526337,408.882690 275.029419,408.882568 
	C267.758820,408.882446 260.488220,408.882538 253.240555,408.882538 
	C253.240555,411.925415 253.240555,414.316772 253.240555,416.995728 
	C257.888458,416.995728 262.198334,416.995728 267.504883,416.995728 
M246.047394,65.823006 
	C246.047394,74.733543 246.047394,83.644073 246.047394,92.561028 
	C251.716293,92.561028 256.737427,92.561028 261.650421,92.561028 
	C261.650421,82.883667 261.650421,73.655594 261.650421,63.607670 
	C256.245361,64.063225 251.242111,64.484924 246.047394,65.823006 
z"/>
<path fill="#C1C1C2" opacity="1.000000" stroke="none" 
	d="
M248.939301,459.431641 
	C252.200195,459.607910 253.036377,457.996429 252.975906,454.884033 
	C252.788528,445.241882 252.907394,435.593781 252.907394,425.279419 
	C271.913239,425.279419 290.613495,425.279419 309.229279,425.279419 
	C310.723053,411.462341 311.455811,401.721405 294.096924,399.835327 
	C293.983490,398.743500 293.766754,397.607910 293.763092,396.471649 
	C293.734680,387.667755 293.747437,378.863708 293.747437,369.835999 
	C295.238617,369.618530 296.345367,369.316895 297.452362,369.316040 
	C329.421448,369.290802 361.390533,369.292297 393.359650,369.312103 
	C394.342529,369.312714 395.325317,369.554352 396.763489,370.204559 
	C399.246521,373.165863 401.107788,375.771393 403.334229,378.014465 
	C409.175720,383.899628 416.889740,384.830444 424.527039,384.913605 
	C446.608978,385.154144 468.695557,384.925537 490.779541,385.035767 
	C499.292358,385.078247 506.164215,388.247681 510.120117,396.362579 
	C510.650726,397.451050 512.019409,398.130920 513.000000,399.000000 
	C513.000000,404.688049 513.000000,410.376068 512.703552,416.224548 
	C506.568024,429.157654 495.970032,432.527985 482.878906,432.106293 
	C468.956482,431.657776 455.007568,432.031982 440.863556,431.684875 
	C438.882538,424.302979 438.356537,416.630676 435.094055,410.388672 
	C426.186768,393.346771 410.770630,388.051147 392.304382,388.954041 
	C373.174103,389.889404 356.125336,403.781769 354.125458,422.810272 
	C352.565948,437.649109 353.222473,452.736298 353.169769,467.714111 
	C353.104004,486.391632 363.014038,501.537018 379.550598,507.380188 
	C396.142548,513.242981 417.845093,510.917694 430.108551,496.231964 
	C432.537811,493.322845 434.615265,490.119995 437.021210,487.390259 
	C443.144165,498.097870 440.930817,512.547729 430.938782,519.637390 
	C429.758209,520.475037 428.970062,521.865723 428.000000,523.000000 
	C347.312439,523.000000 266.624878,523.000000 185.437042,522.655640 
	C178.064285,517.474854 172.155609,511.879639 171.529327,502.851624 
	C171.283798,499.312256 171.855774,495.716156 172.513519,492.088013 
	C186.969269,492.020233 200.966949,492.018860 214.964615,491.998352 
	C234.091949,491.970367 248.060837,478.573273 248.939301,459.431641 
M288.195557,475.666351 
	C289.468384,477.458923 290.741211,479.251526 291.764435,480.692566 
	C294.047943,478.590820 295.943390,476.846222 297.948090,475.001099 
	C296.527557,473.368958 295.241486,471.891327 292.659271,468.924500 
	C290.989624,471.453918 289.793274,473.266388 288.195557,475.666351 
M279.048462,480.258911 
	C280.933167,479.171753 282.817841,478.084595 284.475861,477.128174 
	C282.352509,474.404053 280.795837,472.406921 279.095886,470.225983 
	C277.118164,472.299530 275.784485,473.697845 273.216522,476.390259 
	C275.175049,477.649780 276.846039,478.724335 279.048462,480.258911 
M289.031372,463.455353 
	C290.426636,464.790222 291.821869,466.125092 293.107117,467.354736 
	C295.160675,465.771698 296.809540,464.500610 298.210297,463.420807 
	C296.022675,460.777344 294.462860,458.892517 292.114868,456.055267 
	C290.575256,459.008759 289.557343,460.961456 289.031372,463.455353 
M279.651703,457.416412 
	C277.905365,459.080566 276.159027,460.744690 274.091827,462.714630 
	C275.798706,464.598877 277.172577,466.115479 278.642151,467.737732 
	C281.100616,465.523682 282.886292,463.915558 285.208008,461.824677 
	C283.219574,460.053314 281.778107,458.769196 279.651703,457.416412 
z"/>
<path fill="#000000" opacity="1.000000" stroke="none" 
	d="
M513.000000,398.531342 
	C512.019409,398.130920 510.650726,397.451050 510.120117,396.362579 
	C506.164215,388.247681 499.292358,385.078247 490.779541,385.035767 
	C468.695557,384.925537 446.608978,385.154144 424.527039,384.913605 
	C416.889740,384.830444 409.175720,383.899628 403.334229,378.014465 
	C401.107788,375.771393 399.246521,373.165863 397.139465,370.390961 
	C404.710358,370.035645 412.372650,369.730804 420.008240,370.055237 
	C434.457123,370.669037 446.232452,358.525085 445.010712,344.921783 
	C444.892242,343.602722 445.010986,342.262360 445.446899,340.465393 
	C456.804718,337.850098 464.109772,332.537018 466.351105,320.560608 
	C468.677826,308.128113 459.862915,293.040955 445.071198,292.961945 
	C445.071198,264.216583 445.071198,235.471237 445.071198,205.995071 
	C467.626648,205.995071 489.844666,205.995071 512.531372,205.997528 
	C513.000000,270.020905 513.000000,334.041779 513.000000,398.531342 
M493.564392,343.001068 
	C486.006195,343.234100 481.935150,347.575043 482.001404,355.330658 
	C482.050842,361.118347 487.972198,366.887604 493.933594,366.956299 
	C500.019379,367.026459 505.818939,361.227295 505.996979,354.893738 
	C506.188324,348.088562 501.411926,343.182800 493.564392,343.001068 
M497.526031,222.023727 
	C492.082153,217.181442 492.227203,224.751556 490.385712,225.025528 
	C492.191040,227.228790 494.142914,229.610855 496.064941,231.956543 
	C502.166168,226.941116 502.181915,226.858627 497.526031,222.023727 
M487.461273,239.049850 
	C481.087067,232.422958 480.357788,232.440857 476.114410,239.467819 
	C477.886383,241.328033 479.685211,243.216446 482.132568,245.785645 
	C484.208008,243.547836 486.006775,241.608337 487.461273,239.049850 
M476.985901,227.459000 
	C478.175812,229.207504 479.365723,230.956009 480.555634,232.704514 
	C480.872131,232.212784 481.188629,231.721039 481.505157,231.229294 
	C483.639832,229.404617 485.774506,227.579941 487.616882,226.005127 
	C485.711121,223.712601 484.043030,221.706009 481.664948,218.845322 
	C479.608765,222.078979 478.064880,224.507019 476.985901,227.459000 
M498.506165,241.996750 
	C499.387115,240.940430 500.268097,239.884094 501.090332,238.898163 
	C495.346008,232.479813 495.346008,232.479813 489.248016,239.663971 
	C491.009552,241.487350 492.788910,243.329178 494.751007,245.360168 
	C496.086334,244.185654 497.043884,243.343430 498.506165,241.996750 
z"/>
<path fill="#000000" opacity="1.000000" stroke="none" 
	d="
M441.070221,432.046936 
	C455.007568,432.031982 468.956482,431.657776 482.878906,432.106293 
	C495.970032,432.527985 506.568024,429.157654 512.703552,416.692505 
	C513.000000,452.219299 513.000000,487.438599 513.000000,523.000000 
	C503.315125,523.000000 493.626221,523.000000 483.164062,522.718262 
	C483.396210,521.645813 484.316864,520.702881 485.420532,520.088684 
	C493.198456,515.760559 496.957336,508.247101 496.668396,500.300964 
	C496.074127,483.959473 484.028992,473.223267 465.626190,477.922577 
	C454.835083,480.678162 450.008087,488.919220 449.553436,499.232452 
	C449.195892,507.343018 452.031769,514.751404 459.690521,519.357300 
	C461.036926,520.166992 461.908936,521.765686 463.000000,523.000000 
	C451.645782,523.000000 440.291534,523.000000 428.468658,523.000000 
	C428.970062,521.865723 429.758209,520.475037 430.938782,519.637390 
	C440.930817,512.547729 443.144165,498.097870 437.189026,487.049255 
	C438.456543,479.678619 440.454559,473.026794 440.824554,466.285645 
	C441.449249,454.902557 441.042969,443.462860 441.070221,432.046936 
M493.973511,461.481537 
	C489.073883,456.645874 488.585083,456.723907 483.422607,464.117798 
	C484.939270,465.276917 486.494568,466.951813 488.414703,467.761566 
	C489.687347,468.298218 491.895020,468.129822 492.945129,467.319427 
	C494.435333,466.169495 497.625488,464.763885 493.973511,461.481537 
M506.540314,453.959259 
	C510.122406,449.866211 509.794830,448.997833 502.645264,444.015381 
	C501.605927,444.971985 500.103760,445.781799 499.553772,447.015900 
	C498.959839,448.348602 498.619537,451.003937 499.283691,451.460571 
	C501.264313,452.822357 501.928741,457.910492 506.540314,453.959259 
M491.519165,455.033081 
	C493.499451,453.820709 495.479706,452.608307 497.459961,451.395905 
	C496.864349,450.906891 496.268738,450.417847 495.673126,449.928833 
	C493.876312,448.106354 492.079498,446.283875 490.515411,444.697479 
	C488.340485,446.586914 486.217834,448.430908 483.392731,450.885193 
	C486.252716,452.624634 488.621155,454.065125 491.519165,455.033081 
M498.541504,464.955994 
	C499.681610,466.572876 500.821686,468.189728 501.582764,469.269043 
	C504.884857,466.694733 507.137268,464.938782 509.591736,463.025269 
	C507.296356,460.839020 505.676361,459.296051 503.652405,457.368347 
	C501.562500,460.041351 499.878174,462.195648 498.541504,464.955994 
z"/>
<path fill="#E6E6E6" opacity="1.000000" stroke="none" 
	d="
M172.055435,492.145935 
	C171.855774,495.716156 171.283798,499.312256 171.529327,502.851624 
	C172.155609,511.879639 178.064285,517.474854 184.968384,522.655640 
	C143.312439,523.000000 101.624878,523.000000 59.776840,522.714417 
	C57.686035,521.063293 55.630550,519.843079 53.846684,518.307434 
	C45.360813,511.002075 42.616734,495.714020 51.455475,484.785461 
	C59.856808,490.611298 68.802521,492.234802 78.642387,492.135071 
	C109.776840,491.819550 140.917297,492.097504 172.055435,492.145935 
z"/>
<path fill="#000000" opacity="1.000000" stroke="none" 
	d="
M51.110367,484.690277 
	C42.616734,495.714020 45.360813,511.002075 53.846684,518.307434 
	C55.630550,519.843079 57.686035,521.063293 59.308182,522.714417 
	C39.718697,523.000000 20.437393,523.000000 1.000000,523.000000 
	C1.000000,488.312592 1.000000,453.624939 1.287135,418.160736 
	C2.029296,417.832153 2.679035,418.197357 2.909997,418.740601 
	C6.092404,426.226013 11.580692,430.479736 19.803877,431.029846 
	C24.860207,431.368103 29.912693,431.763763 34.979187,432.593506 
	C34.994896,439.836212 34.918118,446.620575 35.048409,453.400970 
	C35.089935,455.562103 35.681381,457.712677 36.021194,459.868103 
	C37.052952,459.912811 38.084713,459.957520 39.557182,460.445648 
	C39.975632,470.562622 44.307285,478.203400 51.110367,484.690277 
M20.309986,500.714600 
	C12.651825,493.370239 12.476051,493.364197 8.205245,500.300385 
	C13.583227,506.724915 13.580951,506.722015 20.087383,501.628845 
	C20.327818,501.440643 20.700417,501.421265 21.427702,501.968262 
	C26.916151,507.551117 28.036039,507.329559 32.789116,499.720520 
	C27.627937,493.496552 27.550383,493.490295 22.131258,499.428558 
	C21.694344,499.907288 21.380758,500.498596 20.309986,500.714600 
M31.944067,489.481232 
	C33.553024,484.542084 27.991415,484.355408 26.675678,480.672516 
	C24.612875,482.882233 22.944218,484.669708 21.616388,486.092102 
	C23.845522,488.398682 25.998755,490.626740 28.941891,493.672119 
	C29.782597,492.438385 30.619406,491.210388 31.944067,489.481232 
M12.004644,492.515533 
	C14.707004,490.739349 17.409363,488.963165 20.039326,487.234589 
	C17.875109,484.746490 16.281919,482.914886 15.424202,481.928833 
	C12.579414,484.111664 10.112429,486.004608 6.849322,488.508453 
	C8.824961,490.018311 10.148334,491.029663 12.004644,492.515533 
z"/>
<path fill="#C2C2C2" opacity="1.000000" stroke="none" 
	d="
M463.468384,523.000000 
	C461.908936,521.765686 461.036926,520.166992 459.690521,519.357300 
	C452.031769,514.751404 449.195892,507.343018 449.553436,499.232452 
	C450.008087,488.919220 454.835083,480.678162 465.626190,477.922577 
	C484.028992,473.223267 496.074127,483.959473 496.668396,500.300964 
	C496.957336,508.247101 493.198456,515.760559 485.420532,520.088684 
	C484.316864,520.702881 483.396210,521.645813 482.695404,522.718262 
	C476.645599,523.000000 470.291199,523.000000 463.468384,523.000000 
z"/>
<path fill="#E6E6E6" opacity="1.000000" stroke="none" 
	d="
M34.966908,432.133636 
	C29.912693,431.763763 24.860207,431.368103 19.803877,431.029846 
	C11.580692,430.479736 6.092404,426.226013 2.909997,418.740601 
	C2.679035,418.197357 2.029296,417.832153 1.287135,417.692078 
	C1.000000,411.645599 1.000000,405.291199 1.000001,398.468384 
	C1.702594,397.545135 2.682215,397.255005 3.065516,396.610321 
	C7.583724,389.010895 13.927042,384.715057 23.048191,384.971710 
	C28.375572,385.121613 33.710732,384.995026 39.506470,384.957214 
	C40.059795,385.232635 40.309334,385.606628 40.215393,385.845612 
	C34.474258,400.449951 36.250366,415.762512 35.685642,431.393829 
	C35.272316,431.984619 35.119610,432.059143 34.966908,432.133636 
z"/>
<path fill="#0F5187" opacity="1.000000" stroke="none" 
	d="
M9.508951,1.000000 
	C10.864129,2.631590 11.728259,4.263180 12.657779,6.018236 
	C8.007436,13.042156 7.516281,13.175689 1.354890,8.896283 
	C1.000000,6.411248 1.000000,3.822496 1.000000,1.000000 
	C3.670323,1.000000 6.344113,1.000000 9.508951,1.000000 
z"/>
<path fill="#105286" opacity="1.000000" stroke="none" 
	d="
M513.000000,7.502100 
	C511.003754,9.236532 509.007507,10.473057 506.798218,11.841535 
	C505.009735,10.001488 503.107727,8.044683 501.049011,5.926603 
	C502.087067,4.538666 503.150696,3.116562 504.107147,1.347229 
	C506.904022,1.000000 509.808075,1.000000 513.000000,1.000000 
	C513.000000,2.997172 513.000000,5.000681 513.000000,7.502100 
z"/>
<path fill="#105286" opacity="1.000000" stroke="none" 
	d="
M513.000000,20.625000 
	C510.874207,22.390116 508.748383,23.780231 506.536743,25.226500 
	C505.013702,23.670698 503.227325,21.845850 501.118347,19.691469 
	C502.945496,18.135794 505.041901,16.350863 507.406036,14.337990 
	C508.738983,15.392794 510.522705,16.804277 512.653198,18.107880 
	C513.000000,18.750000 513.000000,19.500000 513.000000,20.625000 
z"/>
<path fill="#0F5285" opacity="1.000000" stroke="none" 
	d="
M1.000000,17.399996 
	C2.653837,16.121197 4.307674,15.242393 6.003529,14.341261 
	C8.023279,16.401094 10.179180,18.599781 12.580557,21.048815 
	C11.178740,22.349791 9.486570,23.920231 7.604914,25.666527 
	C5.641417,24.046217 3.662278,22.413000 1.341569,20.889893 
	C1.000000,19.933331 1.000000,18.866661 1.000000,17.399996 
z"/>
<path fill="#0F5387" opacity="1.000000" stroke="none" 
	d="
M21.583334,1.000000 
	C23.224392,2.987267 24.448784,4.974535 26.079830,7.621827 
	C24.605190,8.840746 22.879454,10.267215 20.915873,11.890284 
	C19.022772,9.729922 17.008696,7.431506 14.824185,4.938594 
	C15.324935,4.252234 16.268562,2.958836 17.106094,1.332719 
	C18.388889,1.000000 19.777779,1.000000 21.583334,1.000000 
z"/>
<path fill="#0F5288" opacity="1.000000" stroke="none" 
	d="
M495.583344,1.000002 
	C496.886749,2.656510 497.773468,4.313016 498.789459,6.210953 
	C496.987793,7.962182 495.021118,9.873805 493.055969,11.789191 
	C486.860565,7.365638 486.840759,7.259189 491.091125,1.355762 
	C492.388885,1.000000 493.777802,1.000000 495.583344,1.000002 
z"/>
<path fill="#115386" opacity="1.000000" stroke="none" 
	d="
M393.000824,32.204105 
	C393.043243,22.021423 396.052124,19.000957 405.689240,19.000597 
	C425.157440,18.999870 444.625610,18.991526 464.093811,19.004923 
	C471.687408,19.010149 474.985901,22.307611 474.995636,29.889380 
	C475.011414,42.202572 474.664246,54.528454 475.127655,66.824203 
	C475.399384,74.034569 470.797119,78.696350 463.596069,78.849548 
	C443.970398,79.267075 424.327576,79.165474 404.696869,78.890717 
	C398.699127,78.806778 392.464508,75.205177 392.869843,66.613373 
	C393.402435,55.323643 393.000763,43.989841 393.000824,32.204105 
M406.385284,30.691290 
	C414.225861,36.323875 421.922150,42.179073 430.014069,47.423859 
	C431.906342,48.650330 435.863617,48.901188 437.632629,47.730278 
	C445.937317,42.233326 453.810211,36.083946 462.504456,30.215317 
	C463.505646,30.984831 464.506836,31.754345 465.672943,32.650600 
	C466.663422,28.199579 464.125153,27.979574 461.176147,27.985060 
	C442.783325,28.019278 424.390442,28.002735 405.997589,28.028431 
	C405.606903,28.028976 405.216675,28.333891 404.860870,28.482361 
	C405.408661,29.090773 405.840424,29.570326 406.385284,30.691290 
M463.325500,39.993156 
	C457.357269,44.205536 451.369904,48.391109 445.425293,52.636551 
	C436.445343,59.049767 431.858063,59.021523 422.896973,52.778862 
	C416.677795,48.446342 410.297760,44.344719 403.348724,39.860928 
	C402.899658,40.440281 402.078735,41.008858 402.061554,41.600739 
	C401.945862,45.590950 402.000244,49.586102 402.000061,53.579655 
	C401.999817,58.649452 402.000000,63.719246 402.000000,68.632645 
	C423.809326,68.632645 444.695892,68.632645 465.997681,68.632645 
	C465.997681,59.315033 466.025757,50.358009 465.914001,41.402725 
	C465.908478,40.959934 464.684692,40.532345 463.325500,39.993156 
z"/>
<path fill="#E6E6E6" opacity="1.000000" stroke="none" 
	d="
M68.471466,293.011505 
	C68.920311,308.362152 68.949883,323.703308 68.934998,339.511475 
	C56.020359,338.914032 49.747414,334.759003 46.486717,322.750122 
	C44.070518,313.851440 45.993893,301.977356 56.649021,296.083771 
	C59.994694,294.233215 64.226173,293.984161 68.471466,293.011505 
z"/>
<path fill="#105386" opacity="1.000000" stroke="none" 
	d="
M9.877681,230.851700 
	C6.936710,224.663895 11.409004,215.124832 17.963644,213.075516 
	C25.741526,210.643768 34.064590,214.257324 36.085720,221.175262 
	C38.979996,231.081863 36.202282,236.027557 28.534029,239.553726 
	C20.326151,243.328018 11.451393,238.290665 9.877681,230.851700 
M25.096081,230.876480 
	C28.531492,228.476974 28.986979,225.240555 25.829224,222.877579 
	C24.641615,221.988892 21.336803,223.646301 19.162764,224.543930 
	C18.565792,224.790405 18.057117,227.162476 18.377853,227.404037 
	C20.212563,228.785782 22.309744,229.819000 25.096081,230.876480 
z"/>
<path fill="#105286" opacity="1.000000" stroke="none" 
	d="
M353.497711,30.755707 
	C346.400482,24.061729 345.882141,17.238585 351.733673,11.768594 
	C355.227692,8.502390 363.234283,7.830301 366.957031,10.490707 
	C371.172455,13.503199 373.127228,20.066460 371.155853,24.588448 
	C368.411224,30.884125 363.826538,33.415958 357.582001,32.032795 
	C356.313507,31.751831 355.081696,31.305359 353.497711,30.755707 
z"/>
<path fill="#105286" opacity="1.000000" stroke="none" 
	d="
M81.719254,58.397934 
	C76.200867,66.516129 66.229660,67.542389 61.303638,60.844017 
	C58.059807,56.433067 58.150414,49.238659 61.501431,45.138371 
	C64.417336,41.570488 72.224136,40.470161 76.933685,42.963276 
	C81.310921,45.280476 83.421814,50.920063 82.038567,56.553345 
	C81.920792,57.032986 81.923233,57.542141 81.719254,58.397934 
z"/>
<path fill="#0F5287" opacity="1.000000" stroke="none" 
	d="
M343.713196,65.784882 
	C339.853333,70.274612 338.651520,65.485130 336.674591,64.109924 
	C334.377747,62.512199 334.596893,60.607574 336.670044,58.819881 
	C337.664276,57.962559 338.589630,57.025333 340.107941,55.595127 
	C341.936768,58.190147 343.722351,60.723820 345.507965,63.257496 
	C345.948975,62.991993 346.390015,62.726490 346.831024,62.460987 
	C345.874603,63.488052 344.918182,64.515121 343.713196,65.784882 
z"/>
<path fill="#0F5585" opacity="1.000000" stroke="none" 
	d="
M327.025024,67.818039 
	C324.852173,66.141273 323.030792,64.467369 321.044128,62.641567 
	C322.330292,61.289230 323.566193,60.203136 324.542725,58.919716 
	C326.778290,55.981701 328.779480,56.195164 331.349609,58.692532 
	C334.013672,61.281174 332.751709,62.978817 330.677734,64.818939 
	C329.565247,65.805992 328.476135,66.819389 327.025024,67.818039 
z"/>
<path fill="#105286" opacity="1.000000" stroke="none" 
	d="
M329.191711,71.694214 
	C330.728699,73.007172 332.012970,74.060425 333.149323,74.992378 
	C328.625977,82.789093 326.811493,82.691017 320.969025,74.674591 
	C323.605896,73.426559 324.022369,67.544411 329.191711,71.694214 
z"/>
<path fill="#0E5186" opacity="1.000000" stroke="none" 
	d="
M47.140961,180.672394 
	C48.710468,181.953888 50.031040,182.970413 51.156029,183.836395 
	C46.365467,192.541748 44.185505,192.806458 38.435253,184.953049 
	C41.333584,183.395172 44.112804,181.901306 47.140961,180.672394 
z"/>
<path fill="#0E5785" opacity="1.000000" stroke="none" 
	d="
M343.697998,71.161163 
	C344.969543,72.486664 345.973297,73.567108 346.941437,74.609245 
	C341.810913,82.562813 340.597229,82.721718 334.880432,75.913612 
	C337.744476,74.195992 338.123596,68.797714 343.697998,71.161163 
z"/>
<path fill="#0F5186" opacity="1.000000" stroke="none" 
	d="
M30.326904,177.617783 
	C24.488953,172.089233 24.545635,171.762665 31.979200,166.160675 
	C38.795513,171.360336 38.592335,173.115387 30.326904,177.617783 
z"/>
<path fill="#0F5387" opacity="1.000000" stroke="none" 
	d="
M40.210533,173.773651 
	C41.092800,170.994659 42.219219,168.469589 43.531792,165.527237 
	C46.399055,168.504837 48.426414,170.610214 50.219242,172.472046 
	C48.725281,174.267395 47.050468,176.280090 44.210999,179.692383 
	C42.658611,177.351273 41.556648,175.689438 40.210533,173.773651 
z"/>
<path fill="#105286" opacity="1.000000" stroke="none" 
	d="
M16.307243,18.193003 
	C17.704962,16.531183 18.854914,15.109077 20.666161,12.869172 
	C22.631731,15.485091 24.056404,17.381144 25.812754,19.718616 
	C23.921478,21.266640 21.637207,23.136332 19.237047,25.100878 
	C18.788225,23.000042 12.105849,23.550945 16.307243,18.193003 
z"/>
<path fill="#105286" opacity="1.000000" stroke="none" 
	d="
M493.190369,25.461594 
	C492.649872,25.075506 492.390656,24.870430 492.156067,24.640202 
	C486.749420,19.333467 486.749908,19.332968 493.031860,13.828009 
	C495.033020,15.740329 497.077606,17.694164 499.508362,20.017015 
	C497.260590,22.111319 495.371826,23.871109 493.190369,25.461594 
z"/>
<path fill="#105286" opacity="1.000000" stroke="none" 
	d="
M26.781572,183.773224 
	C28.008156,182.174896 29.001724,180.843674 30.467333,178.879974 
	C32.829929,181.897415 34.526741,184.064529 36.610928,186.726379 
	C35.691391,187.690674 34.147423,189.309769 31.680864,191.896332 
	C29.790882,189.003342 28.169720,186.521835 26.781572,183.773224 
z"/>
<path fill="#FEFEFF" opacity="1.000000" stroke="none" 
	d="
M118.290596,112.839874 
	C122.385674,122.791916 129.804306,127.054680 140.551956,126.961342 
	C168.337570,126.720032 196.126877,126.818115 223.914261,126.912804 
	C233.823624,126.946571 240.762833,122.740494 245.287354,113.274963 
	C255.064529,112.976128 264.179657,113.033272 273.292908,112.927834 
	C275.530884,112.901939 277.762665,112.345230 279.997314,112.032547 
	C287.546814,116.372711 295.096313,120.712883 303.676727,125.645714 
	C303.676727,121.166328 303.676727,117.475250 304.257660,113.370453 
	C340.931793,112.958023 377.024994,112.958595 413.118195,112.961258 
	C420.011597,112.961769 420.011841,112.965553 420.015045,120.082832 
	C420.016541,123.409393 420.016754,126.735954 420.017548,130.062515 
	C411.741516,130.062515 403.465485,130.062515 394.771210,130.062515 
	C394.771210,135.871674 394.344086,140.888351 394.879425,145.800125 
	C395.547241,151.927460 393.269379,155.972336 388.571747,159.781799 
	C380.560760,166.278198 373.104218,173.456696 365.373535,180.302109 
	C364.177521,181.361176 362.762482,182.172913 361.448730,183.099030 
	C361.723663,183.537933 361.998566,183.976822 362.273499,184.415710 
	C372.860748,184.415710 383.448029,184.415710 394.611755,184.415710 
	C394.611755,191.765396 394.611755,198.649200 394.611755,206.024033 
	C403.142426,206.024033 411.093567,206.024033 419.518463,206.551453 
	C419.997040,240.218674 419.952881,273.358673 420.073395,306.498047 
	C420.087280,310.322113 419.479370,312.106567 414.985809,312.098083 
	C343.876953,311.963562 272.767761,312.013489 201.658722,311.942932 
	C199.985748,311.941254 198.313660,311.036255 196.641159,310.552612 
	C201.325012,287.758789 201.932281,264.590912 201.503830,241.514984 
	C201.051208,217.137405 184.724609,198.403152 160.799057,193.139282 
	C137.147308,187.935638 115.881065,192.248672 98.796051,210.664810 
	C96.892220,212.716949 95.468597,215.214615 93.501846,217.226685 
	C93.131187,183.693985 93.114517,150.440170 92.978310,117.186829 
	C92.964836,113.896942 94.133049,112.838821 97.343605,112.903786 
	C104.322647,113.045006 111.307892,112.879814 118.290596,112.839874 
M378.995453,275.314301 
	C381.763763,275.655945 382.242462,274.183502 382.198792,271.761871 
	C382.060547,264.100464 382.270905,256.431610 382.074646,248.772598 
	C381.690765,233.791885 371.442780,220.829605 356.986511,216.999374 
	C353.808075,216.157242 350.483154,215.868210 346.081390,215.133469 
	C346.984741,212.794022 347.311737,210.259674 348.707062,208.653259 
	C352.736969,204.013702 354.651031,198.706146 354.990692,192.720963 
	C355.433990,184.909180 355.690155,177.085663 356.214081,169.279755 
	C357.598358,148.656128 342.567169,138.479019 327.258789,137.460617 
	C309.292847,136.265411 294.583771,148.212006 294.265228,165.250656 
	C294.091461,174.547424 295.102570,183.867065 295.599030,193.175354 
	C295.930603,199.392517 298.145691,204.724731 302.478241,209.341019 
	C303.711578,210.655090 303.733063,213.106537 304.397797,215.329102 
	C302.657043,215.576233 301.694580,215.769760 300.723083,215.842361 
	C283.744720,217.111038 270.821960,228.646744 268.830200,245.489655 
	C267.779999,254.370255 268.465759,263.447144 268.139526,272.427094 
	C268.020447,275.705292 270.243866,275.125275 272.156097,276.150818 
	C275.282806,288.188507 280.161011,291.952423 292.653351,291.953522 
	C315.102203,291.955505 337.551086,291.978119 359.999878,291.942841 
	C370.667847,291.926056 377.137299,285.982513 378.995453,275.314301 
M266.299622,175.265060 
	C266.299622,173.480667 266.299622,171.696259 266.299622,169.731293 
	C247.788742,169.731293 229.792206,169.731293 211.730164,169.731293 
	C211.730164,172.608093 211.730164,175.142487 211.730164,177.912964 
	C229.239273,177.912964 246.338562,177.941895 263.436981,177.835648 
	C264.386871,177.829742 265.329834,176.704910 266.299622,175.265060 
M221.534393,191.822464 
	C218.275604,191.822464 215.016815,191.822464 211.688492,191.822464 
	C211.688492,194.890671 211.688492,197.291595 211.688492,199.616547 
	C223.518036,199.616547 235.032089,199.616547 246.509491,199.616547 
	C246.509491,196.942291 246.509491,194.670456 246.509491,191.822464 
	C238.366714,191.822464 230.446289,191.822464 221.534393,191.822464 
z"/>
<path fill="#FED027" opacity="1.000000" stroke="none" 
	d="
M51.455475,484.785461 
	C44.307285,478.203400 39.975632,470.562622 39.944679,460.456726 
	C41.216560,459.536682 42.541660,459.048920 44.172283,458.448730 
	C44.172283,442.589813 44.129627,426.620422 44.181606,410.651398 
	C44.275311,381.866180 63.319420,359.152527 91.681870,354.556519 
	C98.026688,353.528381 104.629730,353.997742 111.114464,353.978943 
	C113.520569,353.971954 115.039001,353.532196 115.302544,350.351562 
	C135.225647,349.954529 154.572388,349.955139 173.919128,349.955750 
	C174.064087,351.102600 174.209045,352.249451 174.421570,353.930786 
	C179.212540,353.930786 184.008636,353.904816 188.804367,353.935028 
	C218.603546,354.122620 242.512146,376.115540 244.200974,405.901123 
	C245.124084,422.182098 244.533875,438.550354 244.558121,454.879303 
	C244.561859,457.398651 244.498459,459.681824 248.489899,459.339203 
	C248.060837,478.573273 234.091949,491.970367 214.964615,491.998352 
	C200.966949,492.018860 186.969269,492.020233 172.513519,492.088043 
	C140.917297,492.097504 109.776840,491.819550 78.642387,492.135071 
	C68.802521,492.234802 59.856808,490.611298 51.455475,484.785461 
z"/>
<path fill="#E1E1E1" opacity="1.000000" stroke="none" 
	d="
M196.398041,310.814270 
	C198.313660,311.036255 199.985748,311.941254 201.658722,311.942932 
	C272.767761,312.013489 343.876953,311.963562 414.985809,312.098083 
	C419.479370,312.106567 420.087280,310.322113 420.073395,306.498047 
	C419.952881,273.358673 419.997040,240.218674 419.980530,206.620941 
	C425.113983,206.162994 430.259064,206.162994 436.190002,206.162994 
	C436.190002,207.983200 436.190002,209.724564 436.189972,211.465912 
	C436.189758,255.446381 436.196533,299.426849 436.184875,343.407318 
	C436.181641,355.629974 430.758972,361.060577 418.548370,361.062592 
	C357.408844,361.072693 296.269318,361.080383 235.129868,361.010559 
	C233.092590,361.008209 230.585938,360.774139 229.093338,359.619781 
	C216.315704,349.737640 201.949295,345.072662 185.835846,345.659576 
	C185.027298,345.689026 184.212494,345.546661 182.785431,345.437012 
	C182.906662,337.944031 180.444870,330.622437 187.587845,324.335480 
	C191.388992,320.989868 193.358597,315.563263 196.398041,310.814270 
M260.043823,343.826782 
	C263.054535,341.499512 265.032349,338.314880 263.160919,334.857513 
	C261.849884,332.435455 258.988739,329.667694 256.543640,329.376892 
	C254.088867,329.084930 250.191437,331.034912 248.954269,333.174866 
	C247.717133,335.314758 248.087830,339.398193 249.369690,341.748199 
	C251.408310,345.485535 255.357269,345.998688 260.043823,343.826782 
z"/>
<path fill="#475563" opacity="1.000000" stroke="none" 
	d="
M114.899933,331.660126 
	C115.546814,328.024384 114.272255,325.242493 111.404167,322.931885 
	C101.919388,315.290619 98.250717,305.156281 97.854538,293.154816 
	C97.334641,277.405731 95.383614,261.689728 95.208801,245.946625 
	C94.922371,220.151337 111.153221,202.942215 137.417542,199.957855 
	C151.128632,198.399902 163.953781,200.767288 175.335037,208.670593 
	C186.668945,216.541046 193.438354,227.369049 192.952011,241.508560 
	C192.250122,261.914520 191.237320,282.318756 189.826828,302.686981 
	C189.245102,311.087372 183.798172,317.321167 177.726593,322.725555 
	C174.860504,325.276703 173.382904,328.079956 173.702972,332.313293 
	C153.681122,340.884796 134.195984,341.463531 114.899933,331.660126 
z"/>
<path fill="#DCDDDF" opacity="1.000000" stroke="none" 
	d="
M118.259308,112.386597 
	C111.307892,112.879814 104.322647,113.045006 97.343605,112.903786 
	C94.133049,112.838821 92.964836,113.896942 92.978310,117.186829 
	C93.114517,150.440170 93.131187,183.693985 93.235825,217.486984 
	C86.582001,230.622131 86.457451,244.239243 87.335022,257.933777 
	C88.302765,273.035278 89.497597,288.123901 90.761574,303.204071 
	C91.472801,311.689484 95.313293,318.944092 101.394707,324.648407 
	C105.321770,328.331970 106.807899,332.250244 106.271156,337.382324 
	C106.014359,339.837708 106.226967,342.342224 106.226967,344.780823 
	C96.651413,346.010712 87.391159,347.200073 77.557777,348.463074 
	C77.461823,347.157867 77.222694,345.419647 77.222260,343.681335 
	C77.203560,268.093689 77.198792,192.506012 77.213387,116.918358 
	C77.215652,105.172440 82.974289,99.381790 94.660255,99.314690 
	C101.652382,99.274544 108.645088,99.325081 115.637421,99.358932 
	C116.113091,99.361229 116.587776,99.565979 117.531395,99.785622 
	C117.760147,103.774643 117.994087,107.853981 118.259308,112.386597 
z"/>
<path fill="#DDDEDF" opacity="1.000000" stroke="none" 
	d="
M420.474731,130.166168 
	C420.016754,126.735954 420.016541,123.409393 420.015045,120.082832 
	C420.011841,112.965553 420.011597,112.961769 413.118195,112.961258 
	C377.024994,112.958595 340.931793,112.958023 304.362061,112.959595 
	C303.885559,108.662903 303.885559,104.363342 303.885559,99.308205 
	C305.821167,99.308205 307.579132,99.308205 309.337128,99.308205 
	C345.485962,99.308289 381.634796,99.301094 417.783630,99.312271 
	C430.945801,99.316338 436.185089,104.598129 436.201233,117.810394 
	C436.206085,121.772186 436.201965,125.733994 436.201965,130.269806 
	C430.807526,130.269806 425.869751,130.269806 420.474731,130.166168 
z"/>
<path fill="#AEB0B2" opacity="1.000000" stroke="none" 
	d="
M285.194275,384.002808 
	C285.194427,389.639801 285.194427,394.777924 285.194427,400.300323 
	C274.051056,400.300323 263.337830,400.300323 253.700607,400.300323 
	C249.186218,389.730530 244.916626,379.733856 240.636337,369.712189 
	C254.542999,369.712189 269.481812,369.712189 285.194153,369.712189 
	C285.194153,374.330658 285.194153,378.917297 285.194275,384.002808 
z"/>
<path fill="#000000" opacity="1.000000" stroke="none" 
	d="
M441.012665,139.083984 
	C461.785278,139.083984 482.557892,139.083984 503.666962,139.083984 
	C503.666962,158.365829 503.666962,177.264114 503.666962,196.990051 
	C483.142883,196.990051 462.583405,196.990051 441.524475,196.569214 
	C441.026031,194.811127 441.027008,193.473846 441.493164,192.076233 
	C460.204926,192.015884 478.451599,192.015884 496.693970,192.015884 
	C496.693970,175.694824 496.693970,159.978668 496.693970,143.885269 
	C477.939972,143.885269 459.487000,143.885269 441.018372,143.484070 
	C441.006042,141.749893 441.009369,140.416946 441.012665,139.083984 
z"/>
<path fill="#C2C2C2" opacity="1.000000" stroke="none" 
	d="
M444.953674,293.421448 
	C459.862915,293.040955 468.677826,308.128113 466.351105,320.560608 
	C464.109772,332.537018 456.804718,337.850098 445.481354,340.006287 
	C445.004395,324.636078 444.920258,309.258484 444.953674,293.421448 
z"/>
<path fill="#FE8627" opacity="1.000000" stroke="none" 
	d="
M114.816467,332.148132 
	C134.195984,341.463531 153.681122,340.884796 173.701630,332.719788 
	C174.093399,338.158081 174.087891,343.600403 174.000732,349.499237 
	C154.572388,349.955139 135.225647,349.954529 115.405670,349.948639 
	C114.865944,344.174286 114.799469,338.405182 114.816467,332.148132 
z"/>
<path fill="#FEFEFF" opacity="1.000000" stroke="none" 
	d="
M419.913696,197.624695 
	C414.461365,197.624695 409.009064,197.624695 403.088501,197.624695 
	C403.088501,190.502869 403.088501,183.592224 403.088501,176.246124 
	C396.390778,176.246124 390.152557,176.246124 382.493896,176.246124 
	C388.855804,170.525909 394.120605,165.600479 399.611572,160.941620 
	C402.098297,158.831741 403.277924,156.616455 403.066620,153.278564 
	C402.774384,148.661667 402.993286,144.012436 402.993286,138.798035 
	C408.567444,138.798035 413.824768,138.798035 419.543091,139.319031 
	C420.007019,141.239594 420.010040,142.639145 419.575165,144.117798 
	C416.555786,144.337265 413.974335,144.477646 411.386414,144.618378 
	C411.386414,160.621704 411.386414,176.029846 411.386414,192.128235 
	C414.426910,192.128235 417.203156,192.128235 419.997437,192.521469 
	C419.981537,194.484695 419.947601,196.054703 419.913696,197.624695 
z"/>
<path fill="#000000" opacity="1.000000" stroke="none" 
	d="
M127.031204,94.830978 
	C127.018433,79.343353 127.288162,63.847515 126.838066,48.372608 
	C126.682716,43.031292 132.237274,37.944061 137.119400,37.956703 
	C167.095383,38.034321 197.071808,37.949184 227.047745,38.037766 
	C232.717865,38.054523 236.977310,43.392941 236.992493,50.088116 
	C237.025726,64.742889 236.983475,79.397835 236.546692,94.518135 
	C235.103195,94.956810 234.085068,94.930046 233.037735,94.442215 
	C233.005280,79.319351 233.021393,64.657501 232.989716,49.995754 
	C232.976257,43.763954 230.198074,41.003387 224.066696,41.002628 
	C196.075897,40.999172 168.085114,41.000904 140.094315,41.001266 
	C132.377075,41.001369 130.023743,43.390110 130.007492,51.365845 
	C129.977966,65.860962 129.985275,80.356148 129.611618,94.915474 
	C128.507751,94.930092 127.769478,94.880539 127.031204,94.830978 
z"/>
<path fill="#E6ECF2" opacity="1.000000" stroke="none" 
	d="
M235.293564,113.420532 
	C233.105942,117.391045 229.400162,118.619301 225.250580,118.626892 
	C196.212448,118.679993 167.174149,118.670769 138.135956,118.643051 
	C133.511215,118.638641 129.743378,116.910782 127.761887,112.344719 
	C129.425797,112.000046 130.761917,111.977257 132.407333,112.140373 
	C135.331528,113.147987 137.942017,114.667305 140.562027,114.683922 
	C167.969803,114.857819 195.379730,114.870949 222.787094,114.665764 
	C225.504578,114.645432 228.209030,112.884979 231.327911,111.957390 
	C232.922028,112.461914 234.107803,112.941223 235.293564,113.420532 
z"/>
<path fill="#E0E0E0" opacity="1.000000" stroke="none" 
	d="
M267.006561,416.995728 
	C262.198334,416.995728 257.888458,416.995728 253.240555,416.995728 
	C253.240555,414.316772 253.240555,411.925415 253.240555,408.882538 
	C260.488220,408.882538 267.758820,408.882446 275.029419,408.882568 
	C281.526337,408.882690 288.023315,408.867554 294.520172,408.887634 
	C300.864441,408.907227 301.578461,409.708984 301.140717,416.995728 
	C289.971222,416.995728 278.738068,416.995728 267.006561,416.995728 
z"/>
<path fill="#000000" opacity="1.000000" stroke="none" 
	d="
M246.143127,65.364807 
	C251.242111,64.484924 256.245361,64.063225 261.650421,63.607670 
	C261.650421,73.655594 261.650421,82.883667 261.650421,92.561028 
	C256.737427,92.561028 251.716293,92.561028 246.047394,92.561028 
	C246.047394,83.644073 246.047394,74.733543 246.143127,65.364807 
M250.707504,71.017250 
	C250.142838,71.639771 249.111176,72.246201 249.089066,72.887421 
	C248.942886,77.129128 249.013489,81.378304 249.013489,85.734207 
	C252.552277,85.734207 255.591583,85.734207 258.736938,85.734207 
	C258.736938,80.765648 258.736938,76.066391 258.736938,71.002495 
	C256.201630,71.002495 253.924545,71.002495 250.707504,71.017250 
z"/>
<path fill="#E0E1E1" opacity="1.000000" stroke="none" 
	d="
M279.808380,111.747711 
	C277.762665,112.345230 275.530884,112.901939 273.292908,112.927834 
	C264.179657,113.033272 255.064529,112.976128 245.482605,112.988480 
	C245.328674,109.525986 245.642227,106.053886 245.943771,102.714737 
	C258.942719,98.859917 269.511688,104.287315 279.808380,111.747711 
z"/>
<path fill="#000000" opacity="1.000000" stroke="none" 
	d="
M271.032928,94.888680 
	C271.019836,84.918205 270.875702,74.944565 271.117035,64.980255 
	C271.159393,63.231327 272.374878,60.836277 273.806000,59.910606 
	C280.525360,55.564331 287.509094,51.626850 294.982361,47.197334 
	C294.982361,63.248798 294.982361,78.641441 294.634277,94.509476 
	C293.866394,94.939453 293.446655,94.894035 293.015289,94.390823 
	C293.003693,80.367943 293.003693,66.802849 293.003693,51.697884 
	C286.236389,56.180950 280.462982,59.884792 274.874420,63.849133 
	C274.110931,64.390739 274.048218,66.229439 274.036530,67.471115 
	C273.964569,75.117165 273.896393,82.766869 274.089966,90.408691 
	C274.127716,91.898682 275.321869,93.359367 275.574036,94.903763 
	C273.787964,94.945526 272.410431,94.917107 271.032928,94.888680 
z"/>
<path fill="#DCDBDC" opacity="1.000000" stroke="none" 
	d="
M293.026855,94.848602 
	C293.446655,94.894035 293.866394,94.939453 294.602844,94.974998 
	C294.919556,99.906235 294.919556,104.847343 294.919556,111.250435 
	C286.406219,105.744926 278.535248,100.654846 270.848633,95.226730 
	C272.410431,94.917107 273.787964,94.945526 275.927887,94.982407 
	C281.604126,97.816757 286.517975,100.642662 291.820374,103.692032 
	C291.904663,101.782097 291.862183,100.340088 292.060669,98.932030 
	C292.255035,97.552887 292.694794,96.208336 293.026855,94.848602 
z"/>
<path fill="#D5D9DD" opacity="1.000000" stroke="none" 
	d="
M420.379639,197.716202 
	C419.947601,196.054703 419.981537,194.484695 420.463135,192.460632 
	C427.616547,192.049896 434.322296,192.093231 441.028015,192.136566 
	C441.027008,193.473846 441.026031,194.811127 441.062561,196.547791 
	C434.348572,197.234039 427.597107,197.520874 420.379639,197.716202 
z"/>
<path fill="#E1E1E1" opacity="1.000000" stroke="none" 
	d="
M420.013062,144.038712 
	C420.010040,142.639145 420.007019,141.239594 420.002014,139.420197 
	C426.696594,138.961105 433.393219,138.921860 440.551239,138.983307 
	C441.009369,140.416946 441.006042,141.749893 440.556824,143.581558 
	C433.411621,144.066406 426.712311,144.052567 420.013062,144.038712 
z"/>
<path fill="#E0D5D7" opacity="1.000000" stroke="none" 
	d="
M235.575470,113.131241 
	C234.107803,112.941223 232.922028,112.461914 231.523163,111.589096 
	C231.612946,109.287964 232.006805,107.389450 232.198959,105.470741 
	C232.551086,101.954544 232.784210,98.426430 233.066956,94.903282 
	C234.085068,94.930046 235.103195,94.956810 236.500580,94.983727 
	C236.539017,100.936577 236.198181,106.889259 235.575470,113.131241 
z"/>
<path fill="#DFDCDE" opacity="1.000000" stroke="none" 
	d="
M132.098038,111.954468 
	C130.761917,111.977257 129.425797,112.000046 127.689285,112.024353 
	C126.958153,106.457008 126.627411,100.888168 126.663940,95.075150 
	C127.769478,94.880539 128.507751,94.930092 129.938614,95.197510 
	C131.120148,100.928398 131.609100,106.441437 132.098038,111.954468 
z"/>
<path fill="#006180" opacity="1.000000" stroke="none" 
	d="
M34.979187,432.593506 
	C35.119610,432.059143 35.272316,431.984619 35.672394,431.849060 
	C35.949730,440.842468 35.979694,449.896942 36.015427,459.409729 
	C35.681381,457.712677 35.089935,455.562103 35.048409,453.400970 
	C34.918118,446.620575 34.994896,439.836212 34.979187,432.593506 
z"/>
<path fill="#165688" opacity="1.000000" stroke="none" 
	d="
M440.863556,431.684875 
	C441.042969,443.462860 441.449249,454.902557 440.824554,466.285645 
	C440.454559,473.026794 438.456543,479.678619 437.022766,486.711609 
	C434.615265,490.119995 432.537811,493.322845 430.108551,496.231964 
	C417.845093,510.917694 396.142548,513.242981 379.550598,507.380188 
	C363.014038,501.537018 353.104004,486.391632 353.169769,467.714111 
	C353.222473,452.736298 352.565948,437.649109 354.125458,422.810272 
	C356.125336,403.781769 373.174103,389.889404 392.304382,388.954041 
	C410.770630,388.051147 426.186768,393.346771 435.094055,410.388672 
	C438.356537,416.630676 438.882538,424.302979 440.863556,431.684875 
M402.030426,405.973511 
	C402.030426,405.973511 401.971130,405.974213 402.310516,406.577057 
	C407.258972,411.143433 409.451965,423.920624 404.814484,428.340210 
	C399.810699,433.108856 401.063538,438.142700 401.162201,443.449982 
	C410.409760,442.325043 418.405365,439.252289 424.659515,431.439545 
	C427.350525,427.329254 431.349731,423.556763 429.760620,418.004456 
	C426.529755,406.715698 413.026154,397.321381 401.127258,397.894348 
	C401.127258,400.353943 401.127258,402.822784 401.215454,405.741608 
	C401.429108,406.015289 401.704926,406.111938 402.030426,405.973511 
M369.931335,432.684845 
	C375.796997,438.965942 382.784515,442.780182 392.496033,442.970612 
	C391.924469,438.657654 392.652893,433.976929 390.685059,431.222443 
	C384.891846,423.113403 384.853790,412.331604 392.263672,405.398834 
	C392.392548,402.838226 392.521423,400.277588 392.664764,397.429199 
	C382.237549,397.940491 374.203888,401.930664 368.518127,409.629242 
	C361.680389,418.887573 360.517731,421.179962 369.931335,432.684845 
M369.366150,443.560455 
	C366.979858,441.416199 364.593567,439.271942 361.943481,436.890625 
	C361.943481,449.772949 361.596710,462.072388 362.075256,474.339691 
	C362.356598,481.550568 366.130310,487.633606 371.315186,492.632690 
	C380.976959,501.948181 392.799683,503.162659 405.275513,501.148376 
	C418.410217,499.027679 429.547272,489.147552 430.891724,476.007874 
	C432.210815,463.116241 431.179169,449.984070 431.179169,436.636993 
	C428.696625,439.106567 426.257751,441.532715 423.164551,444.142090 
	C405.348114,454.972382 387.548920,454.385773 369.366150,443.560455 
M394.891571,419.372803 
	C395.430176,421.061493 395.968750,422.750183 396.507385,424.438843 
	C397.236481,422.726898 398.157684,421.065704 398.628174,419.285400 
	C398.949677,418.068665 398.843475,416.637299 398.543518,415.394806 
	C398.354187,414.610504 397.455444,413.997437 396.874939,413.307526 
	C396.222473,414.058350 395.322937,414.714203 394.987610,415.586884 
	C394.657745,416.445435 394.900208,417.523926 394.891571,419.372803 
z"/>
<path fill="#1C5A8A" opacity="1.000000" stroke="none" 
	d="
M288.396240,475.372589 
	C289.793274,473.266388 290.989624,471.453918 292.659271,468.924500 
	C295.241486,471.891327 296.527557,473.368958 297.948090,475.001099 
	C295.943390,476.846222 294.047943,478.590820 291.764435,480.692566 
	C290.741211,479.251526 289.468384,477.458923 288.396240,475.372589 
z"/>
<path fill="#1F5B8B" opacity="1.000000" stroke="none" 
	d="
M278.782715,480.028931 
	C276.846039,478.724335 275.175049,477.649780 273.216522,476.390259 
	C275.784485,473.697845 277.118164,472.299530 279.095886,470.225983 
	C280.795837,472.406921 282.352509,474.404053 284.475861,477.128174 
	C282.817841,478.084595 280.933167,479.171753 278.782715,480.028931 
z"/>
<path fill="#1C598A" opacity="1.000000" stroke="none" 
	d="
M288.785400,463.184753 
	C289.557343,460.961456 290.575256,459.008759 292.114868,456.055267 
	C294.462860,458.892517 296.022675,460.777344 298.210297,463.420807 
	C296.809540,464.500610 295.160675,465.771698 293.107117,467.354736 
	C291.821869,466.125092 290.426636,464.790222 288.785400,463.184753 
z"/>
<path fill="#1F5C8B" opacity="1.000000" stroke="none" 
	d="
M279.994141,457.450745 
	C281.778107,458.769196 283.219574,460.053314 285.208008,461.824677 
	C282.886292,463.915558 281.100616,465.523682 278.642151,467.737732 
	C277.172577,466.115479 275.798706,464.598877 274.091827,462.714630 
	C276.159027,460.744690 277.905365,459.080566 279.994141,457.450745 
z"/>
<path fill="#0F5286" opacity="1.000000" stroke="none" 
	d="
M493.991211,343.001038 
	C501.411926,343.182800 506.188324,348.088562 505.996979,354.893738 
	C505.818939,361.227295 500.019379,367.026459 493.933594,366.956299 
	C487.972198,366.887604 482.050842,361.118347 482.001404,355.330658 
	C481.935150,347.575043 486.006195,343.234100 493.991211,343.001038 
z"/>
<path fill="#0F5287" opacity="1.000000" stroke="none" 
	d="
M497.777283,222.278229 
	C502.181915,226.858627 502.166168,226.941116 496.064941,231.956543 
	C494.142914,229.610855 492.191040,227.228790 490.385712,225.025528 
	C492.227203,224.751556 492.082153,217.181442 497.777283,222.278229 
z"/>
<path fill="#105286" opacity="1.000000" stroke="none" 
	d="
M487.633392,239.359344 
	C486.006775,241.608337 484.208008,243.547836 482.132568,245.785645 
	C479.685211,243.216446 477.886383,241.328033 476.114410,239.467819 
	C480.357788,232.440857 481.087067,232.422958 487.633392,239.359344 
z"/>
<path fill="#105386" opacity="1.000000" stroke="none" 
	d="
M476.753418,227.197037 
	C478.064880,224.507019 479.608765,222.078979 481.664948,218.845322 
	C484.043030,221.706009 485.711121,223.712601 487.616882,226.005127 
	C485.774506,227.579941 483.639832,229.404617 481.505157,231.229294 
	C481.188629,231.721039 480.872131,232.212784 480.555634,232.704514 
	C479.365723,230.956009 478.175812,229.207504 476.753418,227.197037 
z"/>
<path fill="#105286" opacity="1.000000" stroke="none" 
	d="
M498.253784,242.248978 
	C497.043884,243.343430 496.086334,244.185654 494.751007,245.360168 
	C492.788910,243.329178 491.009552,241.487350 489.248016,239.663971 
	C495.346008,232.479813 495.346008,232.479813 501.090332,238.898163 
	C500.268097,239.884094 499.387115,240.940430 498.253784,242.248978 
z"/>
<path fill="#0E5389" opacity="1.000000" stroke="none" 
	d="
M494.225647,461.737091 
	C497.625488,464.763885 494.435333,466.169495 492.945129,467.319427 
	C491.895020,468.129822 489.687347,468.298218 488.414703,467.761566 
	C486.494568,466.951813 484.939270,465.276917 483.422607,464.117798 
	C488.585083,456.723907 489.073883,456.645874 494.225647,461.737091 
z"/>
<path fill="#0F5288" opacity="1.000000" stroke="none" 
	d="
M506.282654,454.210114 
	C501.928741,457.910492 501.264313,452.822357 499.283691,451.460571 
	C498.619537,451.003937 498.959839,448.348602 499.553772,447.015900 
	C500.103760,445.781799 501.605927,444.971985 502.645264,444.015381 
	C509.794830,448.997833 510.122406,449.866211 506.282654,454.210114 
z"/>
<path fill="#0F5488" opacity="1.000000" stroke="none" 
	d="
M491.254395,455.269348 
	C488.621155,454.065125 486.252716,452.624634 483.392731,450.885193 
	C486.217834,448.430908 488.340485,446.586914 490.515411,444.697479 
	C492.079498,446.283875 493.876312,448.106354 495.673126,449.928833 
	C496.268738,450.417847 496.864349,450.906891 497.459961,451.395905 
	C495.479706,452.608307 493.499451,453.820709 491.254395,455.269348 
z"/>
<path fill="#105286" opacity="1.000000" stroke="none" 
	d="
M498.367676,464.652954 
	C499.878174,462.195648 501.562500,460.041351 503.652405,457.368347 
	C505.676361,459.296051 507.296356,460.839020 509.591736,463.025269 
	C507.137268,464.938782 504.884857,466.694733 501.582764,469.269043 
	C500.821686,468.189728 499.681610,466.572876 498.367676,464.652954 
z"/>
<path fill="#0E5287" opacity="1.000000" stroke="none" 
	d="
M21.011431,501.323212 
	C20.700417,501.421265 20.327818,501.440643 20.087383,501.628845 
	C13.580951,506.722015 13.583227,506.724915 8.205245,500.300385 
	C12.476051,493.364197 12.651825,493.370239 20.660103,500.917114 
	C21.010221,501.119598 21.011431,501.323212 21.011431,501.323212 
z"/>
<path fill="#0E5389" opacity="1.000000" stroke="none" 
	d="
M21.219566,501.645752 
	C21.011431,501.323212 21.010221,501.119598 21.010046,501.078583 
	C21.380758,500.498596 21.694344,499.907288 22.131258,499.428558 
	C27.550383,493.490295 27.627937,493.496552 32.789116,499.720520 
	C28.036039,507.329559 26.916151,507.551117 21.219566,501.645752 
z"/>
<path fill="#0F5186" opacity="1.000000" stroke="none" 
	d="
M31.700142,489.731812 
	C30.619406,491.210388 29.782597,492.438385 28.941891,493.672119 
	C25.998755,490.626740 23.845522,488.398682 21.616388,486.092102 
	C22.944218,484.669708 24.612875,482.882233 26.675678,480.672516 
	C27.991415,484.355408 33.553024,484.542084 31.700142,489.731812 
z"/>
<path fill="#0F5288" opacity="1.000000" stroke="none" 
	d="
M11.738175,492.278259 
	C10.148334,491.029663 8.824961,490.018311 6.849322,488.508453 
	C10.112429,486.004608 12.579414,484.111664 15.424202,481.928833 
	C16.281919,482.914886 17.875109,484.746490 20.039326,487.234589 
	C17.409363,488.963165 14.707004,490.739349 11.738175,492.278259 
z"/>
<path fill="#FDCF28" opacity="1.000000" stroke="none" 
	d="
M403.989594,40.139923 
	C410.297760,44.344719 416.677795,48.446342 422.896973,52.778862 
	C431.858063,59.021523 436.445343,59.049767 445.425293,52.636551 
	C451.369904,48.391109 457.357269,44.205536 463.665466,40.505417 
	C464.004578,48.163460 463.860565,55.313328 464.064270,62.453274 
	C464.163300,65.924248 462.995819,67.095955 459.488342,67.066711 
	C442.539032,66.925362 425.586853,66.901611 408.638245,67.079422 
	C404.748566,67.120232 403.835144,65.616158 403.934204,62.074062 
	C404.138519,54.767883 403.991852,47.451881 403.989594,40.139923 
z"/>
<path fill="#FCCE28" opacity="1.000000" stroke="none" 
	d="
M461.837280,30.167505 
	C453.810211,36.083946 445.937317,42.233326 437.632629,47.730278 
	C435.863617,48.901188 431.906342,48.650330 430.014069,47.423859 
	C421.922150,42.179073 414.225861,36.323875 406.775940,30.357048 
	C425.390137,30.071039 443.613708,30.119276 461.837280,30.167505 
z"/>
<path fill="#000000" opacity="1.000000" stroke="none" 
	d="
M403.669159,40.000427 
	C403.991852,47.451881 404.138519,54.767883 403.934204,62.074062 
	C403.835144,65.616158 404.748566,67.120232 408.638245,67.079422 
	C425.586853,66.901611 442.539032,66.925362 459.488342,67.066711 
	C462.995819,67.095955 464.163300,65.924248 464.064270,62.453274 
	C463.860565,55.313328 464.004578,48.163460 464.016846,40.557678 
	C464.684692,40.532345 465.908478,40.959934 465.914001,41.402725 
	C466.025757,50.358009 465.997681,59.315033 465.997681,68.632645 
	C444.695892,68.632645 423.809326,68.632645 402.000000,68.632645 
	C402.000000,63.719246 401.999817,58.649452 402.000061,53.579655 
	C402.000244,49.586102 401.945862,45.590950 402.061554,41.600739 
	C402.078735,41.008858 402.899658,40.440281 403.669159,40.000427 
z"/>
<path fill="#000000" opacity="1.000000" stroke="none" 
	d="
M462.170868,30.191414 
	C443.613708,30.119276 425.390137,30.071039 406.719360,30.036343 
	C405.840424,29.570326 405.408661,29.090773 404.860870,28.482361 
	C405.216675,28.333891 405.606903,28.028976 405.997589,28.028431 
	C424.390442,28.002735 442.783325,28.019278 461.176147,27.985060 
	C464.125153,27.979574 466.663422,28.199579 465.672943,32.650600 
	C464.506836,31.754345 463.505646,30.984831 462.170868,30.191414 
z"/>
<path fill="#000000" opacity="1.000000" stroke="none" 
	d="
M24.706940,230.923523 
	C22.309744,229.819000 20.212563,228.785782 18.377853,227.404037 
	C18.057117,227.162476 18.565792,224.790405 19.162764,224.543930 
	C21.336803,223.646301 24.641615,221.988892 25.829224,222.877579 
	C28.986979,225.240555 28.531492,228.476974 24.706940,230.923523 
z"/>
<path fill="#54B4EC" opacity="1.000000" stroke="none" 
	d="
M378.094879,275.473541 
	C377.137299,285.982513 370.667847,291.926056 359.999878,291.942841 
	C337.551086,291.978119 315.102203,291.955505 292.653351,291.953522 
	C280.161011,291.952423 275.282806,288.188507 272.516235,275.704651 
	C275.851044,275.517578 276.940155,274.221008 276.855713,271.199066 
	C276.675415,264.744904 276.783569,258.282104 276.807465,251.822952 
	C276.873352,234.031113 288.296265,223.287064 306.318726,224.457779 
	C320.062408,239.954590 333.252655,239.748077 344.694397,224.112457 
	C362.760406,223.763000 373.907532,234.596222 373.962585,252.115936 
	C373.982391,258.411469 374.148926,264.714539 373.893799,270.999756 
	C373.760254,274.289124 375.085693,275.491180 378.094879,275.473541 
z"/>
<path fill="#165688" opacity="1.000000" stroke="none" 
	d="
M306.185150,224.170868 
	C288.296265,223.287064 276.873352,234.031113 276.807465,251.822952 
	C276.783569,258.282104 276.675415,264.744904 276.855713,271.199066 
	C276.940155,274.221008 275.851044,275.517578 272.469727,275.357788 
	C270.243866,275.125275 268.020447,275.705292 268.139526,272.427094 
	C268.465759,263.447144 267.779999,254.370255 268.830200,245.489655 
	C270.821960,228.646744 283.744720,217.111038 300.723083,215.842361 
	C301.694580,215.769760 302.657043,215.576233 304.397797,215.329102 
	C303.733063,213.106537 303.711578,210.655090 302.478241,209.341019 
	C298.145691,204.724731 295.930603,199.392517 295.599030,193.175354 
	C295.102570,183.867065 294.091461,174.547424 294.265228,165.250656 
	C294.583771,148.212006 309.292847,136.265411 327.258789,137.460617 
	C342.567169,138.479019 357.598358,148.656128 356.214081,169.279755 
	C355.690155,177.085663 355.433990,184.909180 354.990692,192.720963 
	C354.651031,198.706146 352.736969,204.013702 348.707062,208.653259 
	C347.311737,210.259674 346.984741,212.794022 346.081390,215.133469 
	C350.483154,215.868210 353.808075,216.157242 356.986511,216.999374 
	C371.442780,220.829605 381.690765,233.791885 382.074646,248.772598 
	C382.270905,256.431610 382.060547,264.100464 382.198792,271.761871 
	C382.242462,274.183502 381.763763,275.655945 378.545166,275.393921 
	C375.085693,275.491180 373.760254,274.289124 373.893799,270.999756 
	C374.148926,264.714539 373.982391,258.411469 373.962585,252.115936 
	C373.907532,234.596222 362.760406,223.763000 344.239563,224.051361 
	C341.756500,223.930252 340.158081,223.830002 338.209412,223.707779 
	C338.209412,220.363403 338.396942,217.375839 338.165802,214.421021 
	C337.811371,209.890381 338.691437,206.216705 342.299469,202.862015 
	C344.394379,200.914215 345.854431,197.484756 346.167816,194.568115 
	C347.144318,185.479431 347.751404,176.323181 347.921387,167.182358 
	C348.164673,154.099686 339.382904,145.931442 325.610413,145.839828 
	C311.448730,145.745621 302.487579,153.803833 302.629730,166.995209 
	C302.721130,175.477386 303.549072,183.949127 303.862549,192.432373 
	C304.039673,197.225937 305.951935,201.033463 309.259033,204.389435 
	C310.466278,205.614502 311.876587,207.278732 311.986145,208.828064 
	C312.334869,213.759537 312.115295,218.731232 312.115295,223.791031 
	C309.795807,223.939590 307.990479,224.055237 306.185150,224.170868 
z"/>
<path fill="#246190" opacity="1.000000" stroke="none" 
	d="
M266.287811,175.682983 
	C265.329834,176.704910 264.386871,177.829742 263.436981,177.835648 
	C246.338562,177.941895 229.239273,177.912964 211.730164,177.912964 
	C211.730164,175.142487 211.730164,172.608093 211.730164,169.731293 
	C229.792206,169.731293 247.788742,169.731293 266.299622,169.731293 
	C266.299622,171.696259 266.299622,173.480667 266.287811,175.682983 
z"/>
<path fill="#155689" opacity="1.000000" stroke="none" 
	d="
M222.030121,191.822464 
	C230.446289,191.822464 238.366714,191.822464 246.509491,191.822464 
	C246.509491,194.670456 246.509491,196.942291 246.509491,199.616547 
	C235.032089,199.616547 223.518036,199.616547 211.688492,199.616547 
	C211.688492,197.291595 211.688492,194.890671 211.688492,191.822464 
	C215.016815,191.822464 218.275604,191.822464 222.030121,191.822464 
z"/>
<path fill="#4B5967" opacity="1.000000" stroke="none" 
	d="
M259.692291,344.005157 
	C255.357269,345.998688 251.408310,345.485535 249.369690,341.748199 
	C248.087830,339.398193 247.717133,335.314758 248.954269,333.174866 
	C250.191437,331.034912 254.088867,329.084930 256.543640,329.376892 
	C258.988739,329.667694 261.849884,332.435455 263.160919,334.857513 
	C265.032349,338.314880 263.054535,341.499512 259.692291,344.005157 
z"/>
<path fill="#41E4C1" opacity="1.000000" stroke="none" 
	d="
M419.575134,144.117798 
	C426.712311,144.052567 433.411621,144.066406 440.572449,143.982758 
	C459.487000,143.885269 477.939972,143.885269 496.693970,143.885269 
	C496.693970,159.978668 496.693970,175.694824 496.693970,192.015884 
	C478.451599,192.015884 460.204926,192.015884 441.493164,192.076233 
	C434.322296,192.093231 427.616547,192.049896 420.445129,192.067383 
	C417.203156,192.128235 414.426910,192.128235 411.386414,192.128235 
	C411.386414,176.029846 411.386414,160.621704 411.386414,144.618378 
	C413.974335,144.477646 416.555786,144.337265 419.575134,144.117798 
M455.499969,152.005188 
	C445.759033,152.005188 436.018097,152.005188 426.415222,152.005188 
	C426.415222,155.124695 426.415222,157.513260 426.415222,159.858246 
	C443.720917,159.858246 460.610535,159.858246 477.670166,159.858246 
	C477.670166,157.169113 477.670166,154.788391 477.670166,152.005203 
	C470.401611,152.005203 463.450745,152.005203 455.499969,152.005188 
M431.658295,171.114288 
	C429.896118,171.114288 428.133911,171.114288 426.193237,171.114288 
	C426.193237,174.236420 426.193237,176.661499 426.193237,179.414825 
	C436.767029,179.414825 447.112671,179.414825 457.712524,179.414825 
	C457.712524,176.645325 457.712524,174.119064 457.712524,171.114410 
	C449.124695,171.114410 440.872498,171.114410 431.658295,171.114288 
z"/>
<path fill="#FF586C" opacity="1.000000" stroke="none" 
	d="
M132.407333,112.140373 
	C131.609100,106.441437 131.120148,100.928398 130.304214,95.133331 
	C129.985275,80.356148 129.977966,65.860962 130.007492,51.365845 
	C130.023743,43.390110 132.377075,41.001369 140.094315,41.001266 
	C168.085114,41.000904 196.075897,40.999172 224.066696,41.002628 
	C230.198074,41.003387 232.976257,43.763954 232.989716,49.995754 
	C233.021393,64.657501 233.005280,79.319351 233.037720,94.442215 
	C232.784210,98.426430 232.551086,101.954544 232.198959,105.470741 
	C232.006805,107.389450 231.612946,109.287964 231.114792,111.563873 
	C228.209030,112.884979 225.504578,114.645432 222.787094,114.665764 
	C195.379730,114.870949 167.969803,114.857819 140.562027,114.683922 
	C137.942017,114.667305 135.331528,113.147987 132.407333,112.140373 
M196.375092,79.979752 
	C197.188171,79.272858 198.001266,78.565964 199.097458,77.612938 
	C187.379318,70.079262 176.050995,62.796196 164.285034,55.231770 
	C164.285034,70.816078 164.285034,85.297913 164.285034,100.628883 
	C175.221039,93.588081 185.503128,86.968285 196.375092,79.979752 
z"/>
<path fill="#FF576B" opacity="1.000000" stroke="none" 
	d="
M251.177490,71.009872 
	C253.924545,71.002495 256.201630,71.002495 258.736938,71.002495 
	C258.736938,76.066391 258.736938,80.765648 258.736938,85.734207 
	C255.591583,85.734207 252.552277,85.734207 249.013489,85.734207 
	C249.013489,81.378304 248.942886,77.129128 249.089066,72.887421 
	C249.111176,72.246201 250.142838,71.639771 251.177490,71.009872 
z"/>
<path fill="#FF586B" opacity="1.000000" stroke="none" 
	d="
M293.015259,94.390823 
	C292.694794,96.208336 292.255035,97.552887 292.060669,98.932030 
	C291.862183,100.340088 291.904663,101.782097 291.820374,103.692032 
	C286.517975,100.642662 281.604126,97.816757 276.336487,94.912216 
	C275.321869,93.359367 274.127716,91.898682 274.089966,90.408691 
	C273.896393,82.766869 273.964569,75.117165 274.036530,67.471115 
	C274.048218,66.229439 274.110931,64.390739 274.874420,63.849133 
	C280.462982,59.884792 286.236389,56.180950 293.003693,51.697884 
	C293.003693,66.802849 293.003693,80.367943 293.015259,94.390823 
z"/>
<path fill="#FEDA55" opacity="1.000000" stroke="none" 
	d="
M369.764404,444.061554 
	C387.548920,454.385773 405.348114,454.972382 423.535034,444.518738 
	C423.913696,453.033508 424.044006,461.173828 423.901611,469.309357 
	C423.686249,481.615662 416.013519,491.039825 403.968262,493.117340 
	C399.327179,493.917755 394.338226,493.858124 389.672394,493.132294 
	C377.731842,491.274658 369.993225,482.027710 369.797424,469.970612 
	C369.657227,461.336334 369.766449,452.698059 369.764404,444.061554 
z"/>
<path fill="#FBFCFA" opacity="1.000000" stroke="none" 
	d="
M369.565277,443.811005 
	C369.766449,452.698059 369.657227,461.336334 369.797424,469.970612 
	C369.993225,482.027710 377.731842,491.274658 389.672394,493.132294 
	C394.338226,493.858124 399.327179,493.917755 403.968262,493.117340 
	C416.013519,491.039825 423.686249,481.615662 423.901611,469.309357 
	C424.044006,461.173828 423.913696,453.033508 423.862183,444.427124 
	C426.257751,441.532715 428.696625,439.106567 431.179169,436.636993 
	C431.179169,449.984070 432.210815,463.116241 430.891724,476.007874 
	C429.547272,489.147552 418.410217,499.027679 405.275513,501.148376 
	C392.799683,503.162659 380.976959,501.948181 371.315186,492.632690 
	C366.130310,487.633606 362.356598,481.550568 362.075256,474.339691 
	C361.596710,462.072388 361.943481,449.772949 361.943481,436.890625 
	C364.593567,439.271942 366.979858,441.416199 369.565277,443.811005 
z"/>
<path fill="#FCD957" opacity="1.000000" stroke="none" 
	d="
M424.088287,431.728455 
	C418.405365,439.252289 410.409760,442.325043 401.162201,443.449982 
	C401.063538,438.142700 399.810699,433.108856 404.814484,428.340210 
	C409.451965,423.920624 407.258972,411.143433 402.548615,406.199158 
	C415.603271,407.171234 423.234741,416.452698 424.088287,431.728455 
z"/>
<path fill="#FBD855" opacity="1.000000" stroke="none" 
	d="
M391.784454,405.796387 
	C384.853790,412.331604 384.891846,423.113403 390.685059,431.222443 
	C392.652893,433.976929 391.924469,438.657654 392.496033,442.970612 
	C382.784515,442.780182 375.796997,438.965942 369.822144,431.925110 
	C370.193665,416.155914 378.479401,406.632294 391.784454,405.796387 
z"/>
<path fill="#F7F9F7" opacity="1.000000" stroke="none" 
	d="
M392.024048,405.597595 
	C378.479401,406.632294 370.193665,416.155914 369.662872,431.612274 
	C360.517731,421.179962 361.680389,418.887573 368.518127,409.629242 
	C374.203888,401.930664 382.237549,397.940491 392.664764,397.429199 
	C392.521423,400.277588 392.392548,402.838226 392.024048,405.597595 
z"/>
<path fill="#FAFBFB" opacity="1.000000" stroke="none" 
	d="
M424.373901,431.583984 
	C423.234741,416.452698 415.603271,407.171234 402.378906,405.897766 
	C401.971130,405.974213 402.030426,405.973511 401.962769,405.802094 
	C401.680084,405.424988 401.424133,405.311951 401.127258,405.291595 
	C401.127258,402.822784 401.127258,400.353943 401.127258,397.894348 
	C413.026154,397.321381 426.529755,406.715698 429.760620,418.004456 
	C431.349731,423.556763 427.350525,427.329254 424.373901,431.583984 
z"/>
<path fill="#E0C85A" opacity="1.000000" stroke="none" 
	d="
M394.891571,418.939362 
	C394.900208,417.523926 394.657745,416.445435 394.987610,415.586884 
	C395.322937,414.714203 396.222473,414.058350 396.874939,413.307526 
	C397.455444,413.997437 398.354187,414.610504 398.543518,415.394806 
	C398.843475,416.637299 398.949677,418.068665 398.628174,419.285400 
	C398.157684,421.065704 397.236481,422.726898 396.507355,424.438843 
	C395.968750,422.750183 395.430176,421.061493 394.891571,418.939362 
z"/>
<path fill="#FCD957" opacity="1.000000" stroke="none" 
	d="
M401.171356,405.516602 
	C401.424133,405.311951 401.680084,405.424988 401.968994,405.831116 
	C401.704926,406.111938 401.429108,406.015289 401.171356,405.516602 
z"/>
<path fill="#FD8528" opacity="1.000000" stroke="none" 
	d="
M306.318726,224.457779 
	C307.990479,224.055237 309.795807,223.939590 312.115295,223.791031 
	C312.115295,218.731232 312.334869,213.759537 311.986145,208.828064 
	C311.876587,207.278732 310.466278,205.614502 309.259033,204.389435 
	C305.951935,201.033463 304.039673,197.225937 303.862549,192.432373 
	C303.549072,183.949127 302.721130,175.477386 302.629730,166.995209 
	C302.487579,153.803833 311.448730,145.745621 325.610413,145.839828 
	C339.382904,145.931442 348.164673,154.099686 347.921387,167.182358 
	C347.751404,176.323181 347.144318,185.479431 346.167816,194.568115 
	C345.854431,197.484756 344.394379,200.914215 342.299469,202.862015 
	C338.691437,206.216705 337.811371,209.890381 338.165802,214.421021 
	C338.396942,217.375839 338.209412,220.363403 338.209412,223.707779 
	C340.158081,223.830002 341.756500,223.930252 343.809692,224.091583 
	C333.252655,239.748077 320.062408,239.954590 306.318726,224.457779 
z"/>
<path fill="#FFFFFF" opacity="1.000000" stroke="none" 
	d="
M455.999939,152.005188 
	C463.450745,152.005203 470.401611,152.005203 477.670166,152.005203 
	C477.670166,154.788391 477.670166,157.169113 477.670166,159.858246 
	C460.610535,159.858246 443.720917,159.858246 426.415222,159.858246 
	C426.415222,157.513260 426.415222,155.124695 426.415222,152.005188 
	C436.018097,152.005188 445.759033,152.005188 455.999939,152.005188 
z"/>
<path fill="#F0FDFA" opacity="1.000000" stroke="none" 
	d="
M432.139313,171.114349 
	C440.872498,171.114410 449.124695,171.114410 457.712524,171.114410 
	C457.712524,174.119064 457.712524,176.645325 457.712524,179.414825 
	C447.112671,179.414825 436.767029,179.414825 426.193237,179.414825 
	C426.193237,176.661499 426.193237,174.236420 426.193237,171.114288 
	C428.133911,171.114288 429.896118,171.114288 432.139313,171.114349 
z"/>
<path fill="#FFFDFD" opacity="1.000000" stroke="none" 
	d="
M196.080154,80.164116 
	C185.503128,86.968285 175.221039,93.588081 164.285034,100.628883 
	C164.285034,85.297913 164.285034,70.816078 164.285034,55.231770 
	C176.050995,62.796196 187.379318,70.079262 199.097458,77.612938 
	C198.001266,78.565964 197.188171,79.272858 196.080154,80.164116 
z"/>
</svg>