<svg version="1.1" id="Layer_1" xmlns="http://www.w3.org/2000/svg" xmlns:xlink="http://www.w3.org/1999/xlink" x="0px" y="0px"
	 width="100%" viewBox="0 0 512 512" enable-background="new 0 0 512 512" xml:space="preserve">
<path fill="#020202" opacity="1.000000" stroke="none" 
	d="
M1.000000,190.000000 
	C1.000000,126.666664 1.000000,63.833332 1.000000,1.000000 
	C171.666672,1.000000 342.333344,1.000000 513.000000,1.000000 
	C513.000000,171.666672 513.000000,342.333344 513.000000,513.000000 
	C342.333344,513.000000 171.666672,513.000000 1.000000,513.000000 
	C1.000000,405.500000 1.000000,298.000000 1.000000,190.000000 
M460.493774,435.500305 
	C460.493774,302.180878 460.494202,168.861435 460.493011,35.542007 
	C460.492920,23.842804 457.694672,21.000357 446.195709,21.000204 
	C399.367157,20.999582 352.538635,21.000919 305.710083,20.999092 
	C296.626495,20.998737 294.396973,19.455441 291.424713,11.087914 
	C283.465363,11.087914 275.479828,11.087914 267.324310,11.087914 
	C266.144928,16.612907 263.349426,20.623877 257.227234,20.941612 
	C252.129318,21.206190 248.933075,18.186186 246.437973,11.086081 
	C238.480713,11.086081 230.495224,11.086081 222.539810,11.086081 
	C219.622238,19.453861 217.386642,20.998821 208.245773,20.999151 
	C161.417221,21.000849 114.588676,20.999552 67.760124,21.000231 
	C56.419582,21.000395 53.508137,23.867226 53.507896,35.080574 
	C53.505241,160.567749 53.506222,286.054901 53.506222,411.542084 
	C53.506222,413.306519 53.506222,415.070984 53.506222,417.181854 
	C55.705441,417.181854 57.342403,417.181732 58.979370,417.181885 
	C73.477890,417.183014 87.977692,417.063110 102.474579,417.217743 
	C118.466667,417.388367 129.035599,428.066101 129.113724,443.969177 
	C129.186584,458.800659 129.123993,473.632751 129.141357,488.464569 
	C129.143036,489.901550 129.288101,491.338348 129.378876,493.000000 
	C130.721725,493.000000 131.703415,493.000031 132.685104,493.000000 
	C238.007675,492.999939 343.330231,493.005188 448.652802,492.989502 
	C456.821442,492.988281 460.424591,489.372375 460.470490,480.995667 
	C460.551727,466.164276 460.493622,451.332153 460.493774,435.500305 
M109.136093,465.475067 
	C109.133278,458.165649 109.099358,450.856049 109.139763,443.546875 
	C109.162628,439.411102 106.948914,437.283600 103.059334,437.238831 
	C91.665108,437.107727 80.268410,437.192169 69.939705,437.192169 
	C82.913368,450.188049 96.222397,463.519867 109.136093,476.455658 
	C109.136093,473.756348 109.136093,470.108978 109.136093,465.475067 
z"/>
<path fill="#FDFDFD" opacity="1.000000" stroke="none" 
	d="
M460.493805,436.000305 
	C460.493622,451.332153 460.551727,466.164276 460.470490,480.995667 
	C460.424591,489.372375 456.821442,492.988281 448.652802,492.989502 
	C343.330231,493.005188 238.007675,492.999939 132.685104,493.000000 
	C131.703415,493.000031 130.721725,493.000000 129.378876,493.000000 
	C129.288101,491.338348 129.143036,489.901550 129.141357,488.464569 
	C129.123993,473.632751 129.186584,458.800659 129.113724,443.969177 
	C129.035599,428.066101 118.466667,417.388367 102.474579,417.217743 
	C87.977692,417.063110 73.477890,417.183014 58.979370,417.181885 
	C57.342403,417.181732 55.705441,417.181854 53.506222,417.181854 
	C53.506222,415.070984 53.506222,413.306519 53.506222,411.542084 
	C53.506222,286.054901 53.505241,160.567749 53.507896,35.080574 
	C53.508137,23.867226 56.419582,21.000395 67.760124,21.000231 
	C114.588676,20.999552 161.417221,21.000849 208.245773,20.999151 
	C217.386642,20.998821 219.622238,19.453861 222.539810,11.086081 
	C230.495224,11.086081 238.480713,11.086081 246.437973,11.086081 
	C248.933075,18.186186 252.129318,21.206190 257.227234,20.941612 
	C263.349426,20.623877 266.144928,16.612907 267.324310,11.087914 
	C275.479828,11.087914 283.465363,11.087914 291.424713,11.087914 
	C294.396973,19.455441 296.626495,20.998737 305.710083,20.999092 
	C352.538635,21.000919 399.367157,20.999582 446.195709,21.000204 
	C457.694672,21.000357 460.492920,23.842804 460.493011,35.542007 
	C460.494202,168.861435 460.493774,302.180878 460.493805,436.000305 
M189.484680,51.995625 
	C170.282623,38.482986 149.892838,36.548782 129.388214,47.874954 
	C108.686485,59.309998 97.861076,77.963669 101.356529,101.345070 
	C104.440926,121.976898 106.703117,143.382187 118.273315,162.178329 
	C112.004120,164.139664 105.732178,165.779114 99.699097,168.052460 
	C84.281105,173.862091 75.245117,185.003693 73.849663,201.518066 
	C73.122681,210.121567 73.517357,218.824783 73.512001,227.483017 
	C73.505943,237.282593 76.859261,240.561127 86.765823,240.565353 
	C115.246391,240.577515 143.726959,240.569901 172.207535,240.569565 
	C190.528366,240.569351 208.849319,240.607605 227.169968,240.549591 
	C235.326889,240.523758 239.012985,236.966232 239.072372,229.191788 
	C239.134705,221.031189 239.163193,212.868759 239.066132,204.708817 
	C238.859909,187.374374 228.692123,173.423843 212.178223,167.825546 
	C206.056366,165.750214 199.862259,163.888092 194.459274,162.169846 
	C197.313599,155.159241 200.710510,148.492966 202.737305,141.433334 
	C205.571594,131.560974 207.361649,121.390198 209.638260,111.356117 
	C214.992233,87.758575 208.838699,67.998878 189.484680,51.995625 
M323.499817,244.572815 
	C349.832214,244.572769 376.164642,244.536896 402.496948,244.588745 
	C414.508392,244.612396 424.337463,240.256485 430.988007,230.092667 
	C437.733917,219.783188 438.316650,208.696014 432.661530,197.846130 
	C426.700073,186.408447 416.764984,180.666779 403.812622,180.593185 
	C386.313812,180.493729 368.814087,180.533752 351.314789,180.557816 
	C334.483582,180.580963 317.636627,180.225418 300.825684,180.836502 
	C283.964142,181.449402 271.171204,195.091034 270.833221,211.638107 
	C270.481323,228.869995 282.758759,242.845108 300.016815,244.258987 
	C307.469696,244.869583 315.003021,244.498138 323.499817,244.572815 
M293.564117,331.130249 
	C297.343109,331.610992 301.120728,332.496124 304.901306,332.508972 
	C337.375458,332.619537 369.850159,332.584351 402.324646,332.549072 
	C404.813751,332.546387 407.324432,332.362610 409.787781,332.005554 
	C423.492340,330.019073 435.018433,317.661621 436.088593,303.908386 
	C437.663696,283.665649 423.632019,268.692657 402.562775,268.593597 
	C369.922424,268.440155 337.280762,268.522339 304.639893,268.598999 
	C301.341309,268.606750 297.942322,268.866547 294.764191,269.685486 
	C281.365082,273.138062 271.685944,284.695068 270.907410,297.779572 
	C269.985168,313.279022 277.627838,324.867035 293.564117,331.130249 
M397.420959,420.571930 
	C400.911987,420.465607 404.426910,420.584198 407.890076,420.215851 
	C427.861603,418.091522 440.830048,398.245117 434.911163,379.001526 
	C430.673279,365.223358 418.494232,356.659912 402.518066,356.582672 
	C379.047638,356.469238 355.576202,356.528137 332.105286,356.562744 
	C321.287567,356.578674 310.438110,356.211060 299.659485,356.900238 
	C280.388062,358.132385 266.910065,377.420105 271.705841,396.151611 
	C275.579468,411.281311 287.866699,420.511444 304.554321,420.551056 
	C335.182953,420.623779 365.811859,420.571869 397.420959,420.571930 
M343.361084,81.151466 
	C348.536591,80.661850 351.618500,77.723228 352.445618,72.732407 
	C353.249878,67.879372 350.781860,64.569542 346.745453,62.060009 
	C324.484131,48.219551 294.583344,54.604443 279.505066,76.482529 
	C264.621155,98.078575 269.240417,128.070801 289.913940,144.065598 
	C307.593231,157.743835 332.052643,158.373734 347.742218,145.554810 
	C353.090210,141.185287 354.176758,135.407928 350.529968,130.731918 
	C346.852936,126.017242 341.117004,125.552406 335.557556,129.772324 
	C330.683228,133.472168 325.230743,135.096771 319.225342,134.717789 
	C306.510101,133.915344 295.786713,125.566040 292.102661,113.795753 
	C288.425903,102.048546 292.303711,89.245667 301.910950,81.413147 
	C311.359467,73.710083 324.426270,72.727379 335.614777,78.699287 
	C337.751892,79.839973 340.216736,80.366676 343.361084,81.151466 
M432.772308,90.254570 
	C435.162872,83.007202 437.694550,75.802460 439.900330,68.499283 
	C441.738281,62.413986 438.894012,56.964111 433.401306,55.307381 
	C428.143860,53.721611 423.060364,56.528027 420.952881,62.387592 
	C419.157715,67.378929 417.584320,72.449890 415.902832,77.482269 
	C411.548828,90.512650 407.189270,103.541168 402.614258,117.221436 
	C401.886902,115.243462 401.412262,114.014404 400.980865,112.770348 
	C395.274872,96.315498 389.559387,79.863899 383.884216,63.398396 
	C382.453094,59.246361 380.276581,55.849564 375.602234,55.009182 
	C367.332916,53.522476 361.863586,60.809204 364.853760,69.498116 
	C373.435638,94.435791 382.113342,119.340515 390.764862,144.254227 
	C393.277222,151.489014 397.257019,154.908951 402.947784,154.792877 
	C408.509888,154.679428 412.491821,151.234619 414.770660,144.379639 
	C420.685699,126.586548 426.554169,108.777969 432.772308,90.254570 
M88.686272,284.579803 
	C134.179703,284.579742 179.673141,284.587646 225.166565,284.556580 
	C227.483551,284.555023 229.876877,284.525482 232.100891,283.971741 
	C236.425568,282.894928 239.202377,278.742188 239.055847,274.195068 
	C238.909988,269.668823 235.821503,265.801636 231.409576,264.953979 
	C229.465271,264.580414 227.432709,264.560455 225.440140,264.559570 
	C179.446762,264.539398 133.453384,264.541107 87.460007,264.554718 
	C85.631165,264.555267 83.779488,264.558929 81.977921,264.826721 
	C77.000839,265.566589 73.607887,269.529694 73.564430,274.457825 
	C73.520668,279.419342 76.770027,283.414154 81.772163,284.263763 
	C83.724953,284.595428 85.752403,284.487488 88.686272,284.579803 
M176.499756,372.579803 
	C192.661346,372.579773 208.822922,372.582642 224.984512,372.578613 
	C234.492386,372.576263 239.171371,369.181854 239.064011,362.380310 
	C238.959488,355.759338 234.431488,352.547791 225.128937,352.546631 
	C179.309937,352.540894 133.490936,352.538940 87.671944,352.559906 
	C85.513344,352.560913 83.311424,352.565369 81.205330,352.965973 
	C76.814529,353.801178 73.718536,357.729614 73.585556,362.243652 
	C73.451401,366.797150 76.251244,370.905243 80.589935,371.989960 
	C82.655792,372.506470 84.876549,372.554413 87.027435,372.556885 
	C116.518173,372.590881 146.008972,372.579773 176.499756,372.579803 
M236.083344,311.433960 
	C232.838104,310.470703 229.613907,308.769745 226.343887,308.676514 
	C214.533081,308.339813 202.706848,308.543915 190.886444,308.544037 
	C155.758194,308.544464 120.629906,308.515564 85.501747,308.569031 
	C78.027702,308.580414 73.657059,312.328705 73.570114,318.400085 
	C73.484329,324.389862 77.773628,328.534302 84.672195,328.543518 
	C132.453171,328.607452 180.234421,328.637177 228.015228,328.525177 
	C237.936981,328.501892 241.930710,320.516998 236.083344,311.433960 
M173.898102,415.978760 
	C175.545425,416.178802 177.192307,416.548401 178.840134,416.552643 
	C195.156387,416.594971 211.473145,416.637329 227.789017,416.547180 
	C234.726044,416.508881 239.050171,412.535492 239.066299,406.586578 
	C239.082489,400.617401 234.849609,396.637238 227.846329,396.586761 
	C211.364334,396.467957 194.880493,396.484680 178.398270,396.586090 
	C172.308441,396.623566 168.833740,399.231567 167.493179,404.174225 
	C166.278397,408.653168 168.112457,412.404419 173.898102,415.978760 
M236.083191,443.434113 
	C233.336868,442.472168 230.603027,440.721466 227.842209,440.677826 
	C211.361435,440.417358 194.873856,440.469391 178.389832,440.590607 
	C171.516113,440.641144 167.066223,444.824127 167.127747,450.641815 
	C167.189560,456.486267 171.649643,460.511169 178.556030,460.548676 
	C195.040451,460.638275 211.527069,460.703857 228.010086,460.527161 
	C237.939209,460.420715 241.932297,452.520538 236.083191,443.434113 
z"/>
<path fill="#FBCA67" opacity="1.000000" stroke="none" 
	d="
M109.136093,465.968323 
	C109.136093,470.108978 109.136093,473.756348 109.136093,476.455658 
	C96.222397,463.519867 82.913368,450.188049 69.939705,437.192169 
	C80.268410,437.192169 91.665108,437.107727 103.059334,437.238831 
	C106.948914,437.283600 109.162628,439.411102 109.139763,443.546875 
	C109.099358,450.856049 109.133278,458.165649 109.136093,465.968323 
z"/>
<path fill="#030303" opacity="1.000000" stroke="none" 
	d="
M189.767517,52.214401 
	C208.838699,67.998878 214.992233,87.758575 209.638260,111.356117 
	C207.361649,121.390198 205.571594,131.560974 202.737305,141.433334 
	C200.710510,148.492966 197.313599,155.159241 194.459274,162.169846 
	C199.862259,163.888092 206.056366,165.750214 212.178223,167.825546 
	C228.692123,173.423843 238.859909,187.374374 239.066132,204.708817 
	C239.163193,212.868759 239.134705,221.031189 239.072372,229.191788 
	C239.012985,236.966232 235.326889,240.523758 227.169968,240.549591 
	C208.849319,240.607605 190.528366,240.569351 172.207535,240.569565 
	C143.726959,240.569901 115.246391,240.577515 86.765823,240.565353 
	C76.859261,240.561127 73.505943,237.282593 73.512001,227.483017 
	C73.517357,218.824783 73.122681,210.121567 73.849663,201.518066 
	C75.245117,185.003693 84.281105,173.862091 99.699097,168.052460 
	C105.732178,165.779114 112.004120,164.139664 118.273315,162.178329 
	C106.703117,143.382187 104.440926,121.976898 101.356529,101.345070 
	C97.861076,77.963669 108.686485,59.309998 129.388214,47.874954 
	C149.892838,36.548782 170.282623,38.482986 189.767517,52.214401 
M217.170532,196.599548 
	C214.607071,191.070084 210.068726,187.954773 204.424255,186.218552 
	C195.848480,183.580658 187.330826,180.715027 178.655502,178.457047 
	C174.763168,177.443985 170.548950,177.667587 165.996216,177.289810 
	C165.996216,182.249435 166.072342,185.725906 165.979599,189.197876 
	C165.811295,195.497681 161.492065,199.988724 155.830444,199.874741 
	C150.362610,199.764694 146.212921,195.375565 146.029556,189.345642 
	C145.919495,185.726196 146.009354,182.100693 146.009354,178.017624 
	C142.753265,177.720078 139.790771,176.668823 137.313324,177.358902 
	C126.916786,180.254776 116.633072,183.573074 106.372635,186.933899 
	C99.879570,189.060684 95.195656,193.620468 94.269524,200.310410 
	C93.373528,206.782639 94.075340,213.476059 94.075340,220.294113 
	C135.637985,220.294113 177.196045,220.294113 219.794907,220.294113 
	C219.017975,212.386932 218.276764,204.843536 217.170532,196.599548 
M130.856064,143.465576 
	C134.206787,150.601166 139.651505,155.457809 147.067062,158.005905 
	C159.154694,162.159393 172.398178,157.493195 179.362015,146.753937 
	C186.727219,135.395645 185.564407,116.647987 176.790848,107.310104 
	C161.836761,115.746536 145.368607,119.209068 127.132637,121.169899 
	C128.280441,128.579849 129.380875,135.683914 130.856064,143.465576 
M131.335709,70.834549 
	C123.065384,79.272522 119.381020,89.201775 121.070023,101.300285 
	C138.096451,100.312294 154.246490,97.733597 168.610870,88.764381 
	C179.887634,81.723106 181.001785,81.653419 190.039154,90.932487 
	C190.184143,91.081337 190.568771,90.996773 191.276123,91.059944 
	C188.760040,78.101410 181.981171,68.556328 169.839264,63.645744 
	C155.990753,58.044964 143.160110,60.412865 131.335709,70.834549 
z"/>
<path fill="#050404" opacity="1.000000" stroke="none" 
	d="
M322.999817,244.572800 
	C315.003021,244.498138 307.469696,244.869583 300.016815,244.258987 
	C282.758759,242.845108 270.481323,228.869995 270.833221,211.638107 
	C271.171204,195.091034 283.964142,181.449402 300.825684,180.836502 
	C317.636627,180.225418 334.483582,180.580963 351.314789,180.557816 
	C368.814087,180.533752 386.313812,180.493729 403.812622,180.593185 
	C416.764984,180.666779 426.700073,186.408447 432.661530,197.846130 
	C438.316650,208.696014 437.733917,219.783188 430.988007,230.092667 
	C424.337463,240.256485 414.508392,244.612396 402.496948,244.588745 
	C376.164642,244.536896 349.832214,244.572769 322.999817,244.572800 
M400.222046,224.586121 
	C402.049408,224.505463 403.897400,224.571411 405.700531,224.318192 
	C412.667847,223.339737 416.883179,217.862839 416.105377,210.940628 
	C415.383118,204.512695 410.444061,200.629044 402.492920,200.615860 
	C369.845551,200.561691 337.198059,200.589630 304.550598,200.605072 
	C303.222839,200.605698 301.878540,200.683716 300.570343,200.898621 
	C295.050964,201.805267 291.089783,206.351334 290.868439,211.942307 
	C290.558014,219.784622 295.929138,224.558090 305.336639,224.569885 
	C336.651489,224.609116 367.966431,224.585556 400.222046,224.586121 
z"/>
<path fill="#040404" opacity="1.000000" stroke="none" 
	d="
M293.173889,331.039642 
	C277.627838,324.867035 269.985168,313.279022 270.907410,297.779572 
	C271.685944,284.695068 281.365082,273.138062 294.764191,269.685486 
	C297.942322,268.866547 301.341309,268.606750 304.639893,268.598999 
	C337.280762,268.522339 369.922424,268.440155 402.562775,268.593597 
	C423.632019,268.692657 437.663696,283.665649 436.088593,303.908386 
	C435.018433,317.661621 423.492340,330.019073 409.787781,332.005554 
	C407.324432,332.362610 404.813751,332.546387 402.324646,332.549072 
	C369.850159,332.584351 337.375458,332.619537 304.901306,332.508972 
	C301.120728,332.496124 297.343109,331.610992 293.173889,331.039642 
M379.500122,288.602325 
	C354.355469,288.604156 329.210571,288.547333 304.066254,288.641479 
	C295.908203,288.672028 290.900360,293.331207 290.849457,300.425598 
	C290.798798,307.484467 295.845245,312.503967 303.820496,312.532806 
	C336.957672,312.652588 370.095764,312.653656 403.232941,312.532318 
	C411.241730,312.502991 416.255066,307.510468 416.203125,300.423828 
	C416.151184,293.337433 411.130188,288.763794 402.980072,288.633026 
	C395.488525,288.512817 387.993591,288.604034 379.500122,288.602325 
z"/>
<path fill="#030405" opacity="1.000000" stroke="none" 
	d="
M396.930817,420.571930 
	C365.811859,420.571869 335.182953,420.623779 304.554321,420.551056 
	C287.866699,420.511444 275.579468,411.281311 271.705841,396.151611 
	C266.910065,377.420105 280.388062,358.132385 299.659485,356.900238 
	C310.438110,356.211060 321.287567,356.578674 332.105286,356.562744 
	C355.576202,356.528137 379.047638,356.469238 402.518066,356.582672 
	C418.494232,356.659912 430.673279,365.223358 434.911163,379.001526 
	C440.830048,398.245117 427.861603,418.091522 407.890076,420.215851 
	C404.426910,420.584198 400.911987,420.465607 396.930817,420.571930 
M398.338745,400.588898 
	C400.831757,400.501740 403.354462,400.628204 405.812195,400.286957 
	C412.917084,399.300415 417.181519,393.372986 416.038605,386.331665 
	C415.044556,380.207611 410.181976,376.623840 402.382050,376.612274 
	C369.903198,376.564026 337.424225,376.588715 304.945312,376.601196 
	C303.616394,376.601685 302.274719,376.657196 300.960846,376.842407 
	C295.148438,377.661682 291.051208,382.237671 290.862457,388.044098 
	C290.613098,395.713257 295.905701,400.548157 304.937012,400.564850 
	C335.750275,400.621796 366.563660,400.587891 398.338745,400.588898 
z"/>
<path fill="#030303" opacity="1.000000" stroke="none" 
	d="
M342.945740,81.164062 
	C340.216736,80.366676 337.751892,79.839973 335.614777,78.699287 
	C324.426270,72.727379 311.359467,73.710083 301.910950,81.413147 
	C292.303711,89.245667 288.425903,102.048546 292.102661,113.795753 
	C295.786713,125.566040 306.510101,133.915344 319.225342,134.717789 
	C325.230743,135.096771 330.683228,133.472168 335.557556,129.772324 
	C341.117004,125.552406 346.852936,126.017242 350.529968,130.731918 
	C354.176758,135.407928 353.090210,141.185287 347.742218,145.554810 
	C332.052643,158.373734 307.593231,157.743835 289.913940,144.065598 
	C269.240417,128.070801 264.621155,98.078575 279.505066,76.482529 
	C294.583344,54.604443 324.484131,48.219551 346.745453,62.060009 
	C350.781860,64.569542 353.249878,67.879372 352.445618,72.732407 
	C351.618500,77.723228 348.536591,80.661850 342.945740,81.164062 
z"/>
<path fill="#030303" opacity="1.000000" stroke="none" 
	d="
M432.606750,90.615067 
	C426.554169,108.777969 420.685699,126.586548 414.770660,144.379639 
	C412.491821,151.234619 408.509888,154.679428 402.947784,154.792877 
	C397.257019,154.908951 393.277222,151.489014 390.764862,144.254227 
	C382.113342,119.340515 373.435638,94.435791 364.853760,69.498116 
	C361.863586,60.809204 367.332916,53.522476 375.602234,55.009182 
	C380.276581,55.849564 382.453094,59.246361 383.884216,63.398396 
	C389.559387,79.863899 395.274872,96.315498 400.980865,112.770348 
	C401.412262,114.014404 401.886902,115.243462 402.614258,117.221436 
	C407.189270,103.541168 411.548828,90.512650 415.902832,77.482269 
	C417.584320,72.449890 419.157715,67.378929 420.952881,62.387592 
	C423.060364,56.528027 428.143860,53.721611 433.401306,55.307381 
	C438.894012,56.964111 441.738281,62.413986 439.900330,68.499283 
	C437.694550,75.802460 435.162872,83.007202 432.606750,90.615067 
z"/>
<path fill="#060606" opacity="1.000000" stroke="none" 
	d="
M88.216064,284.579773 
	C85.752403,284.487488 83.724953,284.595428 81.772163,284.263763 
	C76.770027,283.414154 73.520668,279.419342 73.564430,274.457825 
	C73.607887,269.529694 77.000839,265.566589 81.977921,264.826721 
	C83.779488,264.558929 85.631165,264.555267 87.460007,264.554718 
	C133.453384,264.541107 179.446762,264.539398 225.440140,264.559570 
	C227.432709,264.560455 229.465271,264.580414 231.409576,264.953979 
	C235.821503,265.801636 238.909988,269.668823 239.055847,274.195068 
	C239.202377,278.742188 236.425568,282.894928 232.100891,283.971741 
	C229.876877,284.525482 227.483551,284.555023 225.166565,284.556580 
	C179.673141,284.587646 134.179703,284.579742 88.216064,284.579773 
z"/>
<path fill="#060606" opacity="1.000000" stroke="none" 
	d="
M175.999756,372.579773 
	C146.008972,372.579773 116.518173,372.590881 87.027435,372.556885 
	C84.876549,372.554413 82.655792,372.506470 80.589935,371.989960 
	C76.251244,370.905243 73.451401,366.797150 73.585556,362.243652 
	C73.718536,357.729614 76.814529,353.801178 81.205330,352.965973 
	C83.311424,352.565369 85.513344,352.560913 87.671944,352.559906 
	C133.490936,352.538940 179.309937,352.540894 225.128937,352.546631 
	C234.431488,352.547791 238.959488,355.759338 239.064011,362.380310 
	C239.171371,369.181854 234.492386,372.576263 224.984512,372.578613 
	C208.822922,372.582642 192.661346,372.579773 175.999756,372.579773 
z"/>
<path fill="#060606" opacity="1.000000" stroke="none" 
	d="
M236.359314,311.706726 
	C241.930710,320.516998 237.936981,328.501892 228.015228,328.525177 
	C180.234421,328.637177 132.453171,328.607452 84.672195,328.543518 
	C77.773628,328.534302 73.484329,324.389862 73.570114,318.400085 
	C73.657059,312.328705 78.027702,308.580414 85.501747,308.569031 
	C120.629906,308.515564 155.758194,308.544464 190.886444,308.544037 
	C202.706848,308.543915 214.533081,308.339813 226.343887,308.676514 
	C229.613907,308.769745 232.838104,310.470703 236.359314,311.706726 
z"/>
<path fill="#060606" opacity="1.000000" stroke="none" 
	d="
M173.519989,415.853271 
	C168.112457,412.404419 166.278397,408.653168 167.493179,404.174225 
	C168.833740,399.231567 172.308441,396.623566 178.398270,396.586090 
	C194.880493,396.484680 211.364334,396.467957 227.846329,396.586761 
	C234.849609,396.637238 239.082489,400.617401 239.066299,406.586578 
	C239.050171,412.535492 234.726044,416.508881 227.789017,416.547180 
	C211.473145,416.637329 195.156387,416.594971 178.840134,416.552643 
	C177.192307,416.548401 175.545425,416.178802 173.519989,415.853271 
z"/>
<path fill="#060606" opacity="1.000000" stroke="none" 
	d="
M236.359161,443.706879 
	C241.932297,452.520538 237.939209,460.420715 228.010086,460.527161 
	C211.527069,460.703857 195.040451,460.638275 178.556030,460.548676 
	C171.649643,460.511169 167.189560,456.486267 167.127747,450.641815 
	C167.066223,444.824127 171.516113,440.641144 178.389832,440.590607 
	C194.873856,440.469391 211.361435,440.417358 227.842209,440.677826 
	C230.603027,440.721466 233.336868,442.472168 236.359161,443.706879 
z"/>
<path fill="#64DCF3" opacity="1.000000" stroke="none" 
	d="
M217.353058,196.949844 
	C218.276764,204.843536 219.017975,212.386932 219.794907,220.294113 
	C177.196045,220.294113 135.637985,220.294113 94.075340,220.294113 
	C94.075340,213.476059 93.373528,206.782639 94.269524,200.310410 
	C95.195656,193.620468 99.879570,189.060684 106.372635,186.933899 
	C116.633072,183.573074 126.916786,180.254776 137.313324,177.358902 
	C139.790771,176.668823 142.753265,177.720078 146.009354,178.017624 
	C146.009354,182.100693 145.919495,185.726196 146.029556,189.345642 
	C146.212921,195.375565 150.362610,199.764694 155.830444,199.874741 
	C161.492065,199.988724 165.811295,195.497681 165.979599,189.197876 
	C166.072342,185.725906 165.996216,182.249435 165.996216,177.289810 
	C170.548950,177.667587 174.763168,177.443985 178.655502,178.457047 
	C187.330826,180.715027 195.848480,183.580658 204.424255,186.218552 
	C210.068726,187.954773 214.607071,191.070084 217.353058,196.949844 
z"/>
<path fill="#FCCEC5" opacity="1.000000" stroke="none" 
	d="
M130.668671,143.126770 
	C129.380875,135.683914 128.280441,128.579849 127.132637,121.169899 
	C145.368607,119.209068 161.836761,115.746536 176.790848,107.310104 
	C185.564407,116.647987 186.727219,135.395645 179.362015,146.753937 
	C172.398178,157.493195 159.154694,162.159393 147.067062,158.005905 
	C139.651505,155.457809 134.206787,150.601166 130.668671,143.126770 
z"/>
<path fill="#FCCB68" opacity="1.000000" stroke="none" 
	d="
M131.594055,70.585648 
	C143.160110,60.412865 155.990753,58.044964 169.839264,63.645744 
	C181.981171,68.556328 188.760040,78.101410 191.276123,91.059944 
	C190.568771,90.996773 190.184143,91.081337 190.039154,90.932487 
	C181.001785,81.653419 179.887634,81.723106 168.610870,88.764381 
	C154.246490,97.733597 138.096451,100.312294 121.070023,101.300285 
	C119.381020,89.201775 123.065384,79.272522 131.594055,70.585648 
z"/>
<path fill="#FA7B94" opacity="1.000000" stroke="none" 
	d="
M399.751709,224.586090 
	C367.966431,224.585556 336.651489,224.609116 305.336639,224.569885 
	C295.929138,224.558090 290.558014,219.784622 290.868439,211.942307 
	C291.089783,206.351334 295.050964,201.805267 300.570343,200.898621 
	C301.878540,200.683716 303.222839,200.605698 304.550598,200.605072 
	C337.198059,200.589630 369.845551,200.561691 402.492920,200.615860 
	C410.444061,200.629044 415.383118,204.512695 416.105377,210.940628 
	C416.883179,217.862839 412.667847,223.339737 405.700531,224.318192 
	C403.897400,224.571411 402.049408,224.505463 399.751709,224.586090 
z"/>
<path fill="#86DB8C" opacity="1.000000" stroke="none" 
	d="
M380.000122,288.602203 
	C387.993591,288.604034 395.488525,288.512817 402.980072,288.633026 
	C411.130188,288.763794 416.151184,293.337433 416.203125,300.423828 
	C416.255066,307.510468 411.241730,312.502991 403.232941,312.532318 
	C370.095764,312.653656 336.957672,312.652588 303.820496,312.532806 
	C295.845245,312.503967 290.798798,307.484467 290.849457,300.425598 
	C290.900360,293.331207 295.908203,288.672028 304.066254,288.641479 
	C329.210571,288.547333 354.355469,288.604156 380.000122,288.602203 
z"/>
<path fill="#00C8ED" opacity="1.000000" stroke="none" 
	d="
M397.857880,400.588806 
	C366.563660,400.587891 335.750275,400.621796 304.937012,400.564850 
	C295.905701,400.548157 290.613098,395.713257 290.862457,388.044098 
	C291.051208,382.237671 295.148438,377.661682 300.960846,376.842407 
	C302.274719,376.657196 303.616394,376.601685 304.945312,376.601196 
	C337.424225,376.588715 369.903198,376.564026 402.382050,376.612274 
	C410.181976,376.623840 415.044556,380.207611 416.038605,386.331665 
	C417.181519,393.372986 412.917084,399.300415 405.812195,400.286957 
	C403.354462,400.628204 400.831757,400.501740 397.857880,400.588806 
z"/>
</svg>