<svg width="605" height="640" viewBox="0 0 605 640" fill="none" xmlns="http://www.w3.org/2000/svg">
<g clip-path="url(#clip0_1_201)" filter="url(#filter0_dd_1_201)">
<path d="M241.077 480.095C295.398 480.095 349.134 480.177 402.868 479.968C408.299 479.947 410.086 481.444 409.859 487.284C409.439 498.094 409.897 508.938 409.669 519.76C409.562 524.875 410.497 528.859 415.939 530.227C415.939 532.9 416.309 535.474 415.818 537.849C415.446 539.645 414.311 541.671 412.928 542.75C408.725 546.029 408.629 550.729 413.024 553.879C417.216 556.882 416.94 564.55 413.232 567.95C411.35 569.676 409.951 573.074 409.886 575.757C409.556 589.491 409.733 603.238 409.732 616.981C409.732 619.013 409.732 621.045 409.732 623.411C348.454 623.411 287.754 623.411 226.5 623.411C226.5 620.912 226.5 618.677 226.5 616.443C226.5 573.966 226.499 531.489 226.5 489.013C226.5 480.095 226.502 480.095 235.176 480.095C236.948 480.095 238.72 480.095 241.077 480.095ZM393.518 530.581C393.517 522.669 393.552 514.757 393.506 506.846C393.465 499.692 391.481 497.558 384.707 497.554C340.422 497.529 296.137 497.524 251.852 497.595C249.758 497.598 247.222 497.76 245.695 498.976C244.103 500.245 242.442 503.065 242.726 504.869C243.023 506.759 245.37 508.692 247.25 509.766C248.638 510.56 250.714 510.046 252.483 510.046C293.029 510.054 333.574 510.052 374.12 510.052C376.414 510.052 378.708 510.052 381.378 510.052C381.506 512.894 381.669 514.922 381.677 516.951C381.71 524.863 381.799 532.777 381.654 540.686C381.569 545.311 383.874 548.24 387.75 548.319C391.947 548.404 393.613 544.877 393.525 540.556C393.466 537.643 393.516 534.727 393.518 530.581ZM381.694 573.872C383.28 576.24 384.52 579.106 386.619 580.729C387.458 581.378 391.643 579.528 391.811 578.4C392.534 573.527 393.412 568.168 392.157 563.627C390.984 559.383 383.973 560.362 382.486 564.862C381.677 567.308 381.921 570.142 381.694 573.872Z" fill="#72C0E7"/>
<path d="M207.937 103.563C208.89 94.0523 212.388 89.9701 220.655 88.6112C231.148 86.8867 241.636 85.0784 252.178 83.7706C263.731 82.3374 271.869 76.5478 276.721 65.1676C281.08 54.945 286.131 45.0548 290.713 34.9356C293.32 29.1804 297.3 25.4527 303.399 25.3429C309.762 25.2283 313.949 28.9566 316.665 34.9553C321.333 45.2654 326.397 55.3787 330.921 65.7568C335.769 76.8789 343.924 82.3678 355.216 83.7692C365.953 85.1017 376.622 87.0401 387.329 88.649C392.915 89.4884 396.792 92.5846 398.665 98.2034C400.64 104.127 399.12 109.305 395 113.604C386.87 122.085 378.756 130.589 370.438 138.86C362.53 146.724 360.125 156.112 362.092 167.225C364.154 178.875 365.851 190.596 367.719 202.284C368.653 208.133 367.134 213.069 362.579 216.622C357.84 220.319 352.763 220.406 347.588 217.532C337.496 211.928 327.332 206.463 317.321 200.702C308.055 195.37 299.07 195.44 289.829 200.838C280.197 206.464 270.336 211.648 260.624 217.123C255.333 220.106 250.114 220.617 245.059 216.835C239.992 213.045 238.682 207.703 239.738 201.404C241.66 189.938 243.342 178.425 245.322 166.97C247.198 156.119 244.882 146.833 237.179 139.11C229.177 131.089 221.145 123.079 213.557 114.632C211.009 111.795 209.781 107.632 207.937 103.563ZM341.392 148.268C341.717 161.891 342.042 175.513 342.368 189.185C336.816 186.099 330.842 182.511 324.657 179.395C310.258 172.143 295.842 172.432 281.569 179.95C277.69 181.994 274.631 184.968 277.106 189.76C279.405 194.214 283.346 193.132 286.95 191.244C298.734 185.073 310.34 185.457 321.898 192.036C330.551 196.962 339.209 201.905 348.088 206.343C350.212 207.404 353.978 207.516 355.609 206.18C357.225 204.856 357.901 201.043 357.591 198.513C356.56 190.092 355.201 181.685 353.421 173.404C349.524 155.283 353.737 140.282 367.319 128.101C373.454 122.599 378.815 116.139 384.641 110.241C387.745 107.098 389.252 103.6 386.112 99.9237C382.718 95.9494 379.409 98.1337 376.498 101.172C369.215 108.771 361.997 116.442 354.636 123.956C348.248 130.477 343.815 138.156 341.392 148.268ZM333.026 104.851C330.442 105.839 327.222 106.111 325.386 107.938C317.381 115.901 309.779 124.317 301.035 133.629C297.521 129.419 294.335 125.474 291.013 121.662C288.296 118.542 285.018 117.181 281.778 120.541C278.591 123.845 279.62 127.291 282.519 130.349C287.118 135.201 291.736 140.031 296.288 144.929C299.905 148.821 303.363 148.734 306.973 144.888C315.985 135.285 325.055 125.744 334.1 116.176C337.66 112.411 338.207 108.716 333.026 104.851ZM258.434 207.02C260.169 206.045 261.996 205.217 263.617 204.065C266.52 202 268.527 198.877 265.961 195.758C264.436 193.906 261.139 193.353 258.539 192.965C257.254 192.773 255.313 193.913 254.422 195.089C252.521 197.6 249.706 200.591 249.817 203.267C249.997 207.596 253.912 208.124 258.434 207.02Z" fill="#EEBF20"/>
<path d="M256.949 311.251C256.953 303.759 256.771 296.885 257.003 290.027C257.368 279.217 264.204 271.708 273.344 271.703C282.757 271.698 289.521 279.489 289.615 290.622C289.697 300.401 289.605 310.182 289.642 319.962C289.695 333.751 296.722 341.261 309.604 341.281C326.324 341.309 343.045 341.259 359.765 341.298C372.669 341.329 379.076 347.991 379.126 361.501C379.188 377.904 379.141 394.306 379.141 411.137C338.333 411.137 297.942 411.137 256.948 411.137C256.948 377.96 256.948 344.918 256.949 311.251Z" fill="#FCB49D"/>
<path d="M43.5949 215.992C44.0998 212.583 44.2612 209.624 45.0231 206.849C48.5343 194.063 44.6803 184.156 35.1614 175.926C30.4541 171.857 25.9411 167.347 22.1589 162.344C20.1089 159.632 18.2328 154.933 19.1041 152.105C19.9846 149.247 24.0984 146.411 27.2488 145.642C35.2678 143.684 43.5312 142.819 51.7129 141.642C59.6251 140.503 64.9802 135.92 68.4008 128.441C71.8239 120.957 74.9482 113.263 79.0367 106.201C80.8369 103.091 84.6142 99.618 87.6496 99.4496C90.2992 99.3025 94.069 102.992 95.76 105.987C99.8786 113.282 103.079 121.157 106.647 128.799C110.017 136.014 115.28 140.48 122.958 141.597C130.748 142.731 138.522 143.992 146.304 145.184C156.673 146.773 159.093 152.836 153.614 162.033C152.135 164.515 152.607 168.297 153.545 171.794C151.094 174.192 148.644 176.59 145.69 179.481C144.976 179.135 143.621 177.919 142.317 177.977C140.326 178.066 137.762 178.44 136.574 179.8C135.395 181.15 134.903 184.061 135.357 185.952C136.798 191.942 135.456 196.894 132.23 201.876C130.851 204.004 130.155 207.213 130.39 209.805C130.912 215.58 132.746 221.25 132.998 227.014C133.144 230.351 132.191 235.219 130.033 236.799C127.609 238.573 122.801 238.604 119.855 237.303C112.447 234.032 105.481 229.628 98.3794 225.596C91.0369 221.427 83.8125 221.37 76.4569 225.661C69.5737 229.677 62.7351 233.883 55.5156 237.098C52.4996 238.441 48.1185 238.54 45.1294 237.233C41.009 235.43 40.9016 230.723 41.7849 226.335C42.4397 223.082 42.9521 219.797 43.5949 215.992ZM121.607 214.411C121.227 212.161 120.973 209.877 120.444 207.666C116.787 192.354 120.909 179.796 132.222 169.67C134.17 167.926 136.6 166.178 137.474 163.867C138.396 161.432 138.774 157.223 137.454 155.803C136.048 154.292 131.317 153.842 129.861 155.168C119.992 164.157 110.234 173.557 108.093 188.212C107.319 193.509 107.5 198.961 107.22 204.888C105.266 204.059 103.55 202.961 101.71 202.621C96.1418 201.591 90.5232 200.291 84.9286 200.313C82.9981 200.321 79.6139 203.859 79.5584 205.867C79.4998 207.984 82.6909 212.123 84.3484 212.059C94.8581 211.655 103.22 217.174 111.995 221.817C117.78 224.878 120.925 222.698 121.607 214.411ZM61.3661 208.859C59.4471 209.892 57.3344 210.656 55.6506 212.014C52.4323 214.611 51.8185 218.411 54.9208 220.983C56.6932 222.453 60.3121 222.424 62.7672 221.738C66.1972 220.78 69.8911 218.397 68.3656 213.847C67.6304 211.654 64.3975 210.398 61.3661 208.859Z" fill="#FA5D3D"/>
<path d="M561.142 195.356C562.581 205.959 563.943 216.032 565.558 226.059C566.265 230.451 566.482 235.246 562.433 237.059C559.329 238.45 554.738 238.311 551.571 236.916C544.347 233.733 537.588 229.369 530.647 225.469C523.512 221.46 516.421 221.37 509.254 225.47C502.17 229.521 495.189 233.873 487.795 237.171C484.807 238.503 479.876 238.775 477.595 236.995C475.317 235.218 474.149 230.173 474.43 226.737C475.087 218.696 476.897 210.759 478.252 202.783C479.746 193.989 477.973 186.35 471.597 180.06C465.7 174.243 459.71 168.465 454.401 162.075C452.379 159.641 450.714 155.108 451.483 152.339C452.252 149.572 455.996 147.158 458.936 145.798C461.891 144.43 465.672 145.114 468.702 143.852C471.446 142.709 474.019 140.488 476.01 138.123C477.755 136.052 485.023 132.963 487.667 134.754C491.079 137.066 494.701 138.379 496.842 134.393C498.194 131.876 497.094 127.886 496.301 124.543C497.797 120.02 498.342 113.899 505.641 114.099C507.291 114.144 509.36 109.755 510.693 107.101C512.808 102.891 514.983 98.8742 520.127 98.9969C524.94 99.1117 527.161 102.847 529.021 106.966C532.323 114.277 535.748 121.525 539.129 128.795C542.487 136.012 547.752 140.473 555.425 141.591C563.404 142.754 571.37 144.021 579.338 145.265C583.597 145.93 588.302 147.18 588.493 152.325C588.626 155.89 586.828 160.27 584.548 163.053C579.412 169.322 572.992 174.428 567.975 180.786C564.869 184.721 563.381 190.085 561.142 195.356ZM553.597 163.764C542.41 174.775 538.437 188.565 540.052 203.674C532.867 202.39 526.038 200.923 519.143 200.034C515.338 199.543 511.798 200.933 511.723 205.866C511.645 210.946 514.978 211.951 519.173 212.623C524.697 213.508 530.164 215.158 535.471 217.056C538.965 218.305 542.057 220.758 545.468 222.337C550.216 224.534 554.179 221.683 554.143 216.193C554.131 214.352 553.772 212.475 553.329 210.681C549.22 194.045 552.5 179.865 565.531 168.813C567.055 167.52 568.33 165.899 569.73 164.441C572.411 161.647 572.766 158.485 570.219 155.61C567.439 152.472 564.219 152.984 561.361 155.728C558.889 158.1 556.578 160.66 553.597 163.764ZM495.704 208.695C493.039 209.893 490.082 210.657 487.78 212.394C484.554 214.83 484.927 219.533 488.071 221.947C490.98 224.181 498.64 222.025 500.377 218.049C502.207 213.859 501.331 210.312 495.704 208.695Z" fill="#FA5D3D"/>
<path d="M311.953 424.052C336.35 424.052 360.156 424.042 383.962 424.057C392.751 424.063 394.634 426.079 394.643 435.398C394.654 445.959 394.646 456.521 394.646 467.339C343.478 467.339 292.785 467.339 241.428 467.339C241.428 455.148 241.125 442.939 241.568 430.759C241.762 425.404 245.918 424.008 250.569 424.023C270.833 424.091 291.098 424.052 311.953 424.052Z" fill="#FCFCFC"/>
<path d="M393.518 531.197C393.516 534.727 393.466 537.643 393.525 540.556C393.613 544.877 391.947 548.404 387.75 548.319C383.874 548.24 381.569 545.311 381.654 540.686C381.799 532.777 381.71 524.863 381.677 516.951C381.669 514.922 381.506 512.894 381.378 510.052C378.708 510.052 376.414 510.052 374.12 510.052C333.574 510.052 293.029 510.054 252.483 510.046C250.714 510.046 248.638 510.56 247.25 509.766C245.37 508.692 243.023 506.759 242.726 504.869C242.442 503.065 244.103 500.245 245.695 498.976C247.222 497.76 249.758 497.598 251.852 497.595C296.137 497.524 340.422 497.529 384.707 497.554C391.481 497.558 393.465 499.692 393.506 506.846C393.552 514.757 393.517 522.669 393.518 531.197Z" fill="#C3E4FF"/>
<path d="M381.692 573.337C381.921 570.142 381.677 567.307 382.486 564.862C383.974 560.362 390.984 559.383 392.157 563.627C393.412 568.168 392.534 573.527 391.811 578.4C391.643 579.527 387.459 581.378 386.619 580.729C384.52 579.106 383.28 576.24 381.692 573.337Z" fill="#C2E4FE"/>
<path d="M341.469 147.751C343.815 138.156 348.248 130.477 354.636 123.956C361.997 116.442 369.215 108.772 376.498 101.172C379.409 98.1337 382.718 95.9494 386.112 99.9237C389.252 103.6 387.745 107.098 384.641 110.241C378.815 116.139 373.454 122.599 367.319 128.101C353.737 140.283 349.524 155.283 353.42 173.404C355.201 181.685 356.56 190.092 357.591 198.513C357.901 201.043 357.225 204.856 355.609 206.18C353.978 207.516 350.211 207.404 348.088 206.343C339.209 201.905 330.551 196.962 321.898 192.036C310.34 185.457 298.734 185.073 286.95 191.244C283.346 193.132 279.405 194.214 277.106 189.76C274.631 184.968 277.69 181.994 281.569 179.95C295.842 172.432 310.258 172.143 324.657 179.395C330.842 182.511 336.816 186.099 342.368 189.185C342.042 175.513 341.717 161.891 341.469 147.751Z" fill="#F9E4AC"/>
<path d="M333.438 105C338.207 108.716 337.66 112.411 334.1 116.176C325.055 125.744 315.985 135.285 306.973 144.888C303.363 148.734 299.905 148.821 296.288 144.93C291.736 140.031 287.118 135.201 282.519 130.35C279.62 127.291 278.591 123.845 281.778 120.541C285.018 117.181 288.296 118.542 291.013 121.662C294.335 125.475 297.521 129.419 301.035 133.629C309.78 124.317 317.381 115.901 325.386 107.938C327.222 106.111 330.442 105.839 333.438 105Z" fill="#050401"/>
<path d="M257.996 207.197C253.912 208.124 249.997 207.596 249.817 203.267C249.706 200.591 252.521 197.6 254.422 195.089C255.313 193.914 257.254 192.773 258.539 192.965C261.139 193.353 264.436 193.906 265.961 195.758C268.527 198.877 266.52 202.001 263.617 204.065C261.996 205.217 260.169 206.045 257.996 207.197Z" fill="#F9E4AA"/>
<path d="M121.648 214.934C120.925 222.698 117.78 224.878 111.995 221.817C103.22 217.174 94.8581 211.655 84.3484 212.059C82.691 212.123 79.4999 207.984 79.5584 205.867C79.6139 203.859 82.9981 200.321 84.9286 200.313C90.5232 200.291 96.1418 201.591 101.71 202.621C103.55 202.961 105.266 204.059 107.22 204.888C107.5 198.961 107.319 193.509 108.093 188.212C110.234 173.557 119.992 164.157 129.861 155.168C131.317 153.842 136.048 154.292 137.454 155.803C138.774 157.223 138.396 161.432 137.474 163.868C136.6 166.178 134.17 167.926 132.223 169.67C120.909 179.796 116.787 192.354 120.444 207.666C120.973 209.877 121.227 212.161 121.648 214.934Z" fill="#FFC9C0"/>
<path d="M61.8309 208.788C64.3975 210.398 67.6304 211.654 68.3657 213.847C69.8912 218.397 66.1972 220.78 62.7673 221.738C60.3121 222.424 56.6932 222.453 54.9209 220.984C51.8185 218.411 52.4324 214.611 55.6507 212.014C57.3344 210.656 59.4472 209.892 61.8309 208.788Z" fill="#FFC7BE"/>
<path d="M553.896 163.45C556.578 160.66 558.889 158.1 561.361 155.728C564.219 152.984 567.439 152.472 570.219 155.61C572.766 158.485 572.411 161.647 569.73 164.441C568.33 165.899 567.055 167.52 565.531 168.813C552.5 179.865 549.22 194.045 553.329 210.681C553.772 212.475 554.131 214.352 554.143 216.193C554.179 221.683 550.216 224.534 545.468 222.337C542.057 220.758 538.965 218.305 535.471 217.056C530.164 215.158 524.697 213.508 519.173 212.623C514.978 211.951 511.645 210.946 511.723 205.866C511.798 200.933 515.338 199.543 519.143 200.034C526.038 200.923 532.867 202.39 540.052 203.674C538.437 188.565 542.41 174.775 553.896 163.45Z" fill="#FFC9C0"/>
<path d="M496.175 208.731C501.331 210.312 502.207 213.859 500.377 218.049C498.64 222.025 490.98 224.181 488.071 221.947C484.927 219.533 484.554 214.83 487.78 212.394C490.082 210.657 493.04 209.893 496.175 208.731Z" fill="#FFC7BE"/>
</g>
<defs>
<filter id="filter0_dd_1_201" x="-4" y="0" width="613" height="648" filterUnits="userSpaceOnUse" color-interpolation-filters="sRGB">
<feFlood flood-opacity="0" result="BackgroundImageFix"/>
<feColorMatrix in="SourceAlpha" type="matrix" values="0 0 0 0 0 0 0 0 0 0 0 0 0 0 0 0 0 0 127 0" result="hardAlpha"/>
<feOffset dy="4"/>
<feGaussianBlur stdDeviation="2"/>
<feComposite in2="hardAlpha" operator="out"/>
<feColorMatrix type="matrix" values="0 0 0 0 0 0 0 0 0 0 0 0 0 0 0 0 0 0 0.25 0"/>
<feBlend mode="normal" in2="BackgroundImageFix" result="effect1_dropShadow_1_201"/>
<feColorMatrix in="SourceAlpha" type="matrix" values="0 0 0 0 0 0 0 0 0 0 0 0 0 0 0 0 0 0 127 0" result="hardAlpha"/>
<feOffset dy="4"/>
<feGaussianBlur stdDeviation="2"/>
<feComposite in2="hardAlpha" operator="out"/>
<feColorMatrix type="matrix" values="0 0 0 0 0 0 0 0 0 0 0 0 0 0 0 0 0 0 0.25 0"/>
<feBlend mode="normal" in2="effect1_dropShadow_1_201" result="effect2_dropShadow_1_201"/>
<feBlend mode="normal" in="SourceGraphic" in2="effect2_dropShadow_1_201" result="shape"/>
</filter>
<clipPath id="clip0_1_201">
<rect width="605" height="640" fill="white"/>
</clipPath>
</defs>
</svg>
