<?xml version="1.0" encoding="UTF-8"?>
<svg version="1.1" viewBox="0 0 2048 2048" width="512" height="512" xmlns="http://www.w3.org/2000/svg">
<path transform="translate(471,32)" d="m0 0h334l25 2 23 5 15 5 18 8 16 9 14 10 11 9 9 8 4 5 4 2 1014 1 12 2 12 5 10 7 8 7 9 13 5 13 2 13v68l-2 17-5 12-7 11-11 11-14 8-14 4-11 1v1152h8l16 4 11 6 11 9 8 10 7 14 2 8 1 10v67l-2 17-5 12-7 11-11 11-10 6-13 5-18 2h-958v383l-10 1h-757l-1-1v-383l-22-1-27-5-24-8-17-8-18-11-13-10-10-9-16-16-10-13-9-14-10-19-9-25-5-23-2-19v-263l3-29 5-27 8-28 8-21 11-24 10-18 14-21 10-13 9-11 4-5h2l2-4 17-17 11-9 8-7 18-13 18-11 22-12 23-10 27-9 25-6 49-8 73-11 40-6 3-1 5-23 16-79-1-4-17-12-26-22-15-16-8-10-13-18-12-21-11-23-10-30-26-2-18-4-14-5-16-8-13-9-13-12-10-11-10-15-8-17-5-16-3-17v-26l3-17 7-21 8-15 1-1v-8l-9-36-6-30-4-33v-37l3-24 6-27 9-26 10-22 10-17 11-16 10-13 11-12 17-17 14-11 15-11 24-14 17-8 25-9 26-6 21-3z" fill="#010000"/>
<path transform="translate(981,288)" d="m0 0h906l1 1v1150h-423l6-8 10-16 8-16 6-16 5-20 3-23 1-63v-667l-2-22-4-17-6-16-9-17-10-13-10-11-17-13-16-9-20-7-14-3-7-1h-26l-22 4-19 7-11 6-12 8-14 12-12 14-12 20-8 22-3 16-1 8-1 22-10 7-14 11-10 10-10 14-9 17-7 21-3 21v20l3 18 6 19 10 19 9 12 12 13 22 22 1 2v227l-4-2-93-93-8-7-13-11-19-14-22-14-24-13-18-8-20-8-23-7-26-6-33-5-159-16-23-2-4-16-17-85v-5l16-11 9-7 13-11 21-21 8-10 11-15 9-15 10-19 10-25 5-17 2-2 25-2 19-4 19-7 14-8 11-8 10-9 7-7 11-15 9-17 6-18 4-23v-19l-3-20-7-21-8-16-12-16-9-10-15-12-10-6 1-4 17-17 13-17 9-15 8-16 5-12z" fill="#F4F6F7"/>
<path transform="translate(1313,864)" d="m0 0h126l1 1v455l-1 26-4 17-6 15-6 11-10 13-13 13-13 9-16 8-15 5-9 2-12 1h-10l-18-2-16-5-19-9-17-13-13-10-16-13-14-11-17-14-14-11-15-12-14-11-11-9-16-13-10-8-14-11-16-13-14-11-16-13-14-11-16-13-14-11-16-13-3-4v-79h-64v831l-121 1h-518l-1-1v-318l1-1h62l1 2v121l1 15 3 12 7 14 11 12 14 9 10 4 11 2h399l16-4 11-6 10-8 9-11 6-13 3-13v-528l-3-13-7-14-8-10-11-9-15-7-10-2-12-1h-33l-8-1 2-5 9-17 9-19 10-19 32-64 8-17 9-17 9-19 10-19 8-17 9-17 5-10 4-1 58 6 32 5 27 7 22 8 20 9 17 9 19 12 13 10 13 11 15 14 131 131 1 3v81h64v-383z" fill="#4BC0EB"/>
<path transform="translate(339,949)" d="m0 0 4 1 10 19 107 214-7 1h-14l-33 1-12 3-12 6-10 8-8 9-6 10-4 12-1 6-1 50v86l-63 1-1-1v-255h-64v273l-3 5-50 50 1 4 16 15 24 24v2l5-1 52-52h210l1 1v126l-100 1h-139l-33-1-17-3-17-6-16-8-14-10-10-9-8-8-11-15-9-17-6-18-3-17-1-16v-240l1-19 4-25 5-21 7-21 9-21 11-20 8-12 9-12 9-11 14-15 13-12 20-15 19-12 16-8 18-8 21-7 20-5z" fill="#4BC0EB"/>
<path transform="translate(500,96)" d="m0 0h52l263 1 16 3 18 6 16 8 13 9 12 11 8 8 9 12 9 16 6 15 4 17 1 7v31l-4 19-6 16-7 14-11 16-11 12-11 9-16 10-15 7-19 6-14 2h-219l-13-4-11-6-12-11-6-9-5-11-2-9v-26l4-13 5-10 9-11 12-9 11-5 16-3h10l13 2 12 5 12 8 9 9 8 13 4 11 2 16h60l4-1-1-13-3-17-5-15-8-17-7-11-8-10-4-4v-2l-4-2-10-9-16-10-14-7-18-6-16-3-12-1h-11l-17 2-19 5-16 7-14 9-11 9-12 12-10 14-10 19-6 18-2 7-26 8-16 7-14 8-11 8-13 11-9 9-11 14-8 13-6 11-32 2-15 3-18 6h-5l-6-33-3-25v-34l3-20 6-23 8-20 11-21 10-14 9-11 9-10 8-7 12-10 15-10 18-10 15-6 19-6 21-4 8-1z" fill="#AD7947"/>
<path transform="translate(482,328)" d="m0 0 5 1 6 15 9 16 9 12 9 10 14 11 15 9 14 6 13 4 21 3 202 1 1 1v103l-1 46-4 22-6 21-9 21-11 19-11 15-9 10-5 6h-2l-1 3-8 7-10 8-18 12-17 9-21 8-19 5-17 3-13 1h-20l-20-2-23-5-20-7-21-10-17-11-14-11-15-14-7-8-13-17-9-15-9-19-7-20-5-23-2-21v-143l3-16 6-16 7-12 7-9 5-6 11-9 13-8z" fill="#F0CFB2"/>
<path transform="translate(981,160)" d="m0 0h970l1 3-1 60h-959l-3-29-5-23-3-8z" fill="#A8B2BA"/>
<path transform="translate(993,1504)" d="m0 0h958v63h-959v-62z" fill="#A8B2BA"/>
<path transform="translate(797,1615)" d="m0 0h3v144h-384v-126l1-1 325-1 21-3 16-5 12-5z" fill="#F4F6F7"/>
<path transform="translate(417,1248)" d="m0 0h382l1 1v144l-6-2-11-5-18-6-17-3-24-1-8-11-6-8-11-12-14-11-14-8-11-5-15-5-18-3h-26l-21 4-17 6-16 9-12 9-12 11-23 23-7 1h-76l-1-1v-126z" fill="#F3F5F6"/>
<path transform="translate(608,1376)" d="m0 0h14l13 3 12 6 10 8 8 9 8 14 11 23 60 1 16 4 11 6 13 11 7 10 6 12 3 14v12l-2 12-5 13-8 11-11 11-10 6-11 4-16 2h-190l-3-1v-146l15-15 7-8 10-9 11-7 14-5z" fill="#F0CEB2"/>
<path transform="translate(1368,544)" d="m0 0h16l16 4 14 8 8 7 9 12 5 10 3 10 1 11v192l-1 1-69 1h-76l-8-7-23-23-7-10-6-13-2-9v-16l4-16 6-11 9-11 10-7 27-14 6-3 1-1 1-59 3-13 8-16 11-12 10-7 13-6z" fill="#F0CFB2"/>
<path transform="translate(1568,991)" d="m0 0h256v65h-257v-49z" fill="#010000"/>
<path transform="translate(1568,863)" d="m0 0h256v65h-257v-42z" fill="#010000"/>
<path transform="translate(1056,351)" d="m0 0h256v65h-256l-1-1z" fill="#010000"/>
<path transform="translate(539,562)" d="m0 0 3 1 5 10 9 12 7 7 13 8 13 5 10 2h16l15-3 14-6 12-9 10-11 9-16 6 2 50 25 1 4-9 16-8 11-9 10-5 5-10 9-15 10-16 8-18 6-15 3-10 1h-18l-21-3-20-6-16-8-12-7-11-9-11-10-13-17-9-15-2-4 1-4z" fill="#010000"/>
<path transform="translate(992,1284)" d="m0 0 4 1 9 8 13 10 16 13 15 12 14 11 16 13 14 11 16 13 14 11 11 9 15 12 14 11 11 9 13 10-1 2h-69l-125-1z" fill="#F3F5F6"/>
<path transform="translate(572,1056)" d="m0 0h72l2 4 20 120v3l-2 1h-114l-1-3 4-20 16-95 2-9z" fill="#FCD484"/>
<path transform="translate(534,789)" d="m0 0 5 1 23 5 21 3 13 1h23l29-3 24-5 6-2h4l10 48 4 19v7l-1 1h-176l1-9 11-53z" fill="#EFCDB1"/>
<path transform="translate(729,928)" d="m0 0 29 2 50 5-1 5-10 19-70 140-6 11-2 1-6-33-8-48v-8l16-63 7-29z" fill="#33A7D1"/>
<path transform="translate(480,928)" d="m0 0h6l3 8 18 71 4 16v9l-3 14-7 43-4 22-4-4-82-164-1-4 30-5z" fill="#33A7D1"/>
<path transform="translate(1696,1247)" d="m0 0h128v65h-129v-32z" fill="#010000"/>
<path transform="translate(1696,1119)" d="m0 0h128v65h-129v-31z" fill="#010000"/>
<path transform="translate(1056,479)" d="m0 0h119l9 1v64h-128l-1-3z" fill="#010000"/>
<path transform="translate(344,416)" d="m0 0h7l1 1v126l-1 1-13-1-12-4-12-7-9-8-9-12-5-11-3-12v-17l3-13 8-16 11-12 10-7 11-5 6-2z" fill="#EECDB0"/>
<path transform="translate(864,416)" d="m0 0 14 1 16 6 10 7 7 6 9 12 6 14 2 12v12l-2 11-5 13-8 11-5 6-11 8-10 5-10 3-13 1z" fill="#EFCDB1"/>
<path transform="translate(553,928)" d="m0 0h110l-2 9-13 52-1 2-3 1h-74l-2-2-15-60z" fill="#FBD283"/>
<path transform="translate(432,966)" d="m0 0 3 2 2 6 3-1 2 2 2 6 2 5v3l3 1 1 4v4l2 2 2 6 3 6 5 11-1 3-16-32-8-15-5-11z" fill="#4ABFEA"/>
<path transform="translate(726,959)" d="m0 0 2 3-1 4 1 5-3 1 2 2-2 1-2 7-5 3 3-11 2-5-1-2 3-7z" fill="#48BDE8"/>
<path transform="translate(729,928)" d="m0 0 7 1-1 9-1 4-4 1-1-4 1-2z" fill="#4ABEE9"/>
<path transform="translate(482,1082)" d="m0 0 3 3 5 10 4 4 2-1v4l-2 1-1 3-10-19z" fill="#46BBE6"/>
<path transform="translate(451 1e3)" d="m0 0 4 2 4 9 3 7-1 3-8-16z" fill="#4CC1EC"/>
<path transform="translate(724,973)" d="m0 0 3 1-2 1-2 7-5 3 3-10z" fill="#4ABFEA"/>
<path transform="translate(1291,795)" d="m0 0h2l1 2 23 1v1h-25z" fill="#F5F4F2"/>
<path transform="translate(726,959)" d="m0 0 2 3-2 4-4 3 2-8z" fill="#4ABFEA"/>
</svg>
