<svg version="1.1" id="Layer_1" xmlns="http://www.w3.org/2000/svg" xmlns:xlink="http://www.w3.org/1999/xlink" x="0px" y="0px"
	 width="100%" viewBox="0 0 512 512" enable-background="new 0 0 512 512" xml:space="preserve">
<path fill="#E9EFFF" opacity="1.000000" stroke="none" 
	d="
M283.000000,513.000000 
	C262.312439,513.000000 241.624878,513.000000 220.779816,512.641968 
	C217.394119,511.523285 214.199448,510.547882 210.932129,510.037750 
	C193.722290,507.350769 177.016800,502.900940 160.963928,495.714600 
	C158.568054,489.014893 156.683609,482.654419 158.885010,475.866272 
	C158.858261,475.873566 158.837936,475.821716 159.314301,475.871094 
	C184.182037,475.934662 208.573380,475.948822 233.435425,475.976715 
	C258.556488,475.991119 283.208832,476.139069 307.854919,475.814178 
	C311.097015,475.771454 314.940826,474.024689 317.410278,471.832733 
	C324.124939,465.872772 330.284882,459.283203 336.600037,452.879425 
	C341.108429,448.307800 341.094055,445.659180 336.538239,441.046631 
	C329.867035,434.292175 323.250671,427.473022 316.318848,420.993927 
	C314.593170,419.380981 311.753998,418.145050 309.415833,418.126892 
	C284.267365,417.931519 259.116760,418.014984 233.501587,418.016663 
	C208.325409,418.029785 183.614365,418.048340 158.680634,418.024139 
	C158.457932,417.981384 158.027283,417.839142 157.971329,417.496765 
	C156.639969,415.059814 155.113831,413.075531 154.135376,410.850403 
	C150.979843,403.674316 154.443924,397.743225 158.186172,391.829041 
	C158.338577,391.769470 158.666229,391.790222 159.153503,391.838806 
	C183.744247,391.906647 207.847717,391.925873 232.422546,391.963959 
	C256.555328,391.984467 280.216736,391.971313 303.878113,391.997467 
	C310.410522,392.004700 316.030731,390.537537 320.574890,385.119507 
	C325.161652,379.650696 330.609283,374.905029 335.666809,369.829590 
	C341.364624,364.111542 341.380463,361.023560 335.566284,355.102295 
	C329.846008,349.276672 324.265167,343.277100 318.139862,337.904877 
	C315.767548,335.824249 312.081116,334.202332 308.972168,334.165619 
	C283.981262,333.870148 258.985229,334.003479 233.523102,334.000305 
	C208.358215,333.996796 183.661011,333.998749 158.728256,333.947754 
	C158.492722,333.894806 158.037781,333.733124 157.972351,333.396729 
	C151.529633,323.660583 151.051422,317.068481 159.474670,307.950745 
	C184.275055,307.943878 208.607361,307.932556 233.282471,307.948303 
	C234.083038,307.978149 234.540817,307.980835 235.427063,307.986389 
	C239.803085,307.662720 243.749390,307.072479 247.698380,307.054047 
	C268.139771,306.958496 288.584412,307.167450 309.021027,306.839813 
	C312.123993,306.790039 315.779022,305.160980 318.158142,303.090057 
	C324.035767,297.973785 329.154938,291.996246 334.901825,286.716309 
	C338.826904,283.110168 340.688934,279.238800 339.431274,274.007507 
	C341.507751,274.136566 343.169952,274.164124 344.794006,274.427246 
	C357.700531,276.518463 368.171509,283.078735 377.490173,291.964294 
	C383.333038,297.535553 389.540863,302.724091 395.622101,308.546387 
	C395.666595,359.246124 395.670532,409.483795 395.693054,459.721466 
	C395.694031,461.875580 395.866821,464.029633 395.784790,466.472015 
	C376.408997,481.069733 355.347809,491.969696 332.834351,499.888336 
	C317.328339,505.342194 301.379700,509.382111 284.931824,511.079041 
	C284.229279,511.151520 283.641327,512.334412 283.000000,513.000000 
z"/>
<path fill="#000000" opacity="1.000000" stroke="none" 
	d="
M283.468658,513.000000 
	C283.641327,512.334412 284.229279,511.151520 284.931824,511.079041 
	C301.379700,509.382111 317.328339,505.342194 332.834351,499.888336 
	C355.347809,491.969696 376.408997,481.069733 396.139465,466.387085 
	C405.788635,458.052521 414.908356,450.091217 424.335999,441.988342 
	C429.040100,437.121033 433.442780,432.401337 437.831146,427.668304 
	C449.223633,415.380981 458.435272,401.499207 466.446838,386.897644 
	C475.222900,370.902649 482.317047,354.177155 487.340668,336.509613 
	C493.096558,316.266846 496.274414,295.712708 496.900940,274.765778 
	C497.162231,266.030029 496.870117,257.200012 495.873535,248.522690 
	C494.407440,235.756958 492.952942,222.876129 489.894104,210.437668 
	C486.538055,196.790665 481.366638,183.590103 477.297974,170.046082 
	C484.064972,161.349960 491.811279,153.478073 496.708679,144.115921 
	C507.127350,124.198959 510.436279,102.890106 506.170349,80.331604 
	C502.460052,60.711254 493.782440,43.914703 480.121674,29.811615 
	C467.007202,16.272511 450.890869,7.454799 432.491699,2.951390 
	C431.557892,2.722827 430.825928,1.669387 430.000000,1.000003 
	C457.652008,1.000000 485.303986,1.000000 512.978027,1.000000 
	C512.978027,171.561478 512.978027,342.122955 512.978027,513.000000 
	C436.646057,513.000000 360.291687,513.000000 283.468658,513.000000 
z"/>
<path fill="#000000" opacity="1.000000" stroke="none" 
	d="
M160.957489,496.108643 
	C177.016800,502.900940 193.722290,507.350769 210.932129,510.037750 
	C214.199448,510.547882 217.394119,511.523285 220.311157,512.641968 
	C147.040955,513.000000 74.081924,513.000000 1.061442,513.000000 
	C1.061442,342.333344 1.061442,171.666672 1.061442,1.000000 
	C17.080589,1.000000 33.071636,1.000000 49.674511,1.360230 
	C49.227627,2.447922 48.264729,3.441253 47.095680,3.862556 
	C32.041759,9.287686 21.871511,26.344604 21.919783,40.647892 
	C22.078775,87.759560 21.921452,134.872299 21.565130,182.156158 
	C19.439880,188.038879 17.633400,193.749557 15.830652,199.461380 
	C9.546688,219.371552 6.798149,239.876801 6.067173,260.644073 
	C5.475633,277.449951 6.860578,294.136444 9.900549,310.730560 
	C12.615315,325.549500 15.783557,340.175537 21.927879,354.409058 
	C28.708263,373.913116 38.179138,391.601227 50.105530,408.393005 
	C56.341084,416.456940 61.782349,424.821564 68.604424,431.845001 
	C78.884949,442.428955 90.130402,452.075592 101.110046,462.435120 
	C101.963158,463.128723 102.705307,463.456787 103.375458,463.894989 
	C109.528763,467.918518 115.669586,471.961060 121.965454,476.327332 
	C135.063736,483.140625 148.010605,489.624634 160.957489,496.108643 
z"/>
<path fill="#0E62A8" opacity="1.000000" stroke="none" 
	d="
M49.929352,408.093323 
	C38.179138,391.601227 28.708263,373.913116 21.971073,353.941345 
	C21.987711,341.614288 22.011135,330.140656 22.002670,318.667023 
	C21.969059,273.106232 21.925489,227.545425 21.885609,181.984634 
	C21.921452,134.872299 22.078775,87.759560 21.919783,40.647892 
	C21.871511,26.344604 32.041759,9.287686 47.095680,3.862556 
	C48.264729,3.441253 49.227627,2.447922 50.143169,1.360230 
	C79.020897,1.000000 108.041786,1.000000 137.492767,1.358708 
	C136.282654,5.931944 133.250992,10.184453 133.364731,14.351103 
	C133.498154,19.239260 136.366196,24.052771 137.575928,28.937687 
	C113.199707,28.986813 89.295715,28.986900 65.391754,29.011984 
	C55.989208,29.021849 50.140278,34.741943 50.043137,44.106075 
	C49.963928,51.741211 50.032063,59.377876 50.033180,67.481644 
	C50.075878,107.313179 50.120258,146.676941 50.118534,186.504669 
	C50.065304,230.728531 50.071266,274.488434 50.046535,318.248352 
	C50.029610,348.196686 49.969925,378.144989 49.929352,408.093323 
z"/>
<path fill="#167CC1" opacity="1.000000" stroke="none" 
	d="
M138.048172,28.898657 
	C136.366196,24.052771 133.498154,19.239260 133.364731,14.351103 
	C133.250992,10.184453 136.282654,5.931944 137.961426,1.358708 
	C222.687561,1.000000 307.375122,1.000000 392.395203,1.346538 
	C391.771667,2.160764 390.851685,2.731796 389.853821,3.079418 
	C383.229553,5.387097 376.588593,7.646912 369.588531,9.924166 
	C359.797211,16.325554 350.370392,22.725082 340.479492,29.094345 
	C306.918518,29.053083 273.821655,29.022026 240.724792,29.036659 
	C206.797607,29.051659 172.870468,29.111362 138.719208,29.089367 
	C138.495117,29.027233 138.048172,28.898657 138.048172,28.898657 
z"/>
<path fill="#FFDD40" opacity="1.000000" stroke="none" 
	d="
M369.953064,9.922308 
	C376.588593,7.646912 383.229553,5.387097 389.853821,3.079418 
	C390.851685,2.731796 391.771667,2.160764 392.863831,1.346538 
	C405.020905,1.000000 417.041779,1.000000 429.531342,1.000003 
	C430.825928,1.669387 431.557892,2.722827 432.491699,2.951390 
	C450.890869,7.454799 467.007202,16.272511 480.121674,29.811615 
	C493.782440,43.914703 502.460052,60.711254 506.170349,80.331604 
	C510.436279,102.890106 507.127350,124.198959 496.708679,144.115921 
	C491.811279,153.478073 484.064972,161.349960 477.026794,170.043228 
	C475.965607,170.443512 475.487274,170.697739 474.841553,170.656204 
	C470.668945,168.058792 467.189270,165.419632 467.711212,160.034012 
	C467.742767,159.708389 467.096252,159.317047 466.806335,158.637726 
	C466.861603,157.891037 466.875732,157.462921 467.204407,156.892212 
	C470.767792,153.002197 474.422272,149.531097 477.195404,145.459686 
	C489.357452,127.603706 494.317505,108.010254 491.059845,86.422516 
	C487.893219,65.438164 478.120728,48.237461 461.752472,34.942226 
	C443.787903,20.350321 423.006714,14.242700 400.085297,17.214678 
	C392.226654,18.233631 384.679779,21.657391 376.664368,23.965021 
	C375.905487,23.904020 375.472687,23.860479 374.989929,23.475498 
	C371.632996,19.350950 369.244080,15.221299 369.953064,9.922308 
z"/>
<path fill="#D3DCFA" opacity="1.000000" stroke="none" 
	d="
M50.105530,408.393005 
	C49.969925,378.144989 50.029610,348.196686 50.046535,318.248352 
	C50.071266,274.488434 50.065304,230.728531 50.490707,186.435837 
	C66.639549,180.816620 82.678513,181.069916 98.881683,183.591064 
	C98.960899,193.044968 98.978394,202.043671 99.000900,211.042374 
	C99.022949,219.858292 102.162224,223.003616 111.048630,223.049622 
	C126.709412,223.130692 142.370316,223.187546 157.972076,223.587280 
	C154.150223,228.247345 151.742508,233.249588 153.144302,238.945938 
	C154.058762,242.662033 156.365616,246.035507 157.588379,249.667023 
	C141.328552,249.794983 125.528900,249.778091 109.729790,249.862518 
	C103.794800,249.894241 101.062233,252.522552 101.026855,258.300751 
	C100.944382,271.771790 100.951988,285.243866 101.023178,298.715027 
	C101.052841,304.330505 103.698303,307.203827 109.150307,307.222748 
	C125.777191,307.280426 142.404724,307.152954 159.021271,307.309570 
	C159.010559,307.521606 159.006577,307.946228 159.006577,307.946228 
	C151.051422,317.068481 151.529633,323.660583 157.504608,333.472717 
	C141.629089,333.902527 126.155823,333.901978 110.682693,333.945312 
	C103.569046,333.965240 101.026260,336.464905 101.005486,343.479492 
	C100.969505,355.625244 100.993546,367.771210 100.995476,379.917084 
	C100.996994,389.514984 103.119667,391.668732 112.622505,391.708069 
	C127.759583,391.770752 142.896683,391.828674 158.033768,391.888611 
	C154.443924,397.743225 150.979843,403.674316 154.135376,410.850403 
	C155.113831,413.075531 156.639969,415.059814 157.505463,417.571289 
	C141.613419,418.002167 126.131248,417.994812 110.649231,418.039734 
	C103.580986,418.060211 101.028862,420.617920 101.003998,427.664734 
	C100.963470,439.149933 100.975716,450.635345 100.965698,462.120667 
	C90.130402,452.075592 78.884949,442.428955 68.604424,431.845001 
	C61.782349,424.821564 56.341084,416.456940 50.105530,408.393005 
z"/>
<path fill="#9AD7F8" opacity="1.000000" stroke="none" 
	d="
M395.584961,308.084320 
	C389.540863,302.724091 383.333038,297.535553 377.490173,291.964294 
	C368.171509,283.078735 357.700531,276.518463 344.794006,274.427246 
	C343.169952,274.164124 341.507751,274.136566 339.136169,273.852386 
	C332.135864,267.509491 325.694366,261.472504 319.654419,255.057419 
	C316.197083,251.385361 312.509521,249.823639 307.389832,249.871567 
	C282.928589,250.100555 258.463928,249.966721 233.690018,249.687393 
	C217.910370,249.294312 202.441208,249.175720 186.730713,249.034256 
	C186.489380,249.011383 186.004242,248.993454 185.852783,248.697922 
	C178.418793,240.048019 171.136230,231.693665 164.321106,223.236267 
	C173.827881,223.059479 182.867218,222.985703 192.382828,222.960052 
	C238.830811,223.007370 284.802551,223.012207 330.774261,223.000717 
	C339.330536,222.998581 342.939819,219.410309 342.962952,210.914627 
	C343.000183,197.256744 343.006287,183.598785 343.332458,170.077881 
	C358.496979,183.806519 375.894012,192.096313 395.781799,195.645660 
	C395.781342,218.174286 395.802246,240.246674 395.769196,262.319000 
	C395.746368,277.574158 395.649017,292.829224 395.584961,308.084320 
z"/>
<path fill="#167DC1" opacity="1.000000" stroke="none" 
	d="
M395.622101,308.546387 
	C395.649017,292.829224 395.746368,277.574158 395.769196,262.319000 
	C395.802246,240.246674 395.781342,218.174286 396.220978,195.638962 
	C405.726257,195.202667 414.794006,195.229340 423.877625,195.708221 
	C423.908722,222.823883 423.924622,249.487335 423.939087,276.150787 
	C423.969147,331.477142 423.998474,386.803528 424.028076,442.129883 
	C414.908356,450.091217 405.788635,458.052521 396.314240,466.098755 
	C395.866821,464.029633 395.694031,461.875580 395.693054,459.721466 
	C395.670532,409.483795 395.666595,359.246124 395.622101,308.546387 
z"/>
<path fill="#D3DCFB" opacity="1.000000" stroke="none" 
	d="
M233.990753,334.005737 
	C258.985229,334.003479 283.981262,333.870148 308.972168,334.165619 
	C312.081116,334.202332 315.767548,335.824249 318.139862,337.904877 
	C324.265167,343.277100 329.846008,349.276672 335.566284,355.102295 
	C341.380463,361.023560 341.364624,364.111542 335.666809,369.829590 
	C330.609283,374.905029 325.161652,379.650696 320.574890,385.119507 
	C316.030731,390.537537 310.410522,392.004700 303.878113,391.997467 
	C280.216736,391.971313 256.555328,391.984467 232.373962,391.622986 
	C230.655426,390.485535 229.531952,389.544006 228.246933,388.954834 
	C209.755417,380.476532 205.293152,356.846100 219.952866,342.790283 
	C223.853668,339.050171 229.270157,336.890839 233.990753,334.005737 
z"/>
<path fill="#D3DCFB" opacity="1.000000" stroke="none" 
	d="
M233.966766,418.022156 
	C259.116760,418.014984 284.267365,417.931519 309.415833,418.126892 
	C311.753998,418.145050 314.593170,419.380981 316.318848,420.993927 
	C323.250671,427.473022 329.867035,434.292175 336.538239,441.046631 
	C341.094055,445.659180 341.108429,448.307800 336.600037,452.879425 
	C330.284882,459.283203 324.124939,465.872772 317.410278,471.832733 
	C314.940826,474.024689 311.097015,475.771454 307.854919,475.814178 
	C283.208832,476.139069 258.556488,475.991119 233.371948,475.628296 
	C232.516235,474.911438 232.250244,474.328674 231.865112,474.234802 
	C211.680573,469.315155 203.154984,441.081207 220.959564,425.730133 
	C224.717209,422.490326 229.601547,420.557312 233.966766,418.022156 
z"/>
<path fill="#D3DCFB" opacity="1.000000" stroke="none" 
	d="
M234.000504,249.961899 
	C258.463928,249.966721 282.928589,250.100555 307.389832,249.871567 
	C312.509521,249.823639 316.197083,251.385361 319.654419,255.057419 
	C325.694366,261.472504 332.135864,267.509491 338.704224,273.860046 
	C340.688934,279.238800 338.826904,283.110168 334.901825,286.716309 
	C329.154938,291.996246 324.035767,297.973785 318.158142,303.090057 
	C315.779022,305.160980 312.123993,306.790039 309.021027,306.839813 
	C288.584412,307.167450 268.139771,306.958496 247.698380,307.054047 
	C243.749390,307.072479 239.803085,307.662720 235.379715,307.670288 
	C234.264923,306.902466 233.625977,306.453522 232.610886,305.998108 
	C215.386551,301.161102 206.914688,283.964722 213.473862,267.973663 
	C217.337219,258.554932 224.723770,253.191116 234.000504,249.961899 
z"/>
<path fill="#BEC8F7" opacity="1.000000" stroke="none" 
	d="
M233.690018,249.687393 
	C224.723770,253.191116 217.337219,258.554932 213.473862,267.973663 
	C206.914688,283.964722 215.386551,301.161102 232.611130,306.318176 
	C232.971573,307.070160 232.955612,307.495697 232.939667,307.921204 
	C208.607361,307.932556 184.275055,307.943878 159.474670,307.950745 
	C159.006577,307.946228 159.010559,307.521606 159.033173,306.834167 
	C159.042328,287.419159 159.028885,268.691528 159.483719,249.962433 
	C168.617950,249.956421 177.283920,249.951904 186.171829,249.865479 
	C186.672379,249.609756 186.865143,249.367615 186.972046,249.057129 
	C202.441208,249.175720 217.910370,249.294312 233.690018,249.687393 
z"/>
<path fill="#BEC8F7" opacity="1.000000" stroke="none" 
	d="
M233.501602,418.016693 
	C229.601547,420.557312 224.717209,422.490326 220.959564,425.730133 
	C203.154984,441.081207 211.680573,469.315155 231.865112,474.234802 
	C232.250244,474.328674 232.516235,474.911438 232.901276,475.614532 
	C208.573380,475.948822 184.182037,475.934662 159.371536,475.418457 
	C158.936050,455.966583 158.919693,437.016724 158.903336,418.066895 
	C183.614365,418.048340 208.325409,418.029785 233.501602,418.016693 
z"/>
<path fill="#BEC8F7" opacity="1.000000" stroke="none" 
	d="
M233.523102,334.000275 
	C229.270157,336.890839 223.853668,339.050171 219.952866,342.790283 
	C205.293152,356.846100 209.755417,380.476532 228.246933,388.954834 
	C229.531952,389.544006 230.655426,390.485535 231.902588,391.604156 
	C207.847717,391.925873 183.744247,391.906647 159.270569,391.399780 
	C158.921494,371.941681 158.942642,352.971161 158.963791,334.000671 
	C183.661011,333.998749 208.358215,333.996796 233.523102,334.000275 
z"/>
<path fill="#FFDD41" opacity="1.000000" stroke="none" 
	d="
M158.728256,333.947754 
	C158.942642,352.971161 158.921494,371.941681 158.783295,391.351196 
	C158.666229,391.790222 158.338577,391.769470 158.186172,391.829041 
	C142.896683,391.828674 127.759583,391.770752 112.622505,391.708069 
	C103.119667,391.668732 100.996994,389.514984 100.995476,379.917084 
	C100.993546,367.771210 100.969505,355.625244 101.005486,343.479492 
	C101.026260,336.464905 103.569046,333.965240 110.682693,333.945312 
	C126.155823,333.901978 141.629089,333.902527 157.570038,333.809143 
	C158.037781,333.733124 158.492722,333.894806 158.728256,333.947754 
z"/>
<path fill="#39C675" opacity="1.000000" stroke="none" 
	d="
M158.680634,418.024139 
	C158.919693,437.016724 158.936050,455.966583 158.895172,475.369080 
	C158.837936,475.821716 158.858261,475.873566 158.423538,475.848877 
	C145.930557,475.882172 133.872314,475.940125 121.814056,475.998077 
	C115.669586,471.961060 109.528763,467.918518 103.375458,463.894989 
	C102.705307,463.456787 101.963158,463.128723 101.110054,462.435120 
	C100.975716,450.635345 100.963470,439.149933 101.003998,427.664734 
	C101.028862,420.617920 103.580986,418.060211 110.649231,418.039734 
	C126.131248,417.994812 141.613419,418.002167 157.561401,417.913666 
	C158.027283,417.839142 158.457932,417.981384 158.680634,418.024139 
z"/>
<path fill="#D4DDFB" opacity="1.000000" stroke="none" 
	d="
M121.965454,476.327332 
	C133.872314,475.940125 145.930557,475.882172 158.450287,475.841553 
	C156.683609,482.654419 158.568054,489.014893 160.963928,495.714600 
	C148.010605,489.624634 135.063736,483.140625 121.965454,476.327332 
z"/>
<path fill="#D3DCFA" opacity="1.000000" stroke="none" 
	d="
M233.282471,307.948303 
	C232.955612,307.495697 232.971573,307.070160 232.987274,306.324615 
	C233.625977,306.453522 234.264923,306.902466 234.951233,307.667480 
	C234.540817,307.980835 234.083038,307.978149 233.282471,307.948303 
z"/>
<path fill="#49D88B" opacity="1.000000" stroke="none" 
	d="
M424.335999,441.988342 
	C423.998474,386.803528 423.969147,331.477142 423.939087,276.150787 
	C423.924622,249.487335 423.908722,222.823883 424.292694,195.605225 
	C426.813385,194.678497 428.961029,194.416794 431.052185,193.918030 
	C447.632385,189.963455 462.638794,182.974655 475.008942,170.951965 
	C475.487274,170.697739 475.965607,170.443512 476.715088,170.192139 
	C481.366638,183.590103 486.538055,196.790665 489.894104,210.437668 
	C492.952942,222.876129 494.407440,235.756958 495.873535,248.522690 
	C496.870117,257.200012 497.162231,266.030029 496.900940,274.765778 
	C496.274414,295.712708 493.096558,316.266846 487.340668,336.509613 
	C482.317047,354.177155 475.222900,370.902649 466.446838,386.897644 
	C458.435272,401.499207 449.223633,415.380981 437.831146,427.668304 
	C433.442780,432.401337 429.040100,437.121033 424.335999,441.988342 
z"/>
<path fill="#49D88B" opacity="1.000000" stroke="none" 
	d="
M21.565130,182.156158 
	C21.925489,227.545425 21.969059,273.106232 22.002670,318.667023 
	C22.011135,330.140656 21.987711,341.614288 21.935749,353.555634 
	C15.783557,340.175537 12.615315,325.549500 9.900549,310.730560 
	C6.860578,294.136444 5.475633,277.449951 6.067173,260.644073 
	C6.798149,239.876801 9.546688,219.371552 15.830652,199.461380 
	C17.633400,193.749557 19.439880,188.038879 21.565130,182.156158 
z"/>
<path fill="#73C3F9" opacity="1.000000" stroke="none" 
	d="
M98.822159,183.135849 
	C82.678513,181.069916 66.639549,180.816620 50.536812,185.971863 
	C50.120258,146.676941 50.075878,107.313179 50.497955,67.467682 
	C79.988441,66.934219 109.012466,66.882477 138.023529,66.929840 
	C138.010574,67.028931 137.969894,67.224632 137.973068,67.578796 
	C136.972153,69.803253 136.038376,71.715469 134.952713,73.537148 
	C127.069916,86.763977 126.355751,100.130608 134.367554,113.529640 
	C136.300125,116.761688 138.847305,119.626221 140.643738,122.745331 
	C130.188171,122.868523 120.200645,122.890129 110.213326,122.948860 
	C102.335457,122.995186 99.033768,126.320099 99.001915,134.199860 
	C98.935974,150.511826 98.881401,166.823853 98.822159,183.135849 
z"/>
<path fill="#1E2F7A" opacity="1.000000" stroke="none" 
	d="
M138.036499,66.830742 
	C109.012466,66.882477 79.988441,66.934219 50.499634,66.999908 
	C50.032063,59.377876 49.963928,51.741211 50.043137,44.106075 
	C50.140278,34.741943 55.989208,29.021849 65.391754,29.011984 
	C89.295715,28.986900 113.199707,28.986813 137.575928,28.937687 
	C138.048172,28.898657 138.495117,29.027233 138.679199,29.452963 
	C138.900269,32.510052 138.937256,35.141415 138.610168,37.852665 
	C132.602158,39.668102 129.461456,43.065289 129.242249,47.671703 
	C129.020813,52.324509 132.078049,56.007320 137.998322,58.642502 
	C138.015411,61.659191 138.025955,64.244965 138.036499,66.830742 
M74.020775,42.915173 
	C71.817688,47.636082 72.143875,52.047314 76.106895,55.649136 
	C79.546745,58.775455 83.641098,59.095661 87.694916,56.984222 
	C91.824928,54.833103 93.539330,51.144897 92.941002,46.573597 
	C92.393745,42.392452 89.885956,39.477467 85.907387,38.326714 
	C81.338676,37.005268 77.365448,38.323547 74.020775,42.915173 
M120.325943,52.688366 
	C122.352943,46.161781 120.872513,41.545841 115.931686,38.987232 
	C111.475441,36.679558 105.939613,37.987591 102.995056,42.043949 
	C99.772308,46.483540 100.529465,52.475132 104.753464,55.958775 
	C109.382195,59.776203 115.332222,58.759575 120.325943,52.688366 
z"/>
<path fill="#2A438D" opacity="1.000000" stroke="none" 
	d="
M138.023529,66.929840 
	C138.025955,64.244965 138.015411,61.659191 138.412415,58.594986 
	C145.809372,57.778439 149.880875,54.119709 149.944809,48.119587 
	C150.007568,42.229404 146.075150,38.520576 138.974243,37.772774 
	C138.937256,35.141415 138.900269,32.510052 138.903290,29.515095 
	C172.870468,29.111362 206.797607,29.051659 240.724792,29.036659 
	C273.821655,29.022026 306.918518,29.053083 340.354370,29.388771 
	C329.904541,40.298801 322.661011,53.118893 316.684204,67.012520 
	C258.284424,66.979637 200.365082,66.972633 142.445740,66.980133 
	C140.953781,66.980331 139.461838,67.139572 137.969894,67.224640 
	C137.969894,67.224632 138.010574,67.028931 138.023529,66.929840 
M264.500000,40.004135 
	C239.011215,40.004139 213.522446,40.003677 188.033661,40.005466 
	C186.701065,40.005562 185.355728,39.909706 184.038086,40.055374 
	C178.688370,40.646793 175.810608,43.670288 176.008392,48.381004 
	C176.204010,53.040066 179.399719,55.968952 184.710892,55.975708 
	C218.196121,56.018303 251.681458,56.018021 285.166687,55.977894 
	C290.853729,55.971081 293.962189,53.097313 294.011017,48.164619 
	C294.062836,42.928452 290.976562,40.080856 284.991241,40.020035 
	C278.494781,39.954018 271.997101,40.004475 264.500000,40.004135 
z"/>
<path fill="#FEB333" opacity="1.000000" stroke="none" 
	d="
M317.164642,67.040291 
	C322.661011,53.118893 329.904541,40.298801 340.818481,29.419037 
	C350.370392,22.725082 359.797211,16.325554 369.588531,9.924169 
	C369.244080,15.221299 371.632996,19.350950 374.795105,23.774815 
	C361.973053,30.815102 351.101837,39.414516 342.974731,51.144756 
	C330.622284,68.973709 325.796844,88.573929 328.860413,110.227745 
	C331.223969,126.933624 337.884033,141.549805 349.341034,153.695038 
	C367.977814,173.451385 390.814362,182.786484 418.263275,180.088089 
	C429.368347,178.996399 439.779572,176.022110 449.330872,170.348251 
	C455.293823,166.806030 460.963776,162.770462 466.765228,158.956299 
	C467.096252,159.317047 467.742767,159.708389 467.711212,160.034012 
	C467.189270,165.419632 470.668945,168.058792 474.841553,170.656189 
	C462.638794,182.974655 447.632385,189.963455 431.052185,193.918030 
	C428.961029,194.416794 426.813385,194.678497 424.276825,195.153015 
	C414.794006,195.229340 405.726257,195.202667 396.219360,195.182678 
	C375.894012,192.096313 358.496979,183.806519 343.186218,169.780396 
	C339.809418,166.170807 336.765625,163.097198 333.984222,159.802078 
	C324.850830,148.981750 319.294342,136.291885 315.037048,122.544579 
	C312.668304,110.516747 310.998688,98.835175 313.056519,86.993881 
	C314.218658,80.306671 315.782013,73.689186 317.164642,67.040291 
z"/>
<path fill="#FF9202" opacity="1.000000" stroke="none" 
	d="
M466.806335,158.637711 
	C460.963776,162.770462 455.293823,166.806030 449.330872,170.348251 
	C439.779572,176.022110 429.368347,178.996399 418.263275,180.088089 
	C390.814362,182.786484 367.977814,173.451385 349.341034,153.695038 
	C337.884033,141.549805 331.223969,126.933624 328.860413,110.227745 
	C325.796844,88.573929 330.622284,68.973709 342.974731,51.144756 
	C351.101837,39.414516 361.973053,30.815102 374.845032,24.116253 
	C375.472687,23.860479 375.905487,23.904020 376.647675,24.372295 
	C375.071838,33.253162 376.063416,35.594776 383.361359,40.386265 
	C383.186035,40.782604 383.105042,40.936237 382.683777,41.159996 
	C360.783234,51.519939 343.856049,75.843903 346.748749,105.504532 
	C349.684570,135.607468 377.067108,161.446899 407.316620,162.114380 
	C425.226776,162.509583 440.455292,156.396255 454.108948,145.106964 
	C455.529388,152.475464 460.194366,155.838699 466.889893,157.034821 
	C466.875732,157.462921 466.861603,157.891037 466.806335,158.637711 
z"/>
<path fill="#FEB333" opacity="1.000000" stroke="none" 
	d="
M467.204437,156.892212 
	C460.194366,155.838699 455.529388,152.475464 454.162964,144.893372 
	C453.922424,144.451599 454.031586,144.024490 454.347107,143.908112 
	C467.216644,131.404968 473.392670,116.310890 473.808472,98.340332 
	C473.804047,63.352352 444.125488,34.120544 409.539368,34.970570 
	C400.544312,36.652515 392.000000,38.398037 383.455658,40.143559 
	C376.063416,35.594776 375.071838,33.253162 376.973755,24.389755 
	C384.679779,21.657391 392.226654,18.233631 400.085297,17.214678 
	C423.006714,14.242700 443.787903,20.350321 461.752472,34.942226 
	C478.120728,48.237461 487.893219,65.438164 491.059845,86.422516 
	C494.317505,108.010254 489.357452,127.603706 477.195404,145.459686 
	C474.422272,149.531097 470.767792,153.002197 467.204437,156.892212 
z"/>
<path fill="#1F9EF4" opacity="1.000000" stroke="none" 
	d="
M98.881683,183.591064 
	C98.881401,166.823853 98.935974,150.511826 99.001915,134.199860 
	C99.033768,126.320099 102.335457,122.995186 110.213326,122.948860 
	C120.200645,122.890129 130.188171,122.868523 141.097763,122.825317 
	C158.353867,122.869850 174.687820,122.919952 190.805603,123.236267 
	C182.170685,127.215393 177.373093,133.236557 177.921188,142.877167 
	C178.017746,144.575653 177.280350,146.321533 176.602905,147.917908 
	C175.999603,147.608749 175.729889,147.412537 175.442154,147.247818 
	C161.921600,139.507645 146.729706,141.509506 136.801514,152.336899 
	C127.172600,162.837891 126.024323,178.343704 134.009033,190.045624 
	C142.277313,202.163132 157.281113,206.558914 171.505798,200.553558 
	C174.922272,199.111191 176.363983,200.825470 178.202972,203.039062 
	C178.601929,206.379593 178.763016,209.372528 179.632538,212.143097 
	C181.507309,218.116592 186.727814,220.552429 191.906570,222.911926 
	C182.867218,222.985703 173.827881,223.059479 163.912720,223.149841 
	C161.368317,223.195786 159.699753,223.225143 158.031174,223.254517 
	C142.370316,223.187546 126.709412,223.130692 111.048630,223.049622 
	C102.162224,223.003616 99.022949,219.858292 99.000900,211.042374 
	C98.978394,202.043671 98.960899,193.044968 98.881683,183.591064 
z"/>
<path fill="#FF4155" opacity="1.000000" stroke="none" 
	d="
M159.015442,249.963928 
	C159.028885,268.691528 159.042328,287.419159 159.043884,306.622131 
	C142.404724,307.152954 125.777191,307.280426 109.150307,307.222748 
	C103.698303,307.203827 101.052841,304.330505 101.023178,298.715027 
	C100.951988,285.243866 100.944382,271.771790 101.026855,258.300751 
	C101.062233,252.522552 103.794800,249.894241 109.729790,249.862518 
	C125.528900,249.778091 141.328552,249.794983 157.826202,249.776031 
	C158.688095,249.841629 158.851761,249.902771 159.015442,249.963928 
z"/>
<path fill="#E8EFFF" opacity="1.000000" stroke="none" 
	d="
M159.483719,249.962433 
	C158.851761,249.902771 158.688095,249.841629 158.286591,249.671478 
	C156.365616,246.035507 154.058762,242.662033 153.144302,238.945938 
	C151.742508,233.249588 154.150223,228.247345 157.972076,223.587280 
	C159.699753,223.225143 161.368317,223.195786 163.445282,223.252869 
	C171.136230,231.693665 178.418793,240.048019 185.840607,248.936523 
	C185.979874,249.470657 185.949875,249.947388 185.949875,249.947388 
	C177.283920,249.951904 168.617950,249.956421 159.483719,249.962433 
z"/>
<path fill="#51ACF7" opacity="1.000000" stroke="none" 
	d="
M176.928070,148.045532 
	C177.280350,146.321533 178.017746,144.575653 177.921188,142.877167 
	C177.373093,133.236557 182.170685,127.215393 191.271393,123.207138 
	C232.974960,122.926582 273.996582,122.941368 315.018188,122.956161 
	C319.294342,136.291885 324.850830,148.981750 333.984222,159.802078 
	C336.765625,163.097198 339.809418,166.170807 342.879272,169.643372 
	C343.006287,183.598785 343.000183,197.256744 342.962952,210.914627 
	C342.939819,219.410309 339.330536,222.998581 330.774261,223.000717 
	C284.802551,223.012207 238.830811,223.007370 192.382828,222.960052 
	C186.727814,220.552429 181.507309,218.116592 179.632538,212.143097 
	C178.763016,209.372528 178.601929,206.379593 178.601242,203.123840 
	C182.969467,203.538788 186.454239,202.949341 188.601349,199.272141 
	C190.598785,195.851334 189.686295,192.728012 187.389832,189.629379 
	C186.638443,188.615540 186.510498,186.573532 186.966614,185.317322 
	C192.307571,170.607147 189.059631,158.314682 176.928070,148.045532 
M223.885223,172.452423 
	C223.884201,174.783966 223.933472,177.116852 223.871918,179.446793 
	C223.735992,184.590302 220.274139,187.929382 215.344849,187.737656 
	C210.932816,187.566040 208.033005,184.353409 208.013184,179.463333 
	C207.976074,170.303757 208.041992,161.143677 207.986725,151.984283 
	C207.951172,146.092545 205.290802,142.919388 200.461563,142.773178 
	C195.342270,142.618149 192.299667,145.758484 192.213531,151.836700 
	C192.074310,161.660507 191.903244,171.497864 192.255722,181.311188 
	C192.724854,194.372726 203.012573,203.403839 216.525146,203.142822 
	C229.757278,202.887222 239.103790,193.557755 239.202835,180.380310 
	C239.276688,170.554993 239.293167,160.727768 239.180542,150.903152 
	C239.119598,145.586029 236.480682,142.867035 231.764053,142.773712 
	C226.802780,142.675537 224.003433,145.489288 223.916977,150.982819 
	C223.809540,157.809311 223.887268,164.638733 223.885223,172.452423 
M281.567688,203.167679 
	C289.056793,203.166672 296.546265,203.208130 304.034943,203.150986 
	C309.799500,203.107010 313.051117,200.285782 313.048309,195.498276 
	C313.045502,190.716675 309.795929,187.922791 304.020050,187.849152 
	C299.495850,187.791458 294.970337,187.837570 289.564117,187.837570 
	C296.965424,176.480270 303.740295,166.218933 310.368256,155.863571 
	C314.407410,149.552917 311.910858,143.071060 304.728333,142.620758 
	C295.128479,142.018921 285.446411,142.250198 275.824341,142.678925 
	C270.875275,142.899445 267.939056,146.710236 268.270477,150.893173 
	C268.613647,155.224335 271.834076,157.941910 276.915833,158.037735 
	C281.005188,158.114853 285.097168,158.053345 289.899933,158.053345 
	C288.770081,160.002106 288.099792,161.278992 287.319458,162.484680 
	C282.078003,170.583267 276.805756,178.661926 271.559113,186.757172 
	C269.058929,190.614792 265.512848,194.303070 268.473480,199.413040 
	C271.304718,204.299683 276.219086,202.984879 281.567688,203.167679 
M261.041412,196.846649 
	C261.076416,181.688629 261.157837,166.530502 261.122528,151.372650 
	C261.109222,145.660416 258.548981,142.862427 253.658768,142.774963 
	C248.580124,142.684128 245.877655,145.599152 245.852539,151.528244 
	C245.792572,165.687592 245.904510,179.847931 245.788330,194.006577 
	C245.752777,198.338791 247.108444,201.718338 251.417786,202.862625 
	C255.922943,204.058945 259.165588,202.030334 261.041412,196.846649 
z"/>
<path fill="#D3DCFA" opacity="1.000000" stroke="none" 
	d="
M186.171829,249.865479 
	C185.949875,249.947388 185.979874,249.470657 185.992065,249.232056 
	C186.004242,248.993454 186.489380,249.011383 186.730713,249.034271 
	C186.865143,249.367615 186.672379,249.609756 186.171829,249.865479 
z"/>
<path fill="#9BD8F9" opacity="1.000000" stroke="none" 
	d="
M315.037048,122.544571 
	C273.996582,122.941368 232.974960,122.926582 191.487564,122.940918 
	C174.687820,122.919952 158.353867,122.869850 141.565887,122.739754 
	C138.847305,119.626221 136.300125,116.761688 134.367554,113.529640 
	C126.355751,100.130608 127.069916,86.763977 134.952713,73.537148 
	C136.038376,71.715469 136.972153,69.803253 137.973068,67.578796 
	C139.461838,67.139572 140.953781,66.980331 142.445740,66.980133 
	C200.365082,66.972633 258.284424,66.979637 316.684204,67.012520 
	C315.782013,73.689186 314.218658,80.306671 313.056519,86.993881 
	C310.998688,98.835175 312.668304,110.516747 315.037048,122.544571 
z"/>
<path fill="#38C374" opacity="1.000000" stroke="none" 
	d="
M138.610168,37.852665 
	C146.075150,38.520576 150.007568,42.229404 149.944809,48.119587 
	C149.880875,54.119709 145.809372,57.778439 138.405884,58.164070 
	C132.078049,56.007320 129.020813,52.324509 129.242249,47.671703 
	C129.461456,43.065289 132.602158,39.668102 138.610168,37.852665 
z"/>
<path fill="#FB4156" opacity="1.000000" stroke="none" 
	d="
M74.221687,42.573036 
	C77.365448,38.323547 81.338676,37.005268 85.907387,38.326714 
	C89.885956,39.477467 92.393745,42.392452 92.941002,46.573597 
	C93.539330,51.144897 91.824928,54.833103 87.694916,56.984222 
	C83.641098,59.095661 79.546745,58.775455 76.106895,55.649136 
	C72.143875,52.047314 71.817688,47.636082 74.221687,42.573036 
z"/>
<path fill="#FBDA41" opacity="1.000000" stroke="none" 
	d="
M120.151703,53.022976 
	C115.332222,58.759575 109.382195,59.776203 104.753464,55.958775 
	C100.529465,52.475132 99.772308,46.483540 102.995056,42.043949 
	C105.939613,37.987591 111.475441,36.679558 115.931686,38.987232 
	C120.872513,41.545841 122.352943,46.161781 120.151703,53.022976 
z"/>
<path fill="#3C58A0" opacity="1.000000" stroke="none" 
	d="
M265.000000,40.004139 
	C271.997101,40.004475 278.494781,39.954018 284.991241,40.020035 
	C290.976562,40.080856 294.062836,42.928452 294.011017,48.164619 
	C293.962189,53.097313 290.853729,55.971081 285.166687,55.977894 
	C251.681458,56.018021 218.196121,56.018303 184.710892,55.975708 
	C179.399719,55.968952 176.204010,53.040066 176.008392,48.381004 
	C175.810608,43.670288 178.688370,40.646793 184.038086,40.055374 
	C185.355728,39.909706 186.701065,40.005562 188.033661,40.005466 
	C213.522446,40.003677 239.011215,40.004139 265.000000,40.004139 
z"/>
<path fill="#D3DBFA" opacity="1.000000" stroke="none" 
	d="
M454.031586,144.024506 
	C454.031586,144.024490 453.922424,144.451599 453.868408,144.665192 
	C440.455292,156.396255 425.226776,162.509583 407.316620,162.114380 
	C377.067108,161.446899 349.684570,135.607468 346.748749,105.504532 
	C343.856049,75.843903 360.783234,51.519939 382.680878,41.599121 
	C382.676514,47.239918 382.115326,52.508572 382.039978,57.784168 
	C381.894440,67.972366 385.560150,72.879532 395.128235,76.470993 
	C379.924835,87.227837 380.032349,108.951149 394.000366,119.590569 
	C403.959686,127.176590 416.082336,126.740982 428.090271,118.500954 
	C428.424286,120.007523 428.858612,121.113594 428.956757,122.248718 
	C429.835785,132.415726 435.915527,138.372879 444.942627,141.769196 
	C447.844391,142.860931 450.994873,143.291473 454.031586,144.024506 
z"/>
<path fill="#E8EDFD" opacity="1.000000" stroke="none" 
	d="
M395.322906,76.192635 
	C385.560150,72.879532 381.894440,67.972366 382.039978,57.784168 
	C382.115326,52.508572 382.676514,47.239918 383.021118,41.528999 
	C383.105042,40.936237 383.186035,40.782604 383.361359,40.386265 
	C392.000000,38.398037 400.544312,36.652515 409.542053,35.415642 
	C409.991699,38.883488 409.987946,41.842686 409.615692,44.878395 
	C402.937653,46.694824 400.992065,49.118546 400.913513,55.484043 
	C400.864197,59.480675 400.580811,63.511452 400.986389,67.467033 
	C401.464996,72.134689 400.064453,75.131493 395.322906,76.192635 
z"/>
<path fill="#FE4356" opacity="1.000000" stroke="none" 
	d="
M409.984192,44.801884 
	C409.987946,41.842686 409.991699,38.883488 409.992798,35.479218 
	C444.125488,34.120544 473.804047,63.352352 473.362183,98.313797 
	C460.759338,98.729347 448.633240,98.752960 436.442078,98.366226 
	C436.120850,90.057022 433.689056,82.181160 426.861481,78.682327 
	C418.372772,74.332230 418.782440,67.897774 419.064087,60.674782 
	C419.128723,59.016899 419.090393,57.354099 419.069366,55.693939 
	C418.984100,48.959606 416.762665,46.302555 409.984192,44.801884 
z"/>
<path fill="#E9EEFE" opacity="1.000000" stroke="none" 
	d="
M436.507141,98.776573 
	C448.633240,98.752960 460.759338,98.729347 473.331696,98.732269 
	C473.392670,116.310890 467.216644,131.404968 454.347107,143.908112 
	C450.994873,143.291473 447.844391,142.860931 444.942627,141.769196 
	C435.915527,138.372879 429.835785,132.415726 428.956757,122.248718 
	C428.858612,121.113594 428.424286,120.007523 428.254944,118.204323 
	C433.624878,112.378906 436.155579,106.051086 436.507141,98.776573 
z"/>
<path fill="#E6EEFF" opacity="1.000000" stroke="none" 
	d="
M176.602905,147.917908 
	C189.059631,158.314682 192.307571,170.607147 186.966614,185.317322 
	C186.510498,186.573532 186.638443,188.615540 187.389832,189.629379 
	C189.686295,192.728012 190.598785,195.851334 188.601349,199.272141 
	C186.454239,202.949341 182.969467,203.538788 178.684540,202.675430 
	C176.363983,200.825470 174.922272,199.111191 171.505798,200.553558 
	C157.281113,206.558914 142.277313,202.163132 134.009033,190.045624 
	C126.024323,178.343704 127.172600,162.837891 136.801514,152.336899 
	C146.729706,141.509506 161.921600,139.507645 175.442154,147.247818 
	C175.729889,147.412537 175.999603,147.608749 176.602905,147.917908 
M146.543777,165.262741 
	C143.300201,171.064789 143.508942,176.733047 147.600540,181.985809 
	C151.113892,186.496216 155.854218,188.200989 162.060471,187.473328 
	C159.945786,183.261169 158.290070,179.401276 161.733093,175.662537 
	C165.343674,171.741837 169.423950,173.063904 173.481247,174.983368 
	C174.247452,167.861237 171.006516,162.068344 164.986832,159.428192 
	C158.461182,156.566132 152.520447,158.282303 146.543777,165.262741 
z"/>
<path fill="#E7EEFF" opacity="1.000000" stroke="none" 
	d="
M223.885132,171.959656 
	C223.887268,164.638733 223.809540,157.809311 223.916977,150.982819 
	C224.003433,145.489288 226.802780,142.675537 231.764053,142.773712 
	C236.480682,142.867035 239.119598,145.586029 239.180542,150.903152 
	C239.293167,160.727768 239.276688,170.554993 239.202835,180.380310 
	C239.103790,193.557755 229.757278,202.887222 216.525146,203.142822 
	C203.012573,203.403839 192.724854,194.372726 192.255722,181.311188 
	C191.903244,171.497864 192.074310,161.660507 192.213531,151.836700 
	C192.299667,145.758484 195.342270,142.618149 200.461563,142.773178 
	C205.290802,142.919388 207.951172,146.092545 207.986725,151.984283 
	C208.041992,161.143677 207.976074,170.303757 208.013184,179.463333 
	C208.033005,184.353409 210.932816,187.566040 215.344849,187.737656 
	C220.274139,187.929382 223.735992,184.590302 223.871918,179.446793 
	C223.933472,177.116852 223.884201,174.783966 223.885132,171.959656 
z"/>
<path fill="#E6EEFF" opacity="1.000000" stroke="none" 
	d="
M281.081787,203.167831 
	C276.219086,202.984879 271.304718,204.299683 268.473480,199.413040 
	C265.512848,194.303070 269.058929,190.614792 271.559113,186.757172 
	C276.805756,178.661926 282.078003,170.583267 287.319458,162.484680 
	C288.099792,161.278992 288.770081,160.002106 289.899933,158.053345 
	C285.097168,158.053345 281.005188,158.114853 276.915833,158.037735 
	C271.834076,157.941910 268.613647,155.224335 268.270477,150.893173 
	C267.939056,146.710236 270.875275,142.899445 275.824341,142.678925 
	C285.446411,142.250198 295.128479,142.018921 304.728333,142.620758 
	C311.910858,143.071060 314.407410,149.552917 310.368256,155.863571 
	C303.740295,166.218933 296.965424,176.480270 289.564117,187.837570 
	C294.970337,187.837570 299.495850,187.791458 304.020050,187.849152 
	C309.795929,187.922791 313.045502,190.716675 313.048309,195.498276 
	C313.051117,200.285782 309.799500,203.107010 304.034943,203.150986 
	C296.546265,203.208130 289.056793,203.166672 281.081787,203.167831 
z"/>
<path fill="#E8EFFF" opacity="1.000000" stroke="none" 
	d="
M260.980316,197.274399 
	C259.165588,202.030334 255.922943,204.058945 251.417786,202.862625 
	C247.108444,201.718338 245.752777,198.338791 245.788330,194.006577 
	C245.904510,179.847931 245.792572,165.687592 245.852539,151.528244 
	C245.877655,145.599152 248.580124,142.684128 253.658768,142.774963 
	C258.548981,142.862427 261.109222,145.660416 261.122528,151.372650 
	C261.157837,166.530502 261.076416,181.688629 260.980316,197.274399 
z"/>
<path fill="#3E59A1" opacity="1.000000" stroke="none" 
	d="
M436.442078,98.366226 
	C436.155579,106.051086 433.624878,112.378906 428.199371,117.817299 
	C416.082336,126.740982 403.959686,127.176590 394.000366,119.590569 
	C380.032349,108.951149 379.924835,87.227837 395.128235,76.470993 
	C400.064453,75.131493 401.464996,72.134689 400.986389,67.467033 
	C400.580811,63.511452 400.864197,59.480675 400.913513,55.484043 
	C400.992065,49.118546 402.937653,46.694824 409.615692,44.878395 
	C416.762665,46.302555 418.984100,48.959606 419.069366,55.693939 
	C419.090393,57.354099 419.128723,59.016899 419.064087,60.674782 
	C418.782440,67.897774 418.372772,74.332230 426.861481,78.682327 
	C433.689056,82.181160 436.120850,90.057022 436.442078,98.366226 
M406.017975,105.597786 
	C412.089386,107.603554 417.092529,105.314354 417.932007,100.015854 
	C418.577820,95.939697 417.020050,92.629158 413.178070,91.167221 
	C409.318176,89.698471 405.452667,90.313812 403.170410,94.211311 
	C400.750549,98.343781 401.540161,102.144547 406.017975,105.597786 
z"/>
<path fill="#23A0F4" opacity="1.000000" stroke="none" 
	d="
M146.750977,164.949554 
	C152.520447,158.282303 158.461182,156.566132 164.986832,159.428192 
	C171.006516,162.068344 174.247452,167.861237 173.481247,174.983368 
	C169.423950,173.063904 165.343674,171.741837 161.733093,175.662537 
	C158.290070,179.401276 159.945786,183.261169 162.060471,187.473328 
	C155.854218,188.200989 151.113892,186.496216 147.600540,181.985809 
	C143.508942,176.733047 143.300201,171.064789 146.750977,164.949554 
z"/>
<path fill="#E5EBFD" opacity="1.000000" stroke="none" 
	d="
M405.703979,105.382507 
	C401.540161,102.144547 400.750549,98.343781 403.170410,94.211311 
	C405.452667,90.313812 409.318176,89.698471 413.178070,91.167221 
	C417.020050,92.629158 418.577820,95.939697 417.932007,100.015854 
	C417.092529,105.314354 412.089386,107.603554 405.703979,105.382507 
z"/>
</svg>