<svg version="1.1" id="Layer_1" xmlns="http://www.w3.org/2000/svg" xmlns:xlink="http://www.w3.org/1999/xlink" x="0px" y="0px"
	 width="100%" viewBox="0 0 512 512" enable-background="new 0 0 512 512" xml:space="preserve">
<path fill="#010101" opacity="1.000000" stroke="none" 
	d="
M513.000000,175.000000 
	C513.000000,287.972534 513.000000,400.445068 513.000000,512.958801 
	C342.402466,512.958801 171.804901,512.958801 1.103673,512.958801 
	C1.103673,342.444153 1.103673,171.888245 1.103673,1.166158 
	C171.666534,1.166158 342.333252,1.166158 513.000000,1.166158 
	C513.000000,58.861729 513.000000,116.680862 513.000000,175.000000 
M400.922302,497.994995 
	C410.446228,497.994995 419.970184,497.994995 430.306763,497.994995 
	C420.465057,486.966095 417.055664,474.884949 417.065491,461.378845 
	C417.153992,339.795929 417.140289,218.212906 417.050110,96.629997 
	C417.045502,90.442375 417.667694,85.216576 424.781372,84.180069 
	C424.781372,77.384918 424.781372,71.093719 424.781372,64.885185 
	C418.371246,62.662476 417.139526,60.937492 417.121277,54.245209 
	C417.098114,45.751167 417.223389,37.254784 417.061920,28.763645 
	C416.920959,21.350140 411.862305,16.268246 404.462067,16.053762 
	C399.309692,15.904432 394.146667,16.123390 388.064026,16.022247 
	C269.589813,16.014587 151.115601,16.006449 32.641392,15.999984 
	C20.198149,15.999305 15.999761,20.243845 15.999681,32.816753 
	C15.998975,145.459045 15.967876,258.101349 16.084198,370.743530 
	C16.090574,376.918304 15.124166,381.718567 8.214500,382.869629 
	C8.214500,389.459473 8.214500,395.728760 8.214500,401.910339 
	C15.211770,404.642334 15.996457,405.828278 15.998181,413.511475 
	C16.001772,429.508026 15.997434,445.504547 15.999713,461.501099 
	C16.003017,484.688690 29.342188,497.999817 52.581676,498.000061 
	C166.557007,498.001343 280.532349,498.001404 394.507690,497.994171 
	C396.336914,497.994049 398.166138,497.896362 400.922302,497.994995 
M462.500183,169.575455 
	C452.544586,169.575455 442.588989,169.575455 432.449188,169.575455 
	C432.307556,171.024460 432.131134,171.986984 432.131012,172.949554 
	C432.120239,270.240387 432.015167,367.531616 432.374542,464.821136 
	C432.397736,471.091492 434.897186,478.018951 438.180695,483.475800 
	C445.578125,495.769440 460.779083,500.708862 474.440491,496.604584 
	C488.214050,492.466614 497.890106,479.836487 497.958344,465.275330 
	C498.090240,437.121582 498.107452,408.966034 497.913757,380.812988 
	C497.872101,374.756744 499.074127,370.211029 505.999023,369.130768 
	C505.999023,363.351746 506.087952,357.874054 505.921173,352.404205 
	C505.889252,351.357086 505.040253,349.637787 504.245453,349.422974 
	C498.671783,347.916748 497.955688,343.873260 497.961639,338.980011 
	C498.023865,287.669189 498.005493,236.358231 497.995575,185.047318 
	C497.993469,174.168427 493.446503,169.641937 482.491882,169.582520 
	C476.161499,169.548172 469.830780,169.575653 462.500183,169.575455 
z"/>
<path fill="#EBF3FE" opacity="1.000000" stroke="none" 
	d="
M399.995361,497.844177 
	C398.166138,497.896362 396.336914,497.994049 394.507690,497.994171 
	C280.532349,498.001404 166.557007,498.001343 52.581676,498.000061 
	C29.342188,497.999817 16.003017,484.688690 15.999713,461.501099 
	C15.997434,445.504547 16.001772,429.508026 15.998181,413.511475 
	C15.996457,405.828278 15.211770,404.642334 8.214500,401.910339 
	C8.214500,395.728760 8.214500,389.459473 8.214500,382.869629 
	C15.124166,381.718567 16.090574,376.918304 16.084198,370.743530 
	C15.967876,258.101349 15.998975,145.459045 15.999681,32.816753 
	C15.999761,20.243845 20.198149,15.999305 32.641392,15.999984 
	C151.115601,16.006449 269.589813,16.014587 388.581543,16.460737 
	C390.066345,20.216879 391.720490,23.504723 391.866028,26.858028 
	C392.233887,35.334351 391.923370,43.840111 391.565430,52.196270 
	C385.184174,46.388420 377.901825,44.385044 369.732880,44.389267 
	C267.575531,44.442059 165.418137,44.412060 63.260754,44.434704 
	C44.849739,44.438786 33.270096,55.983196 33.244637,74.349953 
	C33.198200,107.846848 33.186863,141.343994 33.297104,174.840591 
	C33.308990,178.452164 33.743019,182.207687 34.800442,185.644379 
	C38.605824,198.012009 49.133224,204.962128 63.597321,204.964066 
	C165.088104,204.977661 266.578949,204.929840 368.069580,205.046661 
	C376.568298,205.056442 384.161072,203.198044 391.171631,198.229645 
	C391.657013,200.649384 391.980103,202.781219 391.980713,204.913132 
	C392.006134,290.801483 392.017090,376.689819 391.985504,462.578186 
	C391.981140,474.457245 392.410156,486.183624 399.654572,496.401947 
	C399.919403,496.775482 399.888458,497.358704 399.995361,497.844177 
M79.499634,311.067535 
	C67.002899,311.067871 54.505798,311.012115 42.009594,311.093567 
	C36.232677,311.131195 33.329456,313.907776 33.273262,319.669373 
	C33.148136,332.498077 33.143761,345.329865 33.280231,358.158386 
	C33.336926,363.487640 36.039169,366.445618 41.227955,366.488068 
	C59.887825,366.640869 78.550774,366.636292 97.210358,366.458923 
	C102.132774,366.412109 104.853798,363.400421 104.900459,358.441650 
	C105.022728,345.446228 105.018517,332.448273 104.909897,319.452606 
	C104.864357,314.003082 101.966263,311.215302 96.494576,311.095062 
	C91.165192,310.977936 85.831245,311.068298 79.499634,311.067535 
M33.228626,276.465149 
	C33.228977,279.131378 33.185192,281.798492 33.238373,284.463654 
	C33.371738,291.147614 36.028584,293.849518 42.735928,293.868225 
	C60.399567,293.917511 78.063576,293.924530 95.727135,293.862915 
	C102.107292,293.840668 104.897552,291.044647 104.930405,284.720276 
	C104.994453,272.389282 104.984955,260.057587 104.935387,247.726471 
	C104.908623,241.070129 102.226830,238.365967 95.479485,238.342026 
	C77.982567,238.279922 60.485184,238.285217 42.988201,238.336563 
	C35.863850,238.357468 33.292309,240.927917 33.244102,247.980652 
	C33.181461,257.145386 33.228691,266.310883 33.228626,276.465149 
M104.945091,404.505798 
	C104.944878,400.674255 104.988716,396.842102 104.934578,393.011322 
	C104.843674,386.578217 102.234154,383.944824 95.801384,383.931854 
	C77.976410,383.895966 60.151268,383.893372 42.326313,383.933075 
	C35.915680,383.947388 33.300350,386.553650 33.258621,393.097870 
	C33.180012,405.424957 33.175293,417.753326 33.259949,430.080322 
	C33.304432,436.557861 35.942467,439.150604 42.416740,439.168854 
	C60.241642,439.219025 78.066879,439.221436 95.891754,439.166901 
	C102.291817,439.147339 104.884308,436.472015 104.930496,429.992126 
	C104.988670,421.829651 104.944885,413.666473 104.945091,404.505798 
M132.405151,353.881500 
	C128.175278,360.829529 131.146530,366.469086 139.338135,366.546112 
	C154.650650,366.690063 169.965469,366.589355 185.279327,366.589478 
	C222.731705,366.589813 260.184082,366.589630 297.636475,366.589569 
	C298.801666,366.589569 299.967102,366.605072 301.131989,366.585632 
	C307.445404,366.480194 310.891571,363.859863 310.963379,359.121643 
	C311.035553,354.358093 307.574005,351.551758 301.322144,351.549042 
	C247.557175,351.525909 193.792175,351.512238 140.027390,351.610931 
	C137.668289,351.615265 135.311234,352.736450 132.405151,353.881500 
M251.499908,439.191986 
	C260.495422,439.191986 269.490906,439.196167 278.486420,439.190765 
	C286.815399,439.185760 295.146545,439.280487 303.472443,439.114929 
	C307.862579,439.027649 310.824677,435.974854 310.954651,431.986603 
	C311.082764,428.054840 308.215332,424.841156 303.955292,424.254425 
	C302.808868,424.096527 301.627472,424.174591 300.462128,424.174500 
	C247.155533,424.171478 193.848923,424.167297 140.542343,424.193024 
	C138.899658,424.193817 137.187836,424.271637 135.628418,424.725983 
	C131.954010,425.796570 130.075180,428.578949 130.375092,432.244141 
	C130.690094,436.093872 132.958588,438.686005 137.060989,439.090454 
	C138.712692,439.253296 140.389099,439.188446 142.054260,439.188660 
	C178.202805,439.193054 214.351334,439.191986 251.499908,439.191986 
M130.296066,285.663330 
	C131.288864,291.655151 133.368744,293.842651 138.903488,293.847900 
	C193.338440,293.899658 247.773483,293.895721 302.208435,293.853058 
	C307.598572,293.848816 310.936646,290.798248 310.960358,286.321320 
	C310.983887,281.883698 307.604858,278.889771 302.241241,278.887085 
	C247.806229,278.859802 193.371216,278.884033 138.936234,278.843170 
	C134.525208,278.839844 131.608444,280.558502 130.296066,285.663330 
M246.499557,253.354416 
	C276.148956,253.354416 305.798340,253.357361 335.447723,253.347305 
	C337.277374,253.346680 339.131256,253.412231 340.931519,253.152802 
	C344.714142,252.607666 346.878784,250.290359 347.153870,246.490891 
	C347.444946,242.470078 345.556122,239.743179 341.619385,238.743057 
	C340.035919,238.340790 338.324677,238.330627 336.671478,238.329895 
	C291.031433,238.309662 245.391373,238.308365 199.751328,238.333389 
	C197.934860,238.334381 196.048141,238.364120 194.316742,238.833069 
	C190.635925,239.830002 188.804306,242.486023 189.000534,246.262451 
	C189.196487,250.033813 191.293884,252.442963 195.046677,253.116531 
	C196.668442,253.407593 198.363953,253.343582 200.026077,253.345230 
	C215.183884,253.360291 230.341721,253.354263 246.499557,253.354416 
M271.500031,383.919403 
	C247.015762,383.919403 222.531387,383.952911 198.047318,383.882874 
	C194.433334,383.872528 191.447617,384.661011 189.713989,388.096649 
	C186.937302,393.599365 191.037262,398.902344 198.238052,398.907745 
	C244.708237,398.942596 291.178467,398.935181 337.648682,398.916077 
	C343.890442,398.913513 347.253174,396.147125 347.199066,391.258911 
	C347.144623,386.339813 343.977661,383.927856 337.458435,383.924133 
	C315.805634,383.911682 294.152863,383.919403 271.500031,383.919403 
M342.515839,325.621704 
	C346.319977,323.766052 348.008789,320.697418 346.930969,316.625671 
	C345.835236,312.486298 342.618774,310.981934 338.530701,311.072937 
	C338.197632,311.080353 337.864197,311.073364 337.530945,311.073364 
	C291.207123,311.073334 244.883301,311.066620 198.559494,311.101227 
	C196.928452,311.102417 195.194153,311.233673 193.687454,311.790192 
	C190.097534,313.116272 188.004654,316.194275 189.247345,319.612396 
	C190.162857,322.130524 192.956879,324.189484 195.332993,325.855225 
	C196.464355,326.648407 198.572021,326.075958 200.237442,326.076294 
	C229.231491,326.081879 258.225586,326.102661 287.219604,326.072327 
	C305.379730,326.053314 323.539825,325.955048 342.515839,325.621704 
M167.834824,242.696854 
	C165.232925,241.236816 162.717468,238.743820 160.012314,238.517441 
	C152.922852,237.924179 145.748077,238.204590 138.612198,238.360825 
	C133.606461,238.470428 130.335648,241.561066 130.264725,245.780624 
	C130.190842,250.176178 133.574738,253.242691 138.912018,253.323792 
	C145.883652,253.429718 152.859741,253.447128 159.830856,253.325974 
	C166.432404,253.211243 168.875275,250.152710 167.834824,242.696854 
M156.364731,326.084564 
	C157.530991,326.084167 158.697998,326.110718 159.863403,326.078766 
	C165.274704,325.930359 168.552490,323.053253 168.500336,318.517975 
	C168.449234,314.074158 165.054794,311.143188 159.666306,311.087097 
	C152.836090,311.015961 146.003998,311.016968 139.173752,311.087036 
	C133.788574,311.142242 130.349503,314.069580 130.258728,318.482544 
	C130.163818,323.096313 133.640320,326.021393 139.403793,326.073730 
	C144.734833,326.122131 150.066681,326.084381 156.364731,326.084564 
M130.715790,389.206299 
	C129.996628,395.462830 132.636566,398.771027 138.789886,398.893280 
	C145.927307,399.035034 153.071518,399.022919 160.209335,398.890930 
	C165.202225,398.798584 168.429520,395.737640 168.483887,391.441559 
	C168.541458,386.892548 165.296524,383.983063 159.901489,383.932678 
	C152.927887,383.867584 145.952271,383.985474 138.979385,383.889465 
	C135.317215,383.839081 132.500534,384.986267 130.715790,389.206299 
z"/>
<path fill="#B2E49E" opacity="1.000000" stroke="none" 
	d="
M463.000183,169.575378 
	C469.830780,169.575653 476.161499,169.548172 482.491882,169.582520 
	C493.446503,169.641937 497.993469,174.168427 497.995575,185.047318 
	C498.005493,236.358231 498.023865,287.669189 497.961639,338.980011 
	C497.955688,343.873260 498.671783,347.916748 504.245453,349.422974 
	C505.040253,349.637787 505.889252,351.357086 505.921173,352.404205 
	C506.087952,357.874054 505.999023,363.351746 505.999023,369.130768 
	C499.074127,370.211029 497.872101,374.756744 497.913757,380.812988 
	C498.107452,408.966034 498.090240,437.121582 497.958344,465.275330 
	C497.890106,479.836487 488.214050,492.466614 474.440491,496.604584 
	C460.779083,500.708862 445.578125,495.769440 438.180695,483.475800 
	C434.897186,478.018951 432.397736,471.091492 432.374542,464.821136 
	C432.015167,367.531616 432.120239,270.240387 432.131012,172.949554 
	C432.131134,171.986984 432.307556,171.024460 432.449188,169.575455 
	C442.588989,169.575455 452.544586,169.575455 463.000183,169.575378 
z"/>
<path fill="#DDEAFB" opacity="1.000000" stroke="none" 
	d="
M400.458832,497.919586 
	C399.888458,497.358704 399.919403,496.775482 399.654572,496.401947 
	C392.410156,486.183624 391.981140,474.457245 391.985504,462.578186 
	C392.017090,376.689819 392.006134,290.801483 391.980713,204.913132 
	C391.980103,202.781219 391.657013,200.649384 391.306335,197.917908 
	C397.386902,191.335281 399.959442,183.919205 399.946899,175.369614 
	C399.898743,142.466507 399.782654,109.562233 400.021515,76.660782 
	C400.088470,67.436844 398.004425,59.305759 391.884644,52.334076 
	C391.923370,43.840111 392.233887,35.334351 391.866028,26.858028 
	C391.720490,23.504723 390.066345,20.216879 389.043762,16.538527 
	C394.146667,16.123390 399.309692,15.904432 404.462067,16.053762 
	C411.862305,16.268246 416.920959,21.350140 417.061920,28.763645 
	C417.223389,37.254784 417.098114,45.751167 417.121277,54.245209 
	C417.139526,60.937492 418.371246,62.662476 424.781372,64.885185 
	C424.781372,71.093719 424.781372,77.384918 424.781372,84.180069 
	C417.667694,85.216576 417.045502,90.442375 417.050110,96.629997 
	C417.140289,218.212906 417.153992,339.795929 417.065491,461.378845 
	C417.055664,474.884949 420.465057,486.966095 430.306763,497.994995 
	C419.970184,497.994995 410.446228,497.994995 400.458832,497.919586 
z"/>
<path fill="#040404" opacity="1.000000" stroke="none" 
	d="
M391.565430,52.196270 
	C398.004425,59.305759 400.088470,67.436844 400.021515,76.660782 
	C399.782654,109.562233 399.898743,142.466507 399.946899,175.369614 
	C399.959442,183.919205 397.386902,191.335281 390.993622,197.630035 
	C384.161072,203.198044 376.568298,205.056442 368.069580,205.046661 
	C266.578949,204.929840 165.088104,204.977661 63.597321,204.964066 
	C49.133224,204.962128 38.605824,198.012009 34.800442,185.644379 
	C33.743019,182.207687 33.308990,178.452164 33.297104,174.840591 
	C33.186863,141.343994 33.198200,107.846848 33.244637,74.349953 
	C33.270096,55.983196 44.849739,44.438786 63.260754,44.434704 
	C165.418137,44.412060 267.575531,44.442059 369.732880,44.389267 
	C377.901825,44.385044 385.184174,46.388420 391.565430,52.196270 
M364.031647,59.495125 
	C263.724518,59.476902 163.417419,59.445549 63.110298,59.460621 
	C53.006142,59.462139 48.272022,64.371033 48.260849,74.670341 
	C48.225418,107.328552 48.245930,139.986816 48.248493,172.645065 
	C48.249523,185.738800 52.474503,189.958527 65.577988,189.958649 
	C163.552719,189.959534 261.527466,189.959976 359.502197,189.952652 
	C361.331604,189.952515 363.161011,189.855331 365.890015,189.964111 
	C367.889771,189.964569 369.893585,190.048080 371.888550,189.950745 
	C379.538361,189.577499 384.844452,184.577942 384.872650,176.920349 
	C385.000916,142.088791 384.996521,107.256218 384.872009,72.424614 
	C384.845184,64.919228 379.847809,59.998432 372.370667,59.477882 
	C369.906891,59.306355 367.407837,59.641785 364.031647,59.495125 
z"/>
<path fill="#050505" opacity="1.000000" stroke="none" 
	d="
M79.999466,311.067535 
	C85.831245,311.068298 91.165192,310.977936 96.494576,311.095062 
	C101.966263,311.215302 104.864357,314.003082 104.909897,319.452606 
	C105.018517,332.448273 105.022728,345.446228 104.900459,358.441650 
	C104.853798,363.400421 102.132774,366.412109 97.210358,366.458923 
	C78.550774,366.636292 59.887825,366.640869 41.227955,366.488068 
	C36.039169,366.445618 33.336926,363.487640 33.280231,358.158386 
	C33.143761,345.329865 33.148136,332.498077 33.273262,319.669373 
	C33.329456,313.907776 36.232677,311.131195 42.009594,311.093567 
	C54.505798,311.012115 67.002899,311.067871 79.999466,311.067535 
M56.572952,326.074097 
	C53.960297,326.074097 51.347641,326.074097 48.629978,326.074097 
	C48.629978,334.817932 48.629978,343.006409 48.629978,351.204529 
	C62.584877,351.204529 76.137405,351.204529 89.671906,351.204529 
	C89.671906,342.713440 89.671906,334.618225 89.671906,326.074097 
	C78.789246,326.074097 68.172546,326.074097 56.572952,326.074097 
z"/>
<path fill="#050505" opacity="1.000000" stroke="none" 
	d="
M33.228630,275.970581 
	C33.228691,266.310883 33.181461,257.145386 33.244102,247.980652 
	C33.292309,240.927917 35.863850,238.357468 42.988201,238.336563 
	C60.485184,238.285217 77.982567,238.279922 95.479485,238.342026 
	C102.226830,238.365967 104.908623,241.070129 104.935387,247.726471 
	C104.984955,260.057587 104.994453,272.389282 104.930405,284.720276 
	C104.897552,291.044647 102.107292,293.840668 95.727135,293.862915 
	C78.063576,293.924530 60.399567,293.917511 42.735928,293.868225 
	C36.028584,293.849518 33.371738,291.147614 33.238373,284.463654 
	C33.185192,281.798492 33.228977,279.131378 33.228630,275.970581 
M48.230976,264.537231 
	C48.230976,269.155853 48.230976,273.774445 48.230976,278.598755 
	C62.366196,278.598755 75.926765,278.598755 89.592010,278.598755 
	C89.592010,270.105133 89.592010,261.896729 89.592010,253.716705 
	C75.677788,253.716705 62.120205,253.716705 48.231064,253.716705 
	C48.231064,257.265106 48.231064,260.412048 48.230976,264.537231 
z"/>
<path fill="#030303" opacity="1.000000" stroke="none" 
	d="
M104.945091,405.004700 
	C104.944885,413.666473 104.988670,421.829651 104.930496,429.992126 
	C104.884308,436.472015 102.291817,439.147339 95.891754,439.166901 
	C78.066879,439.221436 60.241642,439.219025 42.416740,439.168854 
	C35.942467,439.150604 33.304432,436.557861 33.259949,430.080322 
	C33.175293,417.753326 33.180012,405.424957 33.258621,393.097870 
	C33.300350,386.553650 35.915680,383.947388 42.326313,383.933075 
	C60.151268,383.893372 77.976410,383.895966 95.801384,383.931854 
	C102.234154,383.944824 104.843674,386.578217 104.934578,393.011322 
	C104.988716,396.842102 104.944878,400.674255 104.945091,405.004700 
M77.487778,398.926788 
	C67.903862,398.926788 58.319946,398.926788 48.492607,398.926788 
	C48.492607,407.494537 48.492607,415.543518 48.492607,423.806335 
	C62.369289,423.806335 76.008492,423.806335 89.643433,423.806335 
	C89.643433,415.384918 89.643433,407.332428 89.643433,398.926788 
	C85.728928,398.926788 82.104927,398.926788 77.487778,398.926788 
z"/>
<path fill="#070808" opacity="1.000000" stroke="none" 
	d="
M132.679199,353.609436 
	C135.311234,352.736450 137.668289,351.615265 140.027390,351.610931 
	C193.792175,351.512238 247.557175,351.525909 301.322144,351.549042 
	C307.574005,351.551758 311.035553,354.358093 310.963379,359.121643 
	C310.891571,363.859863 307.445404,366.480194 301.131989,366.585632 
	C299.967102,366.605072 298.801666,366.589569 297.636475,366.589569 
	C260.184082,366.589630 222.731705,366.589813 185.279327,366.589478 
	C169.965469,366.589355 154.650650,366.690063 139.338135,366.546112 
	C131.146530,366.469086 128.175278,360.829529 132.679199,353.609436 
z"/>
<path fill="#050505" opacity="1.000000" stroke="none" 
	d="
M250.999893,439.191986 
	C214.351334,439.191986 178.202805,439.193054 142.054260,439.188660 
	C140.389099,439.188446 138.712692,439.253296 137.060989,439.090454 
	C132.958588,438.686005 130.690094,436.093872 130.375092,432.244141 
	C130.075180,428.578949 131.954010,425.796570 135.628418,424.725983 
	C137.187836,424.271637 138.899658,424.193817 140.542343,424.193024 
	C193.848923,424.167297 247.155533,424.171478 300.462128,424.174500 
	C301.627472,424.174591 302.808868,424.096527 303.955292,424.254425 
	C308.215332,424.841156 311.082764,428.054840 310.954651,431.986603 
	C310.824677,435.974854 307.862579,439.027649 303.472443,439.114929 
	C295.146545,439.280487 286.815399,439.185760 278.486420,439.190765 
	C269.490906,439.196167 260.495422,439.191986 250.999893,439.191986 
z"/>
<path fill="#030404" opacity="1.000000" stroke="none" 
	d="
M130.373444,285.290985 
	C131.608444,280.558502 134.525208,278.839844 138.936234,278.843170 
	C193.371216,278.884033 247.806229,278.859802 302.241241,278.887085 
	C307.604858,278.889771 310.983887,281.883698 310.960358,286.321320 
	C310.936646,290.798248 307.598572,293.848816 302.208435,293.853058 
	C247.773483,293.895721 193.338440,293.899658 138.903488,293.847900 
	C133.368744,293.842651 131.288864,291.655151 130.373444,285.290985 
z"/>
<path fill="#060707" opacity="1.000000" stroke="none" 
	d="
M245.999542,253.354401 
	C230.341721,253.354263 215.183884,253.360291 200.026077,253.345230 
	C198.363953,253.343582 196.668442,253.407593 195.046677,253.116531 
	C191.293884,252.442963 189.196487,250.033813 189.000534,246.262451 
	C188.804306,242.486023 190.635925,239.830002 194.316742,238.833069 
	C196.048141,238.364120 197.934860,238.334381 199.751328,238.333389 
	C245.391373,238.308365 291.031433,238.309662 336.671478,238.329895 
	C338.324677,238.330627 340.035919,238.340790 341.619385,238.743057 
	C345.556122,239.743179 347.444946,242.470078 347.153870,246.490891 
	C346.878784,250.290359 344.714142,252.607666 340.931519,253.152802 
	C339.131256,253.412231 337.277374,253.346680 335.447723,253.347305 
	C305.798340,253.357361 276.148956,253.354416 245.999542,253.354401 
z"/>
<path fill="#020303" opacity="1.000000" stroke="none" 
	d="
M272.000061,383.919403 
	C294.152863,383.919403 315.805634,383.911682 337.458435,383.924133 
	C343.977661,383.927856 347.144623,386.339813 347.199066,391.258911 
	C347.253174,396.147125 343.890442,398.913513 337.648682,398.916077 
	C291.178467,398.935181 244.708237,398.942596 198.238052,398.907745 
	C191.037262,398.902344 186.937302,393.599365 189.713989,388.096649 
	C191.447617,384.661011 194.433334,383.872528 198.047318,383.882874 
	C222.531387,383.952911 247.015762,383.919403 272.000061,383.919403 
z"/>
<path fill="#020303" opacity="1.000000" stroke="none" 
	d="
M342.107880,325.757019 
	C323.539825,325.955048 305.379730,326.053314 287.219604,326.072327 
	C258.225586,326.102661 229.231491,326.081879 200.237442,326.076294 
	C198.572021,326.075958 196.464355,326.648407 195.332993,325.855225 
	C192.956879,324.189484 190.162857,322.130524 189.247345,319.612396 
	C188.004654,316.194275 190.097534,313.116272 193.687454,311.790192 
	C195.194153,311.233673 196.928452,311.102417 198.559494,311.101227 
	C244.883301,311.066620 291.207123,311.073334 337.530945,311.073364 
	C337.864197,311.073364 338.197632,311.080353 338.530701,311.072937 
	C342.618774,310.981934 345.835236,312.486298 346.930969,316.625671 
	C348.008789,320.697418 346.319977,323.766052 342.107880,325.757019 
z"/>
<path fill="#070707" opacity="1.000000" stroke="none" 
	d="
M167.942963,243.051788 
	C168.875275,250.152710 166.432404,253.211243 159.830856,253.325974 
	C152.859741,253.447128 145.883652,253.429718 138.912018,253.323792 
	C133.574738,253.242691 130.190842,250.176178 130.264725,245.780624 
	C130.335648,241.561066 133.606461,238.470428 138.612198,238.360825 
	C145.748077,238.204590 152.922852,237.924179 160.012314,238.517441 
	C162.717468,238.743820 165.232925,241.236816 167.942963,243.051788 
z"/>
<path fill="#040404" opacity="1.000000" stroke="none" 
	d="
M155.881439,326.084595 
	C150.066681,326.084381 144.734833,326.122131 139.403793,326.073730 
	C133.640320,326.021393 130.163818,323.096313 130.258728,318.482544 
	C130.349503,314.069580 133.788574,311.142242 139.173752,311.087036 
	C146.003998,311.016968 152.836090,311.015961 159.666306,311.087097 
	C165.054794,311.143188 168.449234,314.074158 168.500336,318.517975 
	C168.552490,323.053253 165.274704,325.930359 159.863403,326.078766 
	C158.697998,326.110718 157.530991,326.084167 155.881439,326.084595 
z"/>
<path fill="#040404" opacity="1.000000" stroke="none" 
	d="
M130.825089,388.840302 
	C132.500534,384.986267 135.317215,383.839081 138.979385,383.889465 
	C145.952271,383.985474 152.927887,383.867584 159.901489,383.932678 
	C165.296524,383.983063 168.541458,386.892548 168.483887,391.441559 
	C168.429520,395.737640 165.202225,398.798584 160.209335,398.890930 
	C153.071518,399.022919 145.927307,399.035034 138.789886,398.893280 
	C132.636566,398.771027 129.996628,395.462830 130.825089,388.840302 
z"/>
<path fill="#FDDE7C" opacity="1.000000" stroke="none" 
	d="
M364.990417,189.803421 
	C363.161011,189.855331 361.331604,189.952515 359.502197,189.952652 
	C261.527466,189.959976 163.552719,189.959534 65.577988,189.958649 
	C52.474503,189.958527 48.249523,185.738800 48.248493,172.645065 
	C48.245930,139.986816 48.225418,107.328552 48.260849,74.670341 
	C48.272022,64.371033 53.006142,59.462139 63.110298,59.460621 
	C163.417419,59.445549 263.724518,59.476902 364.591156,59.918747 
	C366.441132,64.352165 368.804138,68.349747 368.849915,72.373711 
	C369.173798,100.826157 369.037567,129.284042 368.985168,157.740082 
	C368.981934,159.492966 368.443665,161.244888 368.001770,162.667877 
	C366.152924,158.663345 363.121307,157.595978 359.290833,157.630600 
	C349.134766,157.722397 338.977325,157.661194 328.820435,157.660889 
	C326.427063,157.660812 324.033691,157.660873 320.856720,157.660873 
	C322.408508,155.181488 323.346954,153.628326 324.336761,152.108612 
	C337.858063,131.348190 351.483826,110.654266 364.774536,89.747368 
	C366.233765,87.451889 366.658051,83.724800 366.000061,81.045364 
	C365.100189,77.381027 361.425079,76.777885 357.855408,76.790146 
	C342.037476,76.844498 326.219238,76.786140 310.401215,76.827217 
	C304.566650,76.842369 301.111237,79.652908 301.075867,84.198967 
	C301.040070,88.799316 304.526276,91.772141 310.262604,91.807983 
	C320.252594,91.870392 330.243256,91.813957 340.233582,91.837860 
	C341.779510,91.841560 343.325073,92.007385 345.367798,92.127441 
	C344.142914,94.085136 343.300598,95.479355 342.412476,96.843773 
	C328.896545,117.608292 315.270325,138.302734 301.993835,159.219147 
	C300.438202,161.669922 299.497467,166.000000 300.641907,168.256989 
	C301.786743,170.514740 305.878998,172.420059 308.724976,172.485291 
	C325.533264,172.870514 342.354889,172.666428 359.172028,172.679520 
	C363.388794,172.682800 366.629700,171.206131 368.430878,167.326569 
	C369.480682,175.372147 369.755310,183.008362 364.990417,189.803421 
M154.839630,101.778084 
	C143.783066,83.404373 127.519447,74.863907 106.237900,77.287018 
	C86.944023,79.483810 71.027428,94.200958 66.276184,112.978958 
	C61.608883,131.425186 68.600082,151.273026 83.811295,162.760696 
	C99.472496,174.588196 120.469574,175.781311 137.289261,165.800842 
	C138.662552,164.985947 140.040787,164.179382 141.866150,163.104248 
	C143.962097,165.416718 145.736145,167.643997 147.787155,169.577484 
	C151.402390,172.985519 155.850967,173.010208 158.849228,169.859314 
	C161.785004,166.774078 161.774200,162.635834 158.443588,159.159790 
	C156.285690,156.907654 153.699524,155.065872 151.474258,153.183197 
	C162.189957,136.172775 163.656128,119.617859 154.839630,101.778084 
M197.197891,167.386398 
	C198.515839,168.092819 199.798172,168.877792 201.157059,169.493896 
	C222.907745,179.355728 250.213272,164.896820 251.509796,141.948868 
	C252.589020,122.846863 251.911301,103.637505 251.742554,84.478065 
	C251.692841,78.832428 246.613983,75.407021 241.745102,77.246048 
	C237.979431,78.668388 236.778732,81.698982 236.796265,85.601234 
	C236.875595,103.263512 236.893906,120.926689 236.803894,138.588882 
	C236.749313,149.298218 227.637604,157.390015 215.924652,157.557739 
	C206.732834,157.689377 195.092224,150.133484 195.546265,138.699615 
	C196.101196,124.724869 195.681015,110.711250 195.673798,96.714439 
	C195.671646,92.549133 195.856155,88.368706 195.565399,84.222534 
	C195.231567,79.462326 192.102539,76.728966 187.772186,76.887444 
	C183.655869,77.038086 181.046768,79.782616 180.704651,84.383354 
	C180.618347,85.543961 180.659058,86.714775 180.658890,87.880898 
	C180.656555,104.043877 181.006607,120.216759 180.549118,136.366776 
	C180.167969,149.822250 185.346985,159.870209 197.197891,167.386398 
M269.460876,163.864380 
	C270.207245,169.916656 272.965118,172.867294 277.542450,172.510818 
	C281.944275,172.168045 284.357422,168.967667 284.522125,163.250839 
	C284.531677,162.918396 284.525146,162.585480 284.525146,162.252777 
	C284.524963,137.133972 284.527008,112.015167 284.516907,86.896362 
	C284.516449,85.735062 284.515076,84.556206 284.329132,83.415688 
	C283.644836,79.218376 281.182831,76.858498 276.874725,76.913818 
	C272.546753,76.969376 270.182373,79.459755 269.621185,83.642311 
	C269.401428,85.280159 269.462402,86.960915 269.461853,88.622147 
	C269.453674,113.408257 269.456573,138.194366 269.460876,163.864380 
z"/>
<path fill="#EDC461" opacity="1.000000" stroke="none" 
	d="
M368.154358,162.997253 
	C368.443665,161.244888 368.981934,159.492966 368.985168,157.740082 
	C369.037567,129.284042 369.173798,100.826157 368.849915,72.373711 
	C368.804138,68.349747 366.441132,64.352165 365.037781,60.043888 
	C367.407837,59.641785 369.906891,59.306355 372.370667,59.477882 
	C379.847809,59.998432 384.845184,64.919228 384.872009,72.424614 
	C384.996521,107.256218 385.000916,142.088791 384.872650,176.920349 
	C384.844452,184.577942 379.538361,189.577499 371.888550,189.950745 
	C369.893585,190.048080 367.889771,189.964569 365.440216,189.883759 
	C369.755310,183.008362 369.480682,175.372147 368.390503,166.927216 
	C368.113373,165.135727 368.133850,164.066483 368.154358,162.997253 
z"/>
<path fill="#D871A0" opacity="1.000000" stroke="none" 
	d="
M57.064400,326.074097 
	C68.172546,326.074097 78.789246,326.074097 89.671906,326.074097 
	C89.671906,334.618225 89.671906,342.713440 89.671906,351.204529 
	C76.137405,351.204529 62.584877,351.204529 48.629978,351.204529 
	C48.629978,343.006409 48.629978,334.817932 48.629978,326.074097 
	C51.347641,326.074097 53.960297,326.074097 57.064400,326.074097 
z"/>
<path fill="#D871A0" opacity="1.000000" stroke="none" 
	d="
M48.231018,264.048096 
	C48.231064,260.412048 48.231064,257.265106 48.231064,253.716705 
	C62.120205,253.716705 75.677788,253.716705 89.592010,253.716705 
	C89.592010,261.896729 89.592010,270.105133 89.592010,278.598755 
	C75.926765,278.598755 62.366196,278.598755 48.230976,278.598755 
	C48.230976,273.774445 48.230976,269.155853 48.231018,264.048096 
z"/>
<path fill="#DD74A3" opacity="1.000000" stroke="none" 
	d="
M77.984352,398.926788 
	C82.104927,398.926788 85.728928,398.926788 89.643433,398.926788 
	C89.643433,407.332428 89.643433,415.384918 89.643433,423.806335 
	C76.008492,423.806335 62.369289,423.806335 48.492607,423.806335 
	C48.492607,415.543518 48.492607,407.494537 48.492607,398.926788 
	C58.319946,398.926788 67.903862,398.926788 77.984352,398.926788 
z"/>
<path fill="#040402" opacity="1.000000" stroke="none" 
	d="
M154.983337,102.120537 
	C163.656128,119.617859 162.189957,136.172775 151.474258,153.183197 
	C153.699524,155.065872 156.285690,156.907654 158.443588,159.159790 
	C161.774200,162.635834 161.785004,166.774078 158.849228,169.859314 
	C155.850967,173.010208 151.402390,172.985519 147.787155,169.577484 
	C145.736145,167.643997 143.962097,165.416718 141.866150,163.104248 
	C140.040787,164.179382 138.662552,164.985947 137.289261,165.800842 
	C120.469574,175.781311 99.472496,174.588196 83.811295,162.760696 
	C68.600082,151.273026 61.608883,131.425186 66.276184,112.978958 
	C71.027428,94.200958 86.944023,79.483810 106.237900,77.287018 
	C127.519447,74.863907 143.783066,83.404373 154.983337,102.120537 
M81.459671,134.783386 
	C89.360542,155.672150 113.496025,164.376144 130.037735,152.078339 
	C128.771912,150.751709 127.549614,149.421646 126.275352,148.143387 
	C119.442513,141.289215 118.429420,137.444092 122.455116,133.543518 
	C126.341827,129.777603 130.154633,130.807205 136.743622,137.377014 
	C138.006287,138.636017 139.317001,139.846832 140.628265,141.101624 
	C149.207001,129.601303 146.979279,108.789314 132.052673,98.051018 
	C120.935089,90.052963 105.880638,89.728989 94.596405,97.246574 
	C82.636818,105.214096 77.782715,118.512550 81.459671,134.783386 
z"/>
<path fill="#050402" opacity="1.000000" stroke="none" 
	d="
M368.001740,162.667877 
	C368.133850,164.066483 368.113373,165.135727 368.133240,166.604309 
	C366.629700,171.206131 363.388794,172.682800 359.172028,172.679520 
	C342.354889,172.666428 325.533264,172.870514 308.724976,172.485291 
	C305.878998,172.420059 301.786743,170.514740 300.641907,168.256989 
	C299.497467,166.000000 300.438202,161.669922 301.993835,159.219147 
	C315.270325,138.302734 328.896545,117.608292 342.412476,96.843773 
	C343.300598,95.479355 344.142914,94.085136 345.367798,92.127441 
	C343.325073,92.007385 341.779510,91.841560 340.233582,91.837860 
	C330.243256,91.813957 320.252594,91.870392 310.262604,91.807983 
	C304.526276,91.772141 301.040070,88.799316 301.075867,84.198967 
	C301.111237,79.652908 304.566650,76.842369 310.401215,76.827217 
	C326.219238,76.786140 342.037476,76.844498 357.855408,76.790146 
	C361.425079,76.777885 365.100189,77.381027 366.000061,81.045364 
	C366.658051,83.724800 366.233765,87.451889 364.774536,89.747368 
	C351.483826,110.654266 337.858063,131.348190 324.336761,152.108612 
	C323.346954,153.628326 322.408508,155.181488 320.856720,157.660873 
	C324.033691,157.660873 326.427063,157.660812 328.820435,157.660889 
	C338.977325,157.661194 349.134766,157.722397 359.290833,157.630600 
	C363.121307,157.595978 366.152924,158.663345 368.001740,162.667877 
z"/>
<path fill="#050503" opacity="1.000000" stroke="none" 
	d="
M196.886047,167.195969 
	C185.346985,159.870209 180.167969,149.822250 180.549118,136.366776 
	C181.006607,120.216759 180.656555,104.043877 180.658890,87.880898 
	C180.659058,86.714775 180.618347,85.543961 180.704651,84.383354 
	C181.046768,79.782616 183.655869,77.038086 187.772186,76.887444 
	C192.102539,76.728966 195.231567,79.462326 195.565399,84.222534 
	C195.856155,88.368706 195.671646,92.549133 195.673798,96.714439 
	C195.681015,110.711250 196.101196,124.724869 195.546265,138.699615 
	C195.092224,150.133484 206.732834,157.689377 215.924652,157.557739 
	C227.637604,157.390015 236.749313,149.298218 236.803894,138.588882 
	C236.893906,120.926689 236.875595,103.263512 236.796265,85.601234 
	C236.778732,81.698982 237.979431,78.668388 241.745102,77.246048 
	C246.613983,75.407021 251.692841,78.832428 251.742554,84.478065 
	C251.911301,103.637505 252.589020,122.846863 251.509796,141.948868 
	C250.213272,164.896820 222.907745,179.355728 201.157059,169.493896 
	C199.798172,168.877792 198.515839,168.092819 196.886047,167.195969 
z"/>
<path fill="#080704" opacity="1.000000" stroke="none" 
	d="
M269.458862,163.422424 
	C269.456573,138.194366 269.453674,113.408257 269.461853,88.622147 
	C269.462402,86.960915 269.401428,85.280159 269.621185,83.642311 
	C270.182373,79.459755 272.546753,76.969376 276.874725,76.913818 
	C281.182831,76.858498 283.644836,79.218376 284.329132,83.415688 
	C284.515076,84.556206 284.516449,85.735062 284.516907,86.896362 
	C284.527008,112.015167 284.524963,137.133972 284.525146,162.252777 
	C284.525146,162.585480 284.531677,162.918396 284.522125,163.250839 
	C284.357422,168.967667 281.944275,172.168045 277.542450,172.510818 
	C272.965118,172.867294 270.207245,169.916656 269.458862,163.422424 
z"/>
<path fill="#FCDE7C" opacity="1.000000" stroke="none" 
	d="
M81.317368,134.399719 
	C77.782715,118.512550 82.636818,105.214096 94.596405,97.246574 
	C105.880638,89.728989 120.935089,90.052963 132.052673,98.051018 
	C146.979279,108.789314 149.207001,129.601303 140.628265,141.101624 
	C139.317001,139.846832 138.006287,138.636017 136.743622,137.377014 
	C130.154633,130.807205 126.341827,129.777603 122.455116,133.543518 
	C118.429420,137.444092 119.442513,141.289215 126.275352,148.143387 
	C127.549614,149.421646 128.771912,150.751709 130.037735,152.078339 
	C113.496025,164.376144 89.360542,155.672150 81.317368,134.399719 
z"/>
</svg>